<mxfile host="65bd71144e">
    <diagram id="XnstQBQy5RVpnXzdivbl" name="Page-1">
        <mxGraphModel dx="2036" dy="1561" grid="1" gridSize="10" guides="1" tooltips="1" connect="1" arrows="1" fold="1" page="1" pageScale="1" pageWidth="827" pageHeight="1169" math="0" shadow="0">
            <root>
                <mxCell id="0"/>
                <mxCell id="1" parent="0"/>
                <mxCell id="2" value="" style="shape=image;verticalLabelPosition=bottom;labelBackgroundColor=#ffffff;verticalAlign=top;aspect=fixed;imageAspect=0;image=data:image/png,iVBORw0KGgoAAAANSUhEUgAAA5gAAAFLCAYAAACz/SMVAAAAAXNSR0IArs4c6QAAAARnQU1BAACxjwv8YQUAAAAJcEhZcwAAEnQAABJ0Ad5mH3gAAI11SURBVHhe7f0PfBXVnT/+v/xTrK3UXdKi8NEm4lfqfiXsT6u/hiDy57PWtqGw+NUtRovFlq1pXLqiEj/B/rEt+RGquPIhG7u0olRjPltXCiVtrV0EKSH79d+nCX3U6kdMxAWkhq2lFY1/8jvnzJl7z5w58+feTEgCr+fjMXDvnXtnzpw5c+a855yZHHf48Fv9ICIiIiIiIhqg4/oF/ZqIiIiIiIioaMfr/4mIiIiIiIgGhAEmERERERERZYIBJhEREREREWWCASYRERERERFlggEmERERERERZYIBJhEREREREWWCASYRERERERFlggEmERERERERZYIBJhEREREREWWCASYRERERERFlggEmERERERERZYIBJhEREREREWWCASYRERERERFl4rh+Qb8eEm+88Qb27duHP/7xj3jvvff0pwN3/PHH40Mf+hDGjRuHD3zgA/pTIiIiIiIiGixDGmDK4PJ3v/sdzjjjDIwZMwYnnHCCnjNw7777Lg4ePIhXXnkFH/vYxxhkEhERERERDbIhDTBffPFF1cv4kY98RH+Svd///veqd/Tss8/Wn6TU9zqe/Y8/ouXZw/jf/9WPLX/WnwtTTj0Rn/nEh3DdJSU4fRRHGY8M7+EPL/4nbvnBG7h3zAfxnzefgdP1HKfe/fjaP7+OhkMn4VcryzBFfzwY+va9gMc7NuPxzbvQ1fM8eg97n48aOxFlpaWovHQ25sy6AONP9j4nIiIiIhquhjTAfPbZZzF58uRMey5tsiezs7MT559/vv4kjT/ioTv24ZoD+m2U44/HdxeegSUfY8t/WHvnj3h8w6tY9OR7eEm+HxsTYL73Bn67ZT8W//JtbFEjtgcxwPzTC9jUtAJ3bHoeffqjKNXN27F4sn5DRERERDRMDWn3m7zncjCDS0kufyD3dp71weNw3bkn4bsXyGkUrvugniGJ5d6ybi82JAWiNDT6XsfOtt249LZ9+Bs/uIzyzp/x2//oxhW37cGkX/jB5eDp2/0Ibv2769AQCi5HoeSciZh4bilG60+IiIiIiEaKIe3BfPrpp/Hxj39cvxs8ha/nDbzUeRgnn/uXjiGw72D/f+zBFf/Wh536k1nTPoLHPjtGv6PhYP+OF3HxxnfcQaXdg/m7lzFp3WH81hlUDkIP5r7NWPL5RrTrobAyqJw4pxa3XD0b5WeM0p95+np78NSj96P7r7+O6vP0h0REREREwxRvIHT6AM6aHHV/5Yk4/RMlqB2r3wpbXn9Xv6Jh43C+x/KssSfhgQtiivrb7+WCy9NHvw8PTH2f92YwvPsC7rvJCC5PnoTr/2Uj1tddHgoupVElpaisZnBJRERERCMDA8yivB+nGx2Wp5+oX9DwccLx+EzZydh8wxn4PzeXYeaH9ecRpojg7oEFp+PFZRNw1dmDd1gc2nI/7unRbzAO1SvvxhfOO0W/JyIiIiIa2ThEthiH9+OW21/HKt3rVT//LHz7Aqv3Sd7T9/RBtDz9Jjr2vYctb3kfn37ScfjMxz6A6z59OqaUhCPTnQ/8Dhd36jeTx+DdaxxP2N3VjRPW6wVGPbDm0B/ws18exA8638YG4wm4AcZvA+tNMO+T4/Dw33wIOPAKrrjjz9ggP4xKx3uv46FV+/MPTIp8wM472L9rP+7d8gZa9vZ7PYoizps1fhS+UnUa5p09sD8zs/+XL+C//ULvsMg0aGb+ZjpEdh8e/vu/wx2/8d6NmrcSv7x5CsL9lun1ti1FVYM/WNtlCuo3rMQco8c9590+7P3NL7Bp4y/R/kwXnj/g3Q06unQiPn5BFa64ejYuHOdK3S6snlqDFv0uTN5HOgWXXX0tFs46B6Ndt1m/+yd0d4h1b3kCTxnrlk/Orfybebj6ytkoD6U5uF7/wUe9T7Zi9b0P4fHOg+hLXLe5jPlYu6MW5eq1qQ9Prb4GN/yvffp91PeIiIiIyDYyezDf3YendvQkPnkzc32H8dKuPfiHlfng8qwzTkGtHVziNaz6+iuY9G9voKE7H1xK+9/qx72df8bF392Nhl25m/Ay9ebvXsZnl7+K2Ttjgssj4j289MsDyU/jfecPeGj1i/hv6/+Mr72ig0tJ/L/llT5c8b09uLT193hTfzxiHXga7Tq4lEHYFZ8cWHApvSWCxKL0PoN7bvg0Lq9pxH0/fzoX4EmHep7H1g134YYrPo1FP3yhiOOsD70vbEPLN69DVf1m7A2NIN+F+z77acxfehdarHX3HRDrbmnEouov4p7OhDW/cxDtd12Dqn9swqMquJSS1p2s75m1aMgFl0RERERUiJEXYIrgclP9NViyqQuvDfqtj79Hw9Lf4QR/uu1l/F/r38A/y6DtxOOx5JMfxlM3/DdHT1g/3nxH/Cdy96pzP4CHq/8Cv5TTZ0/Gdf6jQd/rx9f+7fd41g+mstL3e6xqOYyf+gHw2JPE+sdgV92Z6P3amdg1zb3LTz/bf1KuN33lL/UM4fzxowLzPjM+5Zjgl/8Ti3+ZsIGyh3PNq7jmFe/t6aNPxP/8rJdfD085EbN0crc8cxC37BjSaHng9vegXb8EpmPyBP1yAHr3PK1fTUT1N+/Gmn+SUy1m6E+dDu/C6n/4Ku7LBXCnoPxT8/GFhQvEdDkqx/phbx+67rket7bFB1tXrPwZHvupP21E68oFKNd/uafvV4343rY/eW8Mf3xd/HPyGFTOuxG3qzSL6Zu1uOwcve7Dz+O+Fa14PuYY735wBZY83IPR512KapX2+bjMGG4s171k3a7CAuTDO7F6aSv26rdEREREVJiRFWDq4PIO3IjWhtkYP7h/4STWlNNPxF85x/55/mLSqfjP73wMD1x3Jub9f07DTDlN+yjW3nwqlvi5/uc38fiL+nVW/s+f0ZR7gMzJ+NGSMrH+j+CvSj6Avxj9AfxlxJ/sPGtKGZbMz0/VZ+oZQtmkksC86/7vFMNV3zuIex98Az+Vr8X2Rg1H3b/lAK7xW/MicZtvPhtfmebl17x5Z+Mn15yUG576z7/ozT4gP4J69+RuvhRKUDLgWy//hN7f65eYhAunX4ALL5LTJIzXn4aJoPHeb6HFT0rp5Vi16WdY+7VaXP+lRWK6Eas2/AytN/q9q31ob2jCozIgjDBq9CkYfao/jUHZ1EW45dpxei7w6G+79au8D39uJdoe3YhVN1+Oy1SaxXTpfNze/B1c4ZfRns1o361fO7R37MUVd27EY//ydSxWaa/F7f+yEWurS/U3RBC6rhWPx6Q9SGxr0214WB4/J48acO8yERER0bFo5ASYQxJcvg/nGz136u9gjvaCpZ2v9GHRv72K8+54Gc+GRrp+BF9ZcLr74T8nfwizPqpfox8vHXhDv86ICMD265cYfTzGDckefg8vtfVi0X9575ZM/UDEPYy9aNnuR4zH4buXn4HzrQD4/ZPG5J/Ye3gQAvIRrRev7dEvTxbBXZqI6E878XCL3yNZiutvvxGVJfptziiUXXEjFueeXLsNj/7qoH5duAvPtFcwCdWLp6DEdQyfXI4LL9avsQ8v7Qn3fvrGV9+KxRX2nwcahfLrv4Hrc/HtNnT9Nl0fZl9HE27d4H23/PpaXKFeEREREVEhRkaAOWQ9l3+BT+teO286C2u/9jH8Z92pqP+g9439rx3G7If2u+8PfOdNvPTCq3h8+x6san0Ji5Y/j0u/tgezjQ6dfYflWNoInQfzw3PNKfcAGoeTjsf5+iUOvYd9Q9HjJ4fG6sDx9LIPYdknjlOvQw4czv+5juNHYebHXMXxQyjLdX/245lXDunXI88oEQSa3hroEO++veh+Tr/+eFlMr6Vh9y48ql/i3Msx4xz9OmQcKmfnH4zV/tvfpR5qeui5R3DP/TqIPXkKPluR780MkA8Zeu4ZPPWY+P7378KtX/wiFsybi1sf0/OFQ4ej1joKn5wxyd3LeMI5+PhM/VrofCXF/ZRyaOxtj3jbWLoIt8ybqD4mIiIiosKMjADzhBJMvkg0drs60JX0wJgjoeR0LPt/TsoFcvufewOPm3HPe4ew80cvYtJtPfi/1v4Bf/OTN3DLM3249/X+wAN/BsU5f4Gbcj1+h/EPa/dg59438IdD3vRfg/NcobzA0Nj34ftXjxNheoQD73hPoJXeewsXuoJpMZlPt33z3SF76PGAjT5tnBEQPYNufd9p0fbtg581o84Zh1BHpENgmO5fl6FMv3QZX2ZEn/t6ERXat9RMQ8XU/HTpF+9C++FTUDZ9PlbdtxKX2U+Dffcgnlq3FFWX/Xdc/sWv4oZv3oX71j2Crc89H3jgT7yPY7zjAcu+8WX5PvPnX026KGEMjVW9ugswcQiH3xMRERGNZCNkiKwcsvcdrL+uD8u/eBseHQYPeHz/xPcj30nyNp7NtdsPY2fLPlz85Du5P7Vx1bknYa18cM0XPoL//NpH8ctJ3jcTffQD3sOB7Glq3EN2PoSrvlyC/6kb9TtffAMX/9MelHzbmyblhqQOhuDQ2K989jR8+lTvNQmlE40y8zxatrygXxfn0Iu7xFI8MyfEhYpD4U/o/n9/gYc37rSe5CofHLQYN3x/J3rVvY7yQT8LcLN8QFHzA2j76c+w6nPeNwdi7z7/4Uci2PzQSfqVmzk0tuz6b+ALkb26RERERJRkhASYkhFkfn4pNg2DINNp72to6NS9bMe/D5uXnYMHrivDdfLBNf/3GJwuHwwUMyo24C9EEOs/IMiczk7oXhn9YXxlyZl4SgSif6U/OhIOW0Njvz1VjyOO8uETMU+/xAdPxq++5j3pNm76/iUDfjLO0Dnl45hZle/D3Pvg2gGUYxGoPeOPJZ2I8rPT5UvJuPwDcPDrboQfv5O3t9sIgEvHR/aQBp8i+zM88oOv4/qLRHoOH0R7y1LM//a2fO/nK5ux2n/C0MmXY9WP5YN+FuGKSy/AhZNLUXKqyJ9UnZi98q8GRfgTel/JL6TsIzF9u9bQ2G9VM7okIiIiGogRFGBKOsi8Hrjji014Ku1ougL9Yf8f8IeEjr43f/2G8YfmRSCnbzN78z/f9oaHSh8ehfNHW1n83h+N3s7BIntRX8GFO97Bb8W7s874IP5Pw8fw7sqP4T8/OVi7/B089K8ph8b6xp6EC/zk/Plt7H/Pe9Jt7DRqhBXZgFMw48pr88NSRXDTcNNdaO/V7wtx+Gls9ccXn1uFC424MdYZpajUL/HcY3gqsiwexFPb8r2Al02Kvicx+BTZUzD+3EvxhduX5P5USt9j2/C0flZP3ys96PJeAn99Dj5mx8Xv9uD5Dv061vN49JmI6Pz1nfh57j7Oiaj8K/tBQL4+PH7vXRwaS0RERJShEdhal0HmSrQ9tAgXpnlqZhHe3PV7XLiqGz972fV3F9/DH17cgy/9mwiI9Cc44/2YqTtJ3jSD3tBDdt7BS798HXcO8n2Qf9ixD1f4vagnj8IPF52Bs1L+6cqiHXgLX9P3x6YeGnv8qZg5yX8A0Du4Yd0e/NaZNzLPX8E/7/yjfj/EDu/CfX//aVT8zVwsaXkhXYeb75z5WGb8GQ30PIIln/siGjbswl7HgvoO9KC95Vto+Y3+QOtuW49N+nX57Cmx91IGjJ2BOZf6B84u3PE/mvCU40GtezetwB1+oHfy5fjsxQX2HL/1ljNf3nrDuB+y5yB6rQcd7W1bi3tT9up2Nd2FTfZ9rPKBYA0rsFW/xXlVqIwMvh9Bi36iLofGEhEREWVjxHYHjZZD6QbRSyJgmr3mFfy3rz2PRfd2Y1WrnF7CottfQMn33sBDfuB4/Il44O/yvXV/cdb78Bn9Wj5k58pVL+Gh/3gVj//HK1i1Zjcu/uW7GBfxtygzcfhV3PmLfPD7lU+OxZTBXJ8l1dDYnFGY8tnR+Iouhfv3voFJt/8O19z7spdn//tVbGh7Cf+wXOb5n7HFFe8Pga4Hv4p7fiOiMjkEtGktfl7Qg6fkn9H4LlZUGVHP4eex6Y4aXD5zGio+cw0WyKepfmEuLpk6DZfMuwZLmh7DazIQe70HTz35DB5d949YdNcu77ci+Fv4qYintDqdghlfuRWVub812Yob/nYuFn27Cfd8f62YmvANETxf3rhTB4ilqF5VG3sxp+/Qn3DodX86iO7Ox3DPN+5Cu56PWVPwcR2fjp44CeXeS2DfWtTe1IRNO57BUzs2455vfhHzG7vx4ZSbMwpPo+Fzn8YNd7SKZezEppa7sOSKa9DwKz+0LcUXvjo7+em6HBpLRERElJmRPN5w8JyQz5b9b/Xj3ufewi3PyKkP9xpBzumj34eHF5fiqtONbBz/YdRPzv9ZjpcO9OGaf/sD/ubf/oxbXu7HZz59Km4arWdm7j08+9PX0eD3An7wZFw3JW2wl4G0Q2NNp47D/1z8QVzn97CKwP2h5w57edbyB1yxrQ//rP9Q/l++L+LPnQypQ+grqAtTOGEcZtTfi9b62ZhoB/8iiHxePk31hYPhHsCezbjhH7+Kb3z/aX1Poxf85YLFtMZeilU//A7m+DGuCJS7ft6K+9atF1MrHpXBs3TyRFTfuRqLJ8dfzHl46adx6Wf8aS7m13wL93Xq1J86Hbd/5VLkivwZs7HY6ME99GQrGpZ+FTcsbcR9j+1F5dduxRciexyDrrj9blSX/glPbWgSy1iKhqZH0J57Cm0p5nz7u7j+vKQLURwaS0RERJQlBpgOp88sRe8Np2LtpPdh3qnH4Sz9uXT6ScdhXtlJeKD6NPxm2QTMG2+PPT0ZU645E7s+OwrXiVa1/yccp5wxCg9/+UysnTmI3Yn792L5f+T/jMeSz3wE5x/BPVz0U2PHn4G13xqHX31S5JmV31NOPR5fueCD+NWSs7B2+qBF5gUpv/K7qD7vFLGrx6CydgnmnKFnFGQUyqrqsP6n/4q19Qtw2UUTUWbmnVj2xHOn44raOqxp+ZkI8sRnJ4xGiSo+o1By8Xzc/sN7E4O/SOOmo/6HP0Prylq1bm+50ikok+u9eSVaf/wDLK6Iun8x3qixk3BZrVjGv34HlwV6JEehvFYE19+cjxnnjBHvJO9Pmtx+34+w4lMFPA139CQs/pd7cXv19HzenVqKCz9VizUbHkD9rOSuUA6NJSIiIsrWcf2Cfn3EPfvss5g8eTJOOGHwug/effdddHZ24vzz/b9aSUQj0y6snlqTe7hWdfN2L/AmIiIiomFjSHswP/ShD+HgwYP63eCQy5frISIiIiIiosE1pAHmuHHj8Morr+D3v/+96mnMklyeXK5cvlwPERERERERDa4hHSIrvfHGG9i3bx/++Mc/4r33Ev74ZAGOP/541XMpg8sPfOAD+lMiGrk4RJaIiIhouBvyAJOIKB0GmERERETDHZ8iS0RERERERJlgDyYRERERERFlgj2YRERERERElAkGmERERERERJQJBphERERERESUCQaYRERERERElAkGmERERERERJQJBphERERERESUCQaYRERERERElAkGmERERERERJQJBphERERERESUCQaYRERERERElAkGmERERERERJQJBphERERERESUCQaYRERERERElAkGmERERERERJQJBphERERERESUCQaYRERERERElAkGmERERERERJQJBphERERERESUieP6Bf16aLz7J3Q/sxU///kv0f7iS+h+4SD61IxRKDmnHBd+8nNYWDUFZaeqD2kY62qahkUt+k3B5mPtjlqU63dERERERDTyDHkPZtc9n8b8f2zEfT9/Gs/ngkupD70vPI1Hm5Zi/meuQcOWffpzIiIiIiIiGo6GzRDZUWMn4sJPzccXFi4Q03xcNnkMRul5QA82fe0W3PObfPhJREREREREw8uQD5Htfe4ZHBp3gXMI7KEXHsE3au5C+2H9wbyVeOLmKUbgScOJOUS2sn4jVlWN8d5EObAZS+Y1ol294RBZIiIiIqKRbsh7MEvOdQeX0uhzLsfCeUY4ua8Xh/RLIiIiIiIiGl6G/VNkR59Wpl8JJ56kXxAREREREdFwM/RPkY3zbg8errkGd/zGe1t+879i7bxx3hvDoZ6deHTjY9j6zNPo9B8UdPIYTPz/fhJXzL8KcybHD9Xcu+kfcXnj0/qdQ0Ud2u6cjRL91lTwulMNC92F1VNr4I02nYL6DSsxZ6x6k9e3D12PbcOjOx7DU//7eXS/7n08uvTjqJz9OSycMwVlp3ifHSlZD5ENPJW2uhkdtZPEb55By/fW4sFtu9B72Lt3t/Jv5uO6ay/FxLjtfbcPe3/zC2za+Eu0P9OF5w949/OOLp2Ij19QhSuuno0Lx8UPvj5y5aRPbPt1Ytt7vLcnizLwQ1EGAkXfLCMye7Zj8WT9Rnp3HzbVX4OGX+n7lktF/v5A5O/J4rWZ71Fplr9f+ndo6NDvY7aNiIiIiMg3PHswRTDQKxrk99xwXS64HHXOIiyuCgeXXes+jUurl+KO/yUCLfMptIcP4vltrWiouRILvr8r/7lD756YoCFGFusuSu9juPUzf4dFDU14eFs+uJQO9egn7/7dbXj0qHrwrigTHXdh/ryvYvXPveBSfXrgeWxt+RYW/O1SbIra3t5nRFn6NC6v0U8r1sGldKhH/H7DXbjhik9j0Q9fGCblZBTKr/8u6i/WAe/hnWi4qQld/r3IiUSAes8t+eBSBqh36uAypb1td+WDSyIiIiKilIZJgHkQm26ahoqperrkv6NKNMjv6xQN5JPHoPJLd2PDDxag3NXB9MafxD+jUHLx5bj5m3djzT/J6etYfOlE/TCgPjy/bgVaXlBvnN56V7/AdCxWvxfT4un6sxgZrLso776FPhlsnDoJly2swyqd5lX183Ghfz/r69uw/HvbirxnVfagXePti78Rgdsr+uN39+HRr306//mRDGB3t2L5TY+gW27z5+SThheg+lOTMFrP9oKwteiyI8TDu7D6H77qlSXlFJTnnlZ8OSrH+oVKBmXX49a26I06ouXkhHGYI777hXN0+nrE9t+b7mLFoS0rUGv2ft5n934m6HkE32jcqd84yDyt9o7VS+o2Y6+fL/u2ocH1OREREREdM4b5PZiiUX7OxzExFwQ4fHg+Vm34d7Q13ogrLr0AF14kp0tR/c1mrMg9IKgHmzqioryD2Kvb4hg3Uf9eTH+VokU+4HUX6yRMvvlePPaTZtz+pdmo1GmurKrFmuYbc8NM+x7bhqdlbFMQEWh9v8YLUERwcvO/fAdzzhAfv/snPHXPLfjGFrFA55DNQdaxE3uvWIk2uc2LF+H6Ly3C4q81o615PnJ36fasx4PbzA0W23Lvt+DHWii9HKs2/Qxrv1arfn/9l24U++9naL3RfzJxH9obmvCo0SOcNwTl5ORJuL75blSXem+7W74aGwAr+zbjGw2P6UC0FNWr9P5LSw5LX34XuuTrk0fpfLGIdC3+Fy9dfb9qxPx6HUyOm476O7+OGad6ny9p3MYgk4iIiOgYM0wCzFE462KvVyr3dzAvKsVo0Uzu7XwM9zXUoOrzjdjqaFuXf64Wlfb9icoolF+Q713a++Jed2/eu93o9ocCnj2uoHvMBrzuYo29FF+Ydw5Gn6Dfm0rLMTUX8+xCd0G9jH3ofvg21K57Hn0nT8QXRHByxQQZYni9ezeYQeeRDC6lcfOxrHYKSqxtHjW5Ft/6Uj4xW3/dpYMr4U878XCLnwGluP72G1EZ2sGjUHbFjVh8nn6LbXj0Vwf1a8NQlRMZzN1Zh0o1vFUGwLdgda431iJ7Fm9q1H/WZxQq67+LxZOdIWKk7g0r9LD0Ubji+kW4UH3qcMoFIl2iHOgg89pvPqaDzEux4gdeervbbsOSewZhiDgRERERDVvDJMA8BeXzvF4pb6rF7f/0AB579F7c7N+H1rMZt37jEXRH9Ij0vfICnnryMTz8/bW4o/6LWPCFuaj62mN6rnDokLuhu3sXtuqX4yeVFfUQk4LWfYL5JNwX8FJBAaCl7yC6O59Be1sr7ln9LdzwxS9i/meuwz25Ze7DH1Pftyfvu7sNC+7aKdIqe76acb0KTvrw/A+/qns0J+H6NX7QeWSN+tR09xBpYeLHjWGqv92Hvfql3LeP6pc493LMOEe/DhmHytkf16+B9t/+LlxWjnQ5MY2bjRWr/J7aHrQsuQ2b9lnffGcfNn3zq7q3Vt7DeQ9WOO5ZjtXzCJbftUu9HHXp1/HlSxKeEmX0WB7a8i0RTD6DQyrInI1V9+kgs6UGC5oYZBIREREdK4b3ENlTzsEVN92ISv0Wv2nF1t36tdb7zHosmfffccnnrsMN//gt3LFuvXrwzfPmw1RidP96Wy4gqTxHj0VMqah1l4zDxNzDVp7G1ietCFM+7VQEjd36rdPhHmy6owaXzpyL+TVfxZKGJtwnHyDzXPCBP4Xo61yLRQ0yuJRPgM33fPU9sxa1uhfqMvH5F8498sGldOG48fqVw+ml+TLy3L5cL2DvHn9Mq/DXZfmhtA7jy4zo0/H3Vo94ObHIntqmBv0UV3W/6Sr99F1P+x35h/qUXPFdNH3+HBFmFiAwNPZSfOvG6fn7W+PIHssVC1S65BDe//FzXZ7PmI3b6y9VL+Xny7c4eoWJiIiI6KgzzO/BFMaWo/Jc/Rr70Pl8vqHa19mE2n9Yi3b1VFDvISpfuPnrWPNPzWjd8DM8dud874uR9uGpXzyvX1+OygvSN8mLX/dEXFiVX0974zWoqrsL9+herarL/jsurxHL1fND5J+P+OZ1aNiwywuC1ENvalG/8m6s+cG/4rGfPoCbK9Q3CzJq8rW46/pJKihpv+tbuO85L1gZdcEirNI3AT7a8K38A3+Gk9+L/ahfYtxoZP/XUoeinFjEft/x01+gV78tmzoF5l8lmSze+wF0b1sr/DgvLXNo7GX1S1SvZCq9O3HHivUqXWVV30H9p3Svqb4XVCqrvhvLZiX8yRoiIiIiOioM/wAzkgi01rTqnr5RuGLlRvUQlevnXYoLL5qEsrGniEDDC5IiPfcYWvw/g3LFdFyYOm4YyLpH4cKrb9X31El96P3VI7hP92qpP79x6imRvUd9z7TiDv/PT5xXi1b10Jv5mDP1Alx47jiMloHBH7zZhRmFiZ+/G00LJ2LU4V2454bb8PBuLygqr70Xa2WQKXvOvnCEnx6rvXY4+i7WQ6/uy+e2cX9kyTijp/HX3bG9wnu7jQfslI4PDoEdknJikvfA5nsoR11ch1XXT4c5gPWUabVYVa8fVlTgnzV5yxoae/OslH9A9U/PYPU/LMXDPTpNddMxXt4jK4LLJZ/37gUtu2IlmvSFCyIiIiI6+g1tgHlgX/JTJuXfdXxOv5ZBUJnuCekTAYNu9AMfx8Rzwo3i7t/G/KkF/AlbW+/Xwx7H4bpPX5C+ETzQdY+9FKt+fC9ur56OMr+n6NRSTJw+H/Xy3tOffBef1R/b9vYY97P9tQhS7Af9vP48nsrlV6FEMPmlZjTpYPKOv79N91jKe/pWY9UVOsj8/JEPMp//xdP5eysD/oT2x/P3MU68aGI+ODzDHDr7GJ4yRswGHcRT2/J/4/KySRP1K2kIy4m2d9Ntxp8duRwrvjnbC+Qs46u+jm9dqlPX04rab6b5UyE9eHh1EUNjZXD59949nzK4bG3QaZJ/qkQ/aEj2aK5aHH4wExEREREdvYY2wNz/COZ/sREPd+5Dn6shfEAEOf9DN36lcddilj9ctq/PuE+uGwftW7xe2Yx7HoyOgvo678fqx3SoNmsR/p/cMNwUBrhu5ZRzcFntd9D60+3o2CGmnz6A9Q21mCOfnhvTIO8ze/L25+83VOSfEnng/tzDaIrjPSBmjdljKYPME8agcvF3cbvs3ZKff/E2PHokg8zfNOEOR1S7t+1bWL5Fv8EkzKkwei3HzsAcP+DCLlGWmvCU48+27N20Anf4T4gVAdxnL84HgkNdTva2LcX8Ru/eWO/PjtQavd+2UzCjLv9nTdSfCvEfvBOloxUtatsLGBorn1abCy5vxHo/4JXDZW+6DZvsHk0iIiIiOmYM+RDZvhc2446av8Mln70GN3y7Sd2LeM/3m/CNmrm4ZJ43/M4jGtdfn4+JfoP1lIkoz/1piX24Z8k/YnXbTjz15E5s+v63sOALjej+C8dTNF/vEd/ZjNUrWnWv1BhcdsEp+N2Tz4jPjem3RsP/D/I38vMeL2Aodt0ZKDt3Sr4HTf5B/W+24lGZtsceEY37K3HD432IeRxOOiecggtrH/AC31+uzP8dxRPG4bJv/0wHxN/BZYOziW4iqHqq8e9w6T/ehRaR1/LJuXfUzcV8/WAiqWyhCNADf/NRBFxfMYYj97Tihr+di0VmOfv7T+NyK4BTQ2CHQTmR928uyW1fyj87EvizJiKsbfkqFqX4UyEFDY2V62jxLow80Xg5yvz8LZmCm3Ofu3tZiYiIiOjodly/oF8feb9Zi0v+fn1i4xenfhyLv/sdVJ8XbADLBviCGv8et6DRs76O/99Fj+EGETwoFXVou3M2SsRvKsRvijMfa3fUoly8Kmrd3rsUdmH11Bq0qNdTUL9BBHn+31GUD/mpvyZ3P16A+tuVX0JfzVL9W6C6ebsISvSbQdbVNA2L9Ior6zdiVVXCg10ObMaSeY36gUb5vPWZy0P1SqxFk3ifu+IQoIZjRvWYqWGbXs9aJJF31d8RAVyFTvNQlxPjPkaprLoZ62vNexnNMhLez33PNGH+P/jBsQxOHxD7QwezgXwXTr4UK/7N+3MjAeb3Ci7DRERERHQsGtoezPMW4ZcPN6O+9nLMOHciSsyhf+qexMtx8zfvRdtP/ikUXEryTzes/+HXUT09/9vRpdNRLX7zyDcvxVmD2IMyZOs+YRzmNPwIa2ovxYWlOk9OHoPyT9ViTcsPcP3kVHfQjUCj1dDd9d+cjxn+duMUlF10KRb/00a01scMx5R/r/GHP0PrylpcJu/RzJUz8ftzp+OKm1ei9cc/yAeXGSqqnMghqPo+RuW8G7GiwAflyKf/3u6PlUUf2htuwepO16WcAp8aS0REREQUY2h7MIeC0TOVtncv35MW7mWjwRPswWxGR+0k/eYIYDkhIiIiIirYCP4zJURERERERDScMMAkIiIiIiKiTDDAJCIiIiIiokwce/dg0ogxpPdgEhERERFRwdiDSURERERERJlgDyYRERERERFlgj2YRERERERElAkGmERERERERJQJBphERERERESUCQaYRERERERElAkGmERERERERJQJBphERERERESUCQaYRERERERElAkGmERERERERJQJBphERERERESUCQaYRERERERElAkGmERERERERJQJBphERERERESUCQaYRERERERElInj+gX9+ojbu3evfkVEREREREQj3ZAGmERERERERHT04BBZIiIiIiIiygQDTCIiIiIiIsoEA0wiIiIiIiLKBANMIiIiIiIiygQDTCIiIiIiIsoEA0wiIiIiIiLKBANMIiIiIiIiygQDTCIiIiIiIsoEA0wiIiIiIiLKBANMIiIiIiIiygQDTCIiIiIiIsoEA0wiIiIiIiLKBANMIiIiIiIiygQDTCIiIiIiIsoEA0wiIiIiIiLKBANMIiIiIiIiygQDTCIiIiIiIsoEA0wiIiIiIiLKBANMIiIiIiIiygQDTCIiIiIiIsoEA0wiIiIiIiLKBANMIiIiIiIiygQDTCIiIiIiIsoEA0wiIiIiIiLKBANMIiIiIiIiysQQBpgHsemmaaiY2oQu/Ymtt22pmL8Umw7oD4iIiIiIiGjYGsIAcwzm1NWhEq1Y13ZQf2bahQcbdgLVCzBnrP6IiIiIiIiIhq2hHSI7djYWVgPtDQ+FezE7t6EFU1B/5ST9AREREREREQ1nQ34PZvmVrl7Mg9h0fytQcQmmhnovd2H1VDm0Nj8tsXtAD2zGEus7FTdtRq+eneP4XmhZQldT8Du5qWmX/oZHfc+xHm+or2vZ/jDh/LS6U88iIiIiIiIaYYb+IT+uXszOh9DQAVRfOxsl+iOls0kEYTXort+Ijh3b9dSMGXp2zv4etMvezw3ed9aK5dtU0DevEWXN/nLEtKEOaJgbChyVijq05dbpfbeypcYZkAaIIHa5HOobIgPluWiY0JxfZvN8tNS4g1wiIiIiIqLhbugDTMHvxXxc9951bZe9l3W4erL33iMCsppWVIrgclXVGP2ZNAlzAu99pTgr6t5NHfTJZS021yGC3VUiyBNRXnJP4tgylOmX0Q5iU2Mj2iumiO0L6mqqQYsMWmuNIcCTa1Uw3L6lPdzbSkRERERENMwNiwDT78VsuX8zekXwt67F1Xvp3ZM54yJXMBnUu6dHBKilGK/f23qffALtmI+FrsB08nTIDs/uPQm9iCo9QNmZ0enpbVuBho4pqK9bYAWju/C4+HHlrMrgNgrl00SA2/EEdvDJuURERERENMIMjwBTUL2YHY1Y3ugFfzMDvZe6VzOuV9Kwt3snMKEsFLz51PzIAHQ8yiqA9u69+r0m0lZl3CtZUQOs3bE92ANqyvWS3hp+Cu6BbnSL/9rlcFxzmWq5cjuJiIiIiIhGnmETYGJsJWbIwK5DBmVXoVx/HBDTK5l3EC/tBirLkr9ZkNA9mKVYJwJC9/2S/tDYOixzDt/1VJv3fwamlfzTLERERERENOIMnwATY3DWBPm/e+jq+LIpQEcPrH5Fh73o7ogfuhq/LO/3iQGq/3Aix/2Se9XQWMcwX5++fzNxGC4REREREdEIMnwCTH3vZVTvZclFlzj+nImDujcyPMTWFLusAu71dHsC6+RTY6ubo4fPYhJmyuDU9fc/iYiIiIiIRqhhEmDuwup5CUNKx87Gsvop6r7FwBNeRWC6Ohcoen8/M3KIrS9mWUvUk2od902GRDyop2Onuod0rfl0WAf/ybmL7L+b2dnEP1NCREREREQj0nH9gn59xHU1TcMi+ShWqboZHQlBmSL/Fqb1IBx5L+PVe5aiSvcc2stR69ldh7Y7HX9X07Esu+cxkE6D/SdT/O+FlyH/5qX39zuDf2LF+zy4aBGc7qiND5CJiIiIiIiGoSENMImIiIiIiOjoMYwe8kNEREREREQjGQNMIiIiIiIiygQDTCIiIiIiIsoEA0wiIiIiIiLKBANMIiIiIiIiygQDTCIiIiIiIsoEA0wiIiIiIiLKBANMIiIiIiIiygQDTCIiIiIiIsoEA0wiIiIiIiLKBANMIiIiIiIiygQDTCIiIiIiIsoEA0wiIiIiIiLKBANMIiIiIiIiygQDTCIiIiIiIsoEA0wiIiIiIiLKBANMIiIiIiIiygQDzIIdxKabpqFiahO69CdERERERHQs24XVU0WMcNNm9OpPjlXDJsDsapJBW3Ba0nZQzx1qflAppxVA3XZ07KhFuZ5LREQ0FNS5s2mXfqd1NnnnK/tzohFNNt4HeHFfHRvGMuz3RAXTQaWatmHmDhEj3DkbJXpuIez63Fm/jxDDJMA8iJd2A9XNMnCT00bUV+hZw0BX01xsnbVRp20l5ozVM4iIiIaTA5uxpKYVlfXinFU7SX9IRMrkWrTV92CRHxDU9KB+AzsMqFiyA6oGyMUvAytL5bUi/tldo4PVaVi0uw5tI7QeHyYB5l50d+iXw404Wa9rmY+FVWP0B0RERMPRLqye1wiI4HIVz1lETiVVK3UwwE4DGqDOh9CAOlw9Wb8fsDGYc6dfNsVUZE/ocDA8AswD3ejGFJSdrt9H6G1bmovq5RQcQusNY7WH1arfBMZCm13ZckoYGrG/B+0VpYC17tWder5PXjU25sev005ngWnS7Pywu9HtYceBNKv0LsWmA/q9YudhujyN7cI316PzKLA8/VkoP03+cC9/Shzbbg5ptiZXugPLt/NECi/PmV67DFj7Ma78evvKXHc47/3f+58lLy+4fvVZVN6lKg8eb9n+FPxNLk81O81K3P6056X5jr1Nar7c9uBxZW+HZOdh0jEUXJd93LrKTpBcnjs/jX2VS7/JW5cqdynyyN4u97FvlevAtrv3vVquld+R60qzL13848hRpzjLk33cBZYfPnbzy42rd+15jjJsb4fe3tz2pz2mYtNfCLnsGrRUNzuCy5htdeV3qAz6v4/LI2tbE7crnMfJ2x7en6s7HctRk05PbluC37PLtpRUH4Tyxd/GXLrttJj55WDnkZry+eilJ5iv3mfmcl15omeZQuuytyNFWRXS5ZExP7DchDITJbdMUb7Rmut9DG9nQv7L5SQdt1qo7g9sZxb72Zvy+ZvP72Aeh5dt7wPX/k7cT659sc3ed3oy8szOl8C6Q/teTo68CX0v+J1Q3tvlxM5Pf9uc6xdTbL2ScPzYy7SW1bunB5hQhr2BNLvKdfJxmqp9MJL0Dwe/XtP/iSU/6X9Nv+3v7+3fuOTi/hs39+r3Ulf/3Wu69Gvh1Z/031h5cf/dv9bvnb/p739t8y2BZb+2eU3/xlf1G6FzzcXWuoPU78V6AsuV6Q2sWy5nTX+nfu2n5RN+ekVa7w79/pZcOgpNk09+z0+X+o2VP3Hr9PLPeK/YeZguT0PrNtnrUenw88q9fJOX/8F0qvXlluFSQLrFfjTTHl6fKHfWd/yyF0q3WY4D2ykllV973cFtcKYrdnlWHoTSY0lVHhz72ipXgfnWPCn9/vTWbeaPlOr3ar3WZ459Fl6vt85UZdtVBvR67TSb5PJcvwmn384PrxwGlx2TR2b9YZcN/T5UnuRnuW0N73vJXnbiuhR3OiPJZSy5RSzHzgO9f8Tyg/vRsQ8TtkOKrXdFGmLrT/ne3G4//8xtV3kRLKuu9MSnP5lXRn8S+7vkc4y1/wNl0C4bmto+/R3HtqbZL+YyQ2UpxJEOkU6zXKll2OlU2yJ+Z5YnlV57P1jf8dNopsmRL+YyCj6XO/LNzgdv/+ptCn3fkSeObVPMMhvYDsGRDndZLTSPDK506X0TVzeo/MilTW6vXrZjeYn5b+aBovPPkQb5W3/ZgX0gZLGfw/mr89LaJjvP09W58elPzjsvLaH9In6XWC9a+z60bsncD9ZvvP1tLMPOu1Be6nwLrCMi/SHxdUqw7Hns/eG9D64r/Lt0x6m5zxSVN8H1jSTDogeza3urugIQ3w08CYvNcchjKzGjAujeE74KGaekqjYwHKJ82nygowd79Xsn+4rw5FqsrQZa7s9fySivNcddj8HUWVOA3d3e/LGzsTh0RbkUZ+l0FJUmePetlp0ZMQzKXufk6ajGTnTv1++HyuSrUF/RinXqKt0KNbRgWeRQrl14sGGnyP7gEJby2maxLa143HHVrmAVwfHtJVW3ivTtxNYnvXLV27YeLdZ3ZN4uq5+C9i3tzitZ7nKcXH7lsJ22eqBhnnW1qrMJVQ1A/QYzH5KWNwZzrp2P9oaHxLJ2YXVNq8jHAd5ncsAbLr7WXK/an/n8ypFX/dQ6zTQPdH8W8vspwftq7H2mtsX6jsyzujpUdjyBHQlX1bt+1Ij2qHphu32lOIreL/VinfqTgZN5JMpKnTGsRmz7Qke6gvkoylOzqHdathVwpTT9ugp3CWZUe/VEzoF2bMV8VFv358fWvTFi6127/lTydbatq0n2HNYV9eyAYtMf0NKIhg5Rnq80jk1D8jlG7P8d4jhqqbGuoMur7l6vaOh+Tj26Z7x+a4vfLu+2mOpp7vS6OOticcwtTjU0Lev6QPb+hHuLizuXOxjnkfIrRRpa1kONOGiUw59vza0ju/NTCkNSZ7rrfEVs5ypRZ3nnOE+h+R993Ma3rzLbzy5WHgXPb2nr3Pj0u/aFvU1Odr2Ysl1ZWRasJeLK4t7unSIPphtlLEim3TwGVBkUbZ3Czl2e+DolfXtD3u9u1kN+O7LhR94+KeQ4zRuM9sGRNQwCzF14vCXticbs0p8rTqj6Y0N7w9xc97OcqkQBsQWGDogdWAxXhWJ264fXa3SPb58O+0bgwtMkT9AJw4oDwwjk0BKbOADm+fPlVHyeQjRMzO/Y3fx53gkJYpkqaDIrSpsaOj0fM0MNiEmYKSrUQi8uOIUquTE4a4LY5m5vz8rKrnJWZSiNJRddIk6qwf2vvmtVpEHJ5dcLMuUDCFaIxrSwZYV+CIHjBJu0PHXylsOJvIZQckMsoTzIBqWoWHMPR4ha7+716iEj8qFdgXUOdH8W9PtwMFByZmn+mFWN40sw1c5TFagnnTD1Q8kcdZaqF1IGB17jRuyXi/QHAXY+u45fB5VH9n6chkWhHzvqjtNLxYmsBy8ZDcXYYz/1ulyShwtNFXlpnnxlw6Ls2qtQpt+b4uveaPH1bnydndPZJLZZXnhxNQPS1bHFpj9HlKO11XJd0UOpks8xXpBZJvb5kvtFA1CUhXU3ifROcASXQpqAJXq7vGO2kAsRUXVxOlnWBzJfvGPXmS8Fn8uDZaSqe0FwuaohKi88in1hXZDN9vyUUFaHos6MrPM1R52VOv9jj9vk9lXh+zmd8D4ajzL/4nHqOjcu/dH7IpXEdmXw3LWuLHw/eFxZVOUhMlj00m6fl4rN/9g6paD2hi14Qa2Q49QX3z4YGYY+wOzcJgpoTAWieQez+aQm95Nm1ZPzcjdvbxeNdbGTc7wGedWWS9Dmf0detU+S1GDUB9wiiBOOc72SCKz8G3enbRPb4o/RLjJNMt9clb2mTuzznsCMDXqZ8uq0npcnr0b68+VUTJ5q8mTrf2eDF0C67gtQxpY5G4kjm7xQMgUzLnJfMUxbfmUFumOLaIjJeeLk3j6hVF0htHsI0y5vfJljX0VKUR7kVbjc/Pxkn0CkTC4AHK1yjZuok7yYF8hj1/Ebxf6tniLXFS352C92XUZ9qKfQBRDZO45GPKiv3D8u8it0nkhV97qkqXej6myTWI5o3ESPDkg4popOf1h57XZ9QckOMgs4x6jzcV7ZBJEWZ2PPq6ciG6kptst+WmJRgfVQCrULijyXW2WkrWy9yI/gPlTB8IDEn5886doDw1ch+Z9w3KrgImrEQrH7OSsp6tyE9mGx0rUrg+lb2C2CwcB9i/G9q/LCeOApv/Ma0a5n+fJ/ccKcourgwed3SGQmsX0wMgxxgHkQm+5vFaUlujvc453M7G7ogulgdm0BT2XyrjCEh3+oq7d6eFDvk0+g3e7+jmMOKywiTX6+RV/N1b3CrmElR4IerhlFXpnpFvtSDQdtjLn5WgWirqGT3vZFVlADovNON5xkgOYawuDt8/zwMG8IRFSFnr78yj+JI69St915q8rDyrKrsDgUsKdcnmjkLW8oFZW9OAm01EQH/GnJq8UphkJhwgKs0mkO9GQPdH8O8PdqKL5f10RtixyGmTQyQPdyu3pf0g33b89myLJLZB4l88p0AY2SAawrHe8qsMpnWU86zhMF172+QuvdiKHgO/yrzEWel4pOfwQVtFWIINNs0KXdVhkUqnK5HauulQFNKWbWrvSCVvshGfLJiR3RF4bTbZc3TNa/iJEUWEfVxcUqvj4oxcI7RT6jEVXF5HMC1eYI9MrJYEiOYvHWudyoU7M5P6U0FHVmUh2jRtXoQLCA/E86bu38C8hoP6em81ddHEhV5ya1D6P3Rbzi2pWh0X4pyovs8ctdzBZtiXwfc7Fpd4utU1K2N6J6XNU26HKd9jj1DGL74Agb2gBTF7So+0bygsMWJXX/nmOoUazQcArvKlYsNb59ZzAQ6pT3xO1E9bVeBRMYaiOphr1xNVZ8P9C4V9utC2gxadIn9+g/nWIMqdBUd7t+PehiKhDZ8yavzMi0l1QtQHVH8IQZNAlXi0ZHS02w50Bti6h8MnkstHXPkZdP+YaTn8Yq8wlsev/6+1/uMzVWP/felq78yquD6qqVfeISZVDea9JS4w8jTLM8UY7Unyu4SlRSfj4O8ElkeiiUfVGgq8mxXJnmUJA50P1ZyO/tRra8Ipi/cJA7rgNDCsWJuVHem7Ig8QTq3Rdl3a+m1pFcn7U3NA4oKImnhx5a+7q3rcnqfbO2XZfp6EaJS9p1FU81tlvWqyGbrnxNrHujJNW7cXW2T9QLDQO8ypyYfvFe9gSmvzgke12bvTrLL/9pzjFyPfrPm9jlUgWtgWBKN2BV3eKWZr/4x230PfhBzrrY3k+Rsq4PZD5b+VLMudzFDJpkGtRwXJkGsU51X/2K3PGVzfkppSGpM911viLLrMjfXDlMm/+Jx21CfmW1nyPI4Z/5Mq3zN3dxIEWdm9g+dO+L5Hq7uHal2Rkjefd/xpQXv0xE3D7lBXTWBXNRFlab5Sql+DolZXtDP1dkkbEMr52bL9fpjlPP4LYPjqwT9f9HntiJ/rjp9nnT0KBeWTrmoqJBVASy61veWDu1BhW6NFfWN3tXlL236YgKcln9E6jKrU8sWzXc1ZtIauiRaPxXTRUnYEUUnA3b8weIutdNBAdTdSUjCt9aUTDbt3hvJRkcmAdi/v60AtNk5FtufTkif+QfZRUBirzPces8mX/enOpmrxdr0Ihl+/tGklelVf6YFZZIuwrMm1fqhon3YJGKGlGhnukYIieoexKx1MgfQQ7HvbP4Rl2AWJYawjFVv5f5Hxhq4d2XBKPsBfe/OLmIeWqWtY+lRVP1/ZOx5ddfhr1ugyhjHSIZFXIdcvtjl6cbJaIctumTjLrpfMtc0cgqVeWjuIaG16jCTXONY8Hb16v06wAZZDb3qP1bscUrlwPdn+l/L/Ly2h6Rzmn6vfxasIyp4xrGcSuo3pQ0DV65bRsgGuX5Y8wrO37ZjiO+l1GPlYtru1QeVenXiijDzaVYJ/LHH36k9mPKxr4v3boGQDVqG9Ufm17mapCkqHudUpwLouvsvAFfZS42/bFEnbWhDt0iYKwS9Y+sU+K2VTaGZL0cvf/N4/7fUXXBU2h7Rnyszs/eN3zyXN6t8ilhu1QjUuZfIXWRqy6Wx5x+GUt8L/P6wAvmu0V6qqY+oer5YtoX/r2P+ayU5xevHlEjWkSwsNav3/x8FUHeWepckdH5Sb9PMhR1pqzzO84U7R4jj1r0+gP7MMUx7Ys8bv32lazDHO0RpYD1FEOey8vun4YK/4KxPI8b5+zYOjdl+7DEtS9Ue0G/dhLlPVW7UgRbgXXLfSzTb7Zzos5/OlgX2xMZgJptIf2Rv47Cxdcp6dob+fqx+HakSfx2ENsHR5R+muyRZz6mOIp6jO/IfDzvoInLtzR5SjnOx2cXTD5+OvgY67y4eTRo1KO9WW9ECj3mnSituMf/p/3TAEfYMV0fHG3nJ5nmo3VfesdP4M9UFIrtQxpGhsWfKSEiIiIiIqKRjwHmSCOHB0QNcYybR4NEDn2Iuuk9bh4R0Ugjh4OFhwp74ubR0OD56ZjC9iENI0MXYKYp7HKceNQ9aURERERERDSsHCfHyerXREREREREREXjEFkiIiIiIiLKBANMIiIiIiIiygQDTCIiIiIiIsoE78E8xrz3Xj/eeedd8f97+hMiOhKOP/54nHjiCeL/4/QnwwfrhcE1nPc9EdFgOxrOMazHC8MA8xgiD/C+vrf1OyIaCqNGvW9YnaBYLxw5w23fExENtqPtHMN6PB0OkT2GyKtHRDS0httxyHrhyGFeE9Gx5mir91iPp8MA8xjC4W9EQ2+4HYesF44c5jURHWuOtnqP9Xg6DDCJiIiIaAQ4iE03TUPF1CZ06U+OPsfCNtLRjgEmERER0QjU1SQCkZs2o1e/Pzr5AZecVgB129Gxoxbleu7RYYRs44HNWCLSuLpTvyeKwIf8HEPefLNPvyKiofT+94/Sr4Ye64UjazjtexrhOptQUQOsPeqCrSAZRK8r24hVVWP0J0efEbWNBZa7o/Ecw3o8GQPMY0jcQf5K0xy83KbfGEYv34Ty8/UbIsrESAkwWS9kjw0TysqxEHipHrN5PVh4NAfRI24bZW/rXGydla7sMcA8Ng1pgNnbthRVDTv1O2l+8IqIOuga0a7foqIObXfORol64xXwhg71Jsj4nqsClp8tarHWhV1YPbUGLfodMAX1G1ZiztjCDiRFXd1p1W98xvpclYneVtTb64lKl34bm0dBSQ3JfWeuxUVzTtOfvIrnlyzCW59nQ5Ioa4knJ/u4Fqqbt2PxZP0mND+hPmO9MGwcqYZJqnOfPldVhs47/neD5S58zrbKpcVfRlja869+q8r7E5iR+8z/vljOhlKsC8zTzF4W5znZE7d9uXyJ+r15XNnHZHUzOmon6TeeUH4EvmPngRBz3HrfX48ye7tdedlQiob6mPTn8mo6Hjd+Gy4X4XaXvf/VNiK/XX6e5pdlp88uCxaZtvtLsXbWE1hk7BtXuQvmr1mGwnnrKvM5jvrXl/9dvm24DCuMcuPaHsc+MfdbJtvoC+8je1tDx7FVVp3HrfUdtYwtl8SUzzwGmMemIb0Hc2+3OKB2yHHmctqI+opWLGrapeeKQv4jGYQZ89GIKmO+JA8cb743tdVP0XMiiAM5dODIykQc/N3GstrqS/XMYslKJp+utdXBbQsSFUKjuzLDgW50+8vaUIdK/bEvTR5l5fVNS9H+mTm5qetZPUN69nvis+/hFf3W/673nU502d+3PrOX7U355UnB7yzF86/qGWrd5u/8yfy9bBgb85rCNxDIxrT5+yc3+SuQaTXWVyD3tolpSRtej/hOOG+N38nJTr/1HfP3ctlyW8ztC+6LeCptRlq95Zj54e3L3PqN7/qi89bbL/n0eMvKzX+1DU9a5UAuK/97Kbj+4DyPO3+tMmFMuWWkyPvYfTcgsvGQr0MCDY39PWiXjUM5r3m+/tDnNWYgGie5+meCqBcG6T6t5LLLemFYcJ37pApxztzSbpWNXXjc/q74fVUDjDLZjGo9K5ZsmOpyqCa7vDrOvx3NIiCaF3Wfl2xAi8a6Wq5oyI+txIyKndj65EE939O1XQRU1dONhn7wnBxO/y482L0gP1+cb9Ew10vD5Fr9uWyneA1/9T4QXMogV38uv7e7BhWOc7HfZlkbWLm5Td4yktsy29BScQmmmsFFVFvmrxLSr4g2ytRtmKl/52//kjY/X2W9IgKXCcb+FN/prplmfMdilBk/wOlt2yaCYv17Mam2UUzd1LunB+hoxDrcml+vKEMtYr1m+cgFtrnvyDK0FJsOiJmiHSUv3pu/b29Y4c2LFKx//byztYs8Wm6kTW2P+XCeFOU7k220ePs4nGa5jKoGq+0ty6q9DwLHrThWWmoCaSk5U5Srjh7s1e+Lk+IcLCSfY4K/jT9HB+tsOU+uq9j2EUUb0gCzvDZ81aqybLx+Zc8fg6mzRIW7u3sAjSRRQda0oro+GKh1/UgEd+JgMq/wlFTVWleFBs7cNlNv2wo0oA71rrO1akiWwv3LwcijCOIg/s09Z+OjP92ESjktr8KhZe7GlTxgf3MP8OF1fi/HZPxlFXCo3Tjon92JQ6jCX5q9IFXf8ZYtp3Vfxvv0x4oINF7GTbn5510PvNaoA5nzv6w/X4sPnwu87/q1+v2XcYb6sWwkLsJrZ/vLF9978TYrEHkVb7zoDf2T3/moSG9WTp2zUq/3Oxgt3vvrqFxVhVPlF9Lk7blfxnn+fJk3bQ8Y80VDt32KXof/+2Aj/O17FqmeqKj5aclK+OW2KpHWlZioOrXkCeI2vJnLc5G3ENsTqODT5+3rmx4Q5aIQ9vq/g/eLbTVPEF55NPJXTF65PA0TV+nPRJ6IApj7Tr7HTojL+wKOiyypBsmEMueV49629aqhagak5VeKOq/jCeyIbVAVgfXCCOE+9ykTLsEMNOJB85CVwUv1/EAApsqcHdBkwHX+lQHdWrHylu12gKZ7Z8T5si3XmzIGc64VAUMgSJYBsggQrsz3uCSbhMVGDw1U4Ap074kIngxyG1B/q9Fm8NKElm3GU0AP4qXdQNmZxnbm7EV3h2jTT0ufXlcdMLC2jAyojPbE2NlYJoJcP19VvSIvagXyKPidANkrJ8tcc7CHzU5P+TSRT0mBSlT5uF8HRSKIWyd75s20Tb5KBFf6woNI52Lz90opzsqiLFtpK6+VFy5a8bg+nlKX74FuY44sS1NQdrp+a1LLsPazLKt1ac4P1jJPLxV1SQ9eGtA5JcU5eKDto7hzhJZV+4iChv4psrISMp6aFTjABHm1xZsvr7oYXfpF6GryrhAuvkh/oHiVflLFLq9S+emQk3klx01excp/P/I+CXHAL5dX+Opm4yz9kSmuIenLMo/cRCP+h22igfa3uYaZbLx9tOo5vP4fVktSVQayEekHIJ4zrpAH/c7cQftKu7W8JKdVodxo9J/6iel433OvpAxGOvFfMiiq9VvcolL7fBXe3vpUqKftyCsgbyNNFic1I5o4f4oIZF/EG+bPRSM9V2G75qdwSAQIXnCZb6Dj2R/jteeqMC63b0Te1gX3dWriRPC8OJGMDjXiY9L6qtyHX8bE3Pon46PXn2sELZ14+Z7nRIBgpDkzWey74uzt3hl5wUrOQ0tNrk5QU8Rwr4FhvZAFOdQssK8KnCJ7jwzuc5+vTF2YzDd2RRB3f48Izqbr956Siy4ZhIsU0edfFXhYF0u3Nurg0h6WN3k6qs20uXr3UpG9dH7eBocZRvO2wW4jhIfUxjT8RXA70xlQFyJdWyZaOOAye6lUnTOrMtQW8cqFFSDuXo8lKrgMD/GUAmU+lE/pBAJTeSHeanOF95+8OKHnbZ+OrJ7QGq6Hx6Msd2GisPJtK3wbBTXqLSJ4Vh0WjuNCjwLo3q/fS4FziGMo9tgyUXMMtgzOsWnOEQNuH5n1RjHT0fnnaIY+wMwNPbkVaBQZ7Q8pUcMKgsMBEoeMxFHDg6yrPwUIDMVVQxfcwxLygsNxFnaLk09oGIio8BrtK5+mg9ixZWf0CSPrPErw/jONlqFTG15e1iYO1msCjUjltAtx6rlt+C/Vs+Q17PJBSRqiojGHUiz8Ht7WcxK9ugdvyrT5v5WTTGfAq3jruXNxUlRXMZ7DawuN31vD9AYqMW+fEw10f91i29+/PNhQDw7juy1FA/s5vBV7ydgi1i8DNWfj/9wzVM9stKS8lcT+bfweIJb/l/oTRZwcLlp+diDvXzZ33d5X8LaZN2L6jUhnjtr3SetOkJD3ycdF1rzemRkXOS5YafatA95k36uTDdYLxu+LqBdKqlY69lX6yXnh0pTi3FdStQDVLev1cMJ2bIWrETobq/TQPq9RZN5TdiTIi6fi/Obs7ZIBWr4nRw6Prb42+d4wkxf0mEPL3UMio+SGnQYmI4iJa/gL5bV6qKJudA7OxeIjK9z76zXE1b17fh7ZQ6Zd0ozK8m8ZsKb88TEGc+7Un0/bJvI4qQ13hGWyjULCqLfUqs0hsgvQLY77NBezBsPA2kfFnCMKbB+J+mexsT8Kn7K52DHcDKO/gxkcUtL75BPePUZFBoRB7d7woGbXThyDsyYUeOVQXi3VL9NyDQN5SQ+NXRbVQOh8CA0d8zHTcQVQyjaPkr25x7yk4w0dC5K9W9/B6DZ7mJl0Gk6boXuW5DC4qinpeykENZQN1jAIPS+d/NCL3OQPUZVUY/NsfCCyHjtXDe3zf/vRKtEwddyvVazEvDWHgPx0LU76Yf4eBTn00OtZ9Od7Q3HjFRh0yfWLPIc1/FSxrwbKoE+/VBLzVmj/sdq/+Z5Iw/n+UEdvCg1TDOSNnvxeqdPOxPu9V8WLyXsp+bjIljdULbp3ZnxZxJC1QcJ6If/brOuFgYs795nyAZo8r8DRUyWpETW5i6cp78GMFX3+VfdQBkbvTMGMupXhe9w0OQzcu5dUXoCJPm+6eRdz5YUZV49bvHRtCO98Hdfw94bJ+heHCr9YXERbJoF5H2tUveLcrgkLsCp0D6cge5Zl+UnxYBhfVM+5N2Rbr1cO1yykd905tDQj8gJNh38BMF35znIbw8eNIWoZOs3u3nXJ62Fv7zZasOqCyZExkPZRceeIAV6UJmUIA8yD2NQU7NFTB4Y+mEI3EKuhpMVd0WtvaAzdk2RS9ye11AQqwt62puirW6qSLGz8fqCiUFrRoIfGuitaOUxJPt3vqsiGQZZ5FM9rBL59z4/zV+dDQyN9k1EeEYicOuca0ch8AE/+8EV8+IqCz+LA2Wfqhp/X25W6p0L3ksQ1/F55WCyvwMZtNgrJ2xhGL+IrTfE9mGr+udNxWgGLV1RvonX/gxpO0oZ9ucBB7BtrSEuavD3UJspEndGwT0uu/7nv4flQ4OKT9/k9F7rnIhsD2XfySn4xV9B34UFxjMf1zniNlUYsD1xtFuvL/OFfrBeGu6Rzn0leBG3fskKcQ0qxMPJ2DlH2EoPVwrjOv16vq/seyvLa7e4gUw7zg2g8t8n7R82H+6ThBQJmA1o9GyHVEFkv7+SQwsCtMyK/Vue2Kfm4VcOYK2IuOFvU+d/q9Sq4LRMg8tQcZaX2QX54p+rlFvVK4CGCfplwbZfs8baDzNB9e6JeShoiK5azsHonGhqDaZM9vLn16iGege8IXU26jIjvB/eNDKii7octjBwanV+2NyrNHIaaqnxnsY2S2B/qHsuoe4/99cwzjx2d5uoFMSNcvKG+geHAashuvh2sRgAM6TkmRgHniKLbRxQytD2Yu0VlpYeDyGnRbuPeCnWDszHevBFYWPTwz4ShsUZFmBuesqU00EMQuL8i1RXh4Fh59dQu66pdZczQWP8x04H1qvuoZOWg7wHNNI/iyQfVnHf9i/nhZMtEY1A0GJ0Nr1wgIr4XaLx5jf23UfjB692rdZse5rAIb80opKdC3kjuPcAjN0xCTPkrXHLY5bkJjdvgULiXX/wyzjPvexyAVHkbGAbqPZjEv2dANdCN+fvO/HK4BzOXdzrtZi9NIc4Xv5U3yYu88PJPBA76wTqutKXLW8E1fDIVe/3eZAYxZ9RuwkfPDg6jDfXCxonN+wKOC1NR94jJoNQbliifLpirF1QDTdYDOmB11GfqHpqCHniSDuuFwasXspFw7jPJXh1xfml3Bmd+w7kOV2e9ea7yqv5kRvSQbjWcVD51Xnw337iXD7kTi2mQ948WXtbVw1lEIOCnYTkWpB8iK2/10U/9zG3DvB7MlMGiCBTUcOK4QF8FHCKYiwlAQ1y9USnaMtFEWbm2J98mU+0c8x5KOQwwmEcV+sm5kdsl06Oe2CrSI4NX8X5ZvUhebpj1NsxMMURWXVSQT8LOpU3s48B65fBXUSbkU/T974hpXVn+An1w3zSiLOL+0EJV1jej7H5/2Y57hFOW74FuowrwxHZF33LlyV+g8Zfh/akV+0/qyAsm/jrUdk0IPoQo2GmScDvXAAy0fZTqHJFV+4gChvTvYFIUL8DsvtZVAcbNizcc/haRbLQF/64eDTb19M491+SHjdKQ+/O/36YebZ94/1yADDBdf/dOipsXj/XCkcW/nzZ4ZCM77d/mG/m8tkBBf6M7igyCVdBzdN4LNjgyzP8Rx952ef6Rf+LGXX6G89/BLLZ9xHo82TC6B5OOes9+T90rWNDQBqKj0N5uxD6k55jCeoEyoe+jjLh/9OjjPbeiveGh0P2oRINKPx8kN5Re3o9Z8LB0OtoxwByWvKeduXso4+YNU6IBGTm0gegYVF5bzBNd5RC1qN/FzRumWC9QluxG77HAv00m9IR6okFyYLP+EzRGb6UcBnyEHjZJIweHyB5DhvMwBaJjyXAaXsN64cji0Kqs+fcmyz8gP8IusgwXHCJbhGN5iGxhjsZzDOvxZAwwjyF9fe/gvffe0++IaCgcf/zxGDXqRP1u6LFeOHKG274nIhpsR9s5hvV4Ohwieww58cQT9CsiGirD7ThkvXDkMK+J6FhztNV7rMfTYQ/mMea99/rxzjvvsseC6AiTVz3lien444/TnwwfrBcG13De90REg+1oOMewHi8MA0wiIiIiIiLKBANMIqIE7OEbXLwyTEREdPRggElEFEMGl319b+t3NJhGjXofg0wiIqIRjg/5ISKKIXsu6chgXhMREY18DDCJiGJwWOyRw7wmIiIa+RhgEh1R8o8zT0PF1CZ06U+OPsfCNhLR0aC3bamoq6Zhdaf+gIiIBowBJg0p7+R+tAcifsAlpxVA3XZ07KhFuZ57dBgh23hgM5awMUl0TPODSjktx62irtqOxZP1TCIiGjA+5IeGjmzsz3sCMzasxJyx+rOjUFfTNKwr24hVVWP0J0efEbWNnU2oqAHWpgyA33yzT7+iI+H97x+lXxENAnn831+Ktjtno0R/RERE2WIPJg2Z3iefQHv1gqM6uJRB9LqW+Vh4FAeXI24bJ1+F+opWrGs7qD8gomPDQWy6vxXV1zK4JCIaTEMbYKrhakux6YB+r3hD7ZaYjT89rM0f0lJx02b06lnALqw254nJ/K3sWTHnqalpl57rMYfLyCmwbld6BPWbXDq87wSH3ekhg4G0Cva2WGnJ0783v6un/HrC33GmwZgvJ3tb7DwKLCO3j6xl2emO3UcuB7Fjy05UT5uk3/vs/SnWva3JeG9M/jrkFWk1zDb4W3s7k/NL54WxbX7ZyC/LTl/C8N79PWivKAWsMmavVwruB/O4iC/jIfa+MKb877y8kO+D5d+1PY59Yh6zmWyjL7yP7G21j1e7LCYf82MwddYUtG9pTyijdDRLPtaTy5onrsx685z1snX+cJZzqx610xM+xlzHarj+yM8TP1H1pz0vXA+kywtDlvWQTKN9TtHpduZtbjn2/L3o7piCMiSch1OfU6y8tfZp7nNjyqcn6rdSujJhl2Ell3bNfh8QXI9Xdwa/qz6z8z4gbju0UFkw1qHmWenT33eVE5MrP+zvhLbJmR/eNoSPJ0+o7PuTmfe6POYmOx/s+Wpyb3dufmAZ+TyIPVYEb5vzU9R2EQ0qOUR2yLz6k/4bK2/p3/iqfq/09m9ccnH/jZt79fv+/s41a/o79Wt//ifWdHlvxTLuNr7b/+s1/Z8wltm5xviu0tV/d+XF/Xf/Wr+V7835Kk3m/HB6pNc239L/iSU/6X9NvfO+k/+Nni+Wk/+OENpea1uiyG0yl6N42xH4rU57Pq2OtNtpSMg/f5mBzxzrjt1HLmq55m+EUPplPq4J5ZeZz4pKs0yjsbzQstLkl1Ve7LwQgunR3w/tmzy/HAT2gU6vuR2hcmquW6Qzdh/Z1HbZ8+2yoPeRa/tj81Gw0p/JNuaY+9hOsyN9/nYY+yC0ntAxL6h1W+UvwuHDb0VP7av7/33m6v4X9Pv9/+ur4v1l/f9ve/47/mf+ZM5TU/cj/U8Y80PLu+PJ3HdfuEPMr3mkf7/x/on/9XJuvres/O/lFFx/cJ6a1Db4843lWZ/nJ38ZL/f/usae99X+X3cby7a3zdiWqOlICZQTR1lMU9Y8cWXWnOcJnxvs33iC55jwe//YzC3bcaza9ZVaRuDYEBzHgn0Mpc8LQ5b1kExjYF26Pje3P00dr987l2X+TuWJlYZQ/obrFZVuO09CaZeSfpuuTNj7SbH3p2P/5rn3R+597G+lIvLAXqbKV3MdrjKRPj8C31HrkstKyo/wdrjJ74XPvSodSfWHY732/otvR7nyxbEekZ8FtReIBsmIGCJbXmveK+X1PmB3t3dlZ+xsLA4NzSvFWbHDLqeg7HT9EpOwuNboRRtbiRkVQPee4FWwghzYjOUNQH39fP2Bp+tHjeLDW40hoWMw51rxnZZtoStQSXrb1qOlog5tgbTPxrL6ND0zRv7Y+Td5OqqxE9379Xututm8T1LkWXMw3bH7yEX3eo3XbyWZP+3VzYH7+EqqalMOoZ2C+g1GGqy8KDi/5NXGmlZru8PpKZ8m8qGjB3v1eydrmzC5FmurRfbdr69OivIih5iuNdOmhnHuxNYnRTksqoynZKWtvLZZ7P9WPK6veLr2SS79242rtwPdxhzdw5A7Pg1qGdZ+lsdQXR0qO57AjlBvqMla5umlqEQPXor9TWFe37QUv7kH+PC6TSg/X3/47PfEZ2fjoz/dhEo5La/CoWVL8fyrer609xW8fe6XcZ6cv+7LeJ/+OOTVNuxr06/TstZ/3vUv4uUlbXhdz5bz25e9qNKs0iemi+ac5s07/8v6s7X48LnA+65fq99/GWd431BGL8//9qNVz+G1h/3L5Z3oWvg9vD83/zsY3XYbntxkbvww4DrWCyprMWXWFnFuSLYLD8rf1RlDO0W9sNA4DgdWf4ZVlunaeUDHXUoJ9ZCtq6kGLdV1ov7QHwjp63hRDwXuv/TPZ+utERUpziki3ebDgcqvTJcnA/nt4PLaJO0ND4lz+y6sVseFud+D0m5H754eYEJZqmHJvW0r0ACxb0XZHhid/nqRHv3J4JDH5s5g/SEklWFf7jgTUrWjko4Vu70Q0aYjGmzDIMDciYZ5Znf+XDR06FkGs8u/ShzMQcZwlO3Tw0+vbKnJ/bZi6nqUhR4qYw7xcK+/vWGusQxXGnwiLY06kDxTf6QcxEu7w8uRDZti7O3eicpZlaEKu+SiS0TlHgx4Auuc14OFdv6IBkR+WIY4ceuP8xyNJ0cDPX4fJfHyJzxkNq1wwFVyZmku+Cskv7B7PZaoE6v7yYKB4SlF7r9AYCqDbXGCWOQvU012OUwo40UyT26e8SjLXWCJ3icq/XEXEITCt1E40I3uqOBZXZS4BFPteeqikHUCTTrmx5ahTL/MhArkZHC5EhN1fCYiQjz/wzYRmP1tPiATQZsMwl7/j0KDLLGsRhGsVVXp93lv74le1ivtbSIAzAeEp865BqOf24ZX1U/89N1kpDk7r296AIdE4PxRP9jGZJSLAPvtrU/lA9wUIoenpZzsIXMBUcd6IWUtrswGRJ0bUlDrsM+V07AoV1kPtP4MHpuBB3YVkhdFiq+HLJ1NYrvlxapg2FBQHW9zNsKTzynBekZM80SQ7301Vtrfpmp32MtxnpOsujduyKu6OCi/L4P4YPBoS7sdat+E9rGDfwGmbjbO0h+Z0rfD/IsQIv0X6Q8Gizo252NmKJ8mYaYIkoNlOOY405LaUamOlcQ2HdHgGwYBprxKKP+kgT9tDFyV9A+URWjOfaetfoqe6RuDOXfq30/bJg4o694uUcnkl78A3eIk7Tc6vMZLDSAaGN58a/1aZf1GYxmuNHj8q2/LrErDJxsy5nK8KZtgIUog7RtKsU7kpz8mX1Vm6kmuflrk1bACpdpHI0+4ceNdiKjacgna/PyUV76TJARiirzy7i/TmPInn4QyPtQy2UZBNWaDPdtFiTnms9eGl5e1AVXXOAO1958ZH729vudF4Owzcap+7/L6pjvxGkSwZl2KP6N2LT784m1o/8wcb1r4Pbyt58kA8g2x6EPL9Dw13YZDeq6c/9ZzyelLYi7/5Re/jPNqjZZWwnalUVK10tiXhU92A87FGciklbLMRp8bXPcEe/eoB4mgyrF9HWaPXdGCy17YLRrycUHIkEnuVUuW3cgFu13gTfYFbLc0v03V7gjUdWJynpPM/SvaOGhEVcw9tOPL0p+/k7djFx5vmYIZFyUdh8YFmIj8S5UfUu4iRBbHRpZijrOM2lGZtOmIMjDsh8iqJ43aw17iOIfdmbyrSu3d8hqkdxKXlVbcVbrU9uSvvoWHgozBWRMQHFY4APIE4Bra6eVXTGMnMARYVvzy/JTuhGjy1uNd1S54Hzllmz9S1/ZWsXHTVUOkoPyasACrNtQBDXODQUnnNrTIE0QBj7f3rp6Hhz2pIUP+emVvcCFDoxLL+AAcaMfWDr8xEL1PVN7qIU9ZbqO53JCoZeg0Rw9RNI95TV11zkoVPhoz/PPNQA+jF/SZDu15Du+LDfJ24mXZO1pX5QjWTsPEVfkhqq4htuYQVm/ye1lPw0nnqq8MSGD5n38Fv/nM9/CKnocX9wR6K1UwPZxEHesFlLXYMuuLPTfIIPpWr9EvGpher8MKdE8wGpeqxz1uuF229Wdg9EHRx90ABOqhvB1+r5TjfJ2qjte9rqG6U9UHyduS5pySxkB+O3B66GUU1YtYKgIhEZi01MQ+ICbNdnhDlx094JaXEi7Op9eewUWIAkQem177quzM6O0xj7Oi21GBY6X4Nh1R1oZ9gGkOSVFU5Wdc2e1sClaA6mCLO6i9oUTeMAPvpGw2PNVVZscQ2TRaGuKvvqnKxK6wxfasLqJnpaRqAao7rKuQOm/iH8Eu7xfy8yc8tEINK9Gv8+TQLONJZXo9/nCkxH3kohotxm8Ede+GyB+zodfb1pSyp64Vi8wr7uoKpqho9ZCxgvNr7Oxww1OmOXD127uaHkvdJyXyrzGYNjn0Jbde3egJfEfoatJ5XnAZT08OOcov27uCbA6Hc+0TL2+noP5KfSLMYhslsT/UvV7+cm3+esyy6Kc59s/dmMe8JnudjCFwaiRDzBX9ZJNRLoI73LMIXc/qj0QAd9qMc/H2PT/OB1zP/hivPVeFcf59juq+ynNx6idiAsy2NrxZ1DBWb/2HlhkBX0DS/IE59RPT8b7nvoeXc/nRKQLl5zD6865AeQi5jvW0ZS2pzGpJ5wZ5LsqNUFDTSlwdGMPtXSRpqTHTE6wfB1Z/BgUuDhV93KWXVA8pov5uiOmVSlfH+/cYrjDyRdTjclhnaFsSzinqwlojlpt1o1xWinpkIL8dOH1h3awPc7y8QP1VIjibhKvrp4TKnCl5O/T9ibFtEqkVDTEXYArRLo61pKG92fLzKTiqSLWlRMB4dUw6zOMsbTsq/lhJbtN5o/ai9ylRVob/Q35y9wPoK7ui7ltoDRtoqfGv+opJVI5l9v004qSbmy/v+5qQv0la3SBtzF+OBc4hsqmIyiT26pvYFjl8JZjeHsws6ordJCzWVxjzy/KGRdgVa/C+hRp053psxcm2zmtY+fMfn+YaTiEaUM3e0FpvPfIEZNw7kGIfhbiu+hkNPT89VVtKE698ekTD49qefA9A6L6q9PmVI9Mj9pfKP9nQEO+X1Yvk5e6D2oaZKYbIltdux9oJRu9ETY8aFp5fr2xc6mFL/nfEtK5MnuQ9iWW8SJX1zSi731+2ODZQF/wD5I59UlEDrLWGcg10G9VJT5WruEa4Xo9Z1kSat87aGB4mGHPMS4EGNKL+ZE6BTqvCReohPnPQ3uQV7FPnrPQerOMPUVUP1NH3RIrg8kk5pDViaG2eEZAWKLR+ORkP+XHNL/QhPIEhuOb2yfwQr9/Mzb9NBMpr8w9AGk7sY118lFTW0pZZJenckEI4PaJ+7J6eX/eA6k9rubIHy6gHUh93RUqsh7T4XqmUdbw6D5ca9bh3TgxvS8I5xVU3yvu9Ey42KAP5bVGC+87dUyiClZu8oMifp3rWK8RvzUDbFLsdItDU9/8Fzl/qoqxMTzAgq0xzHKUSfREiL1je/fsUZToDF1NTksP42wJtAz3UNVSGg+sNHGcp21Hxx0raNh3R4DtOPkpWvyYKO7AZS9RJOvshF/JeAVUJD7SR0imfAimDniM0JOaoIBsTXiMxzT1qRxd722VDaBtmRpSfN9/s06/oSHj/+0fpV3T0G6b1EM8pGZD1qgg2nW2HuHlDR7ZJXA/eGR6O5XM2jUTDvweTjlrekC770fBEg6zzITR0zMdC/yQt77/S91URERER0cAwwKShM9Yfcsr7AegIkT3y9gMg5DCvjIb6ERGRJIcsR/VQxs0bOnIoOHsHibLBAJOGlPcnCDgMiY4QGUzuyOb+VSIiIiIK4z2YREQx+vrewXvvvaff0WA6/vjjMWrUifodERERjUTswSQiinHiiSfoVzTYmNdEREQjH3swiYgSvPdeP9555132ZA4S2XMpg8vjjz9Of0JEREQjFQNMIiIiIiIiygSHyBIREREREVEmGGASERERERFRJhhgEhERERERUSYYYBIREREREVEmGGASERERERFRJhhgEhERERERUSYYYBIREREREVEmGGASERERERFRJhhgEhERERERUSYYYBIREREREVEmGGASERERERFRJhhgEhERERERUSYYYBIREREREVEmGGASERERERFRJhhgEhERERERUSYYYBIREREREVEmGGASERERERFRJhhgEhERERERUSYYYBIREREREVEmGGASERERERFRJhhgEhERERERUSYYYBIRERERJelsQsXUaVjSdlB/QEQuwybA7G1bqg5acxp+B/BBbLrJTJf9nog8PFaIaBAd2IwlU5di04GI90RZ0UGlmrZPR8eO7VhVNUbPJCKX4/oF/XqI7MLqqTVoqW5GR+0k/ZkgTxY/KsMq87NhQadXv4OdbiLSeKwQ0SCSDf+aVv1GVjHbsXiyfkOUBdkWndeDhTtqUa4/IqJkQxxgyl6Nudg6ayOvBhERERHRsNHVNA3rythGJSrU0A6R7XwIDR3zsTDVgesNsTOH0K7u1LMkNTwmZr4ie1TM71jDaexl3LQZvXqWv/7gMnWa1PfC6fMn8zeyssrPSzOcJ2q7o9dnpluuzx6W6KWhCV36vSc+b0JDmJt26TketUzjM//7kUMiHfvLmR/m0BQ5mfvEXoaxftc2qs8C+9TgTI832dswkLyw53m8femtJ91+De8vf1szKoeh/LC/Y60/kDYvDdHHSlpR2xgvaf+48iiwj11lIbSMvLj97YnZDn9d5vJVmTe31f+96zN/Cu/DxHywj63AMpKXHxJaXn4KloWkZXv7x9wnfnld3Rme5/GWqdaT9li2v5crm3b6/MlIp/1bV/kI5Uew/AaPQTnF5HHabRKSy7/HXn8oTyPqXrV8+zhW6bPzxzpe9TZ460nOYzt9gTKUwfL97+fmReSTL/k4FyLyLCiu/vHmxded7mPAtV/sshBcrhROy+rOhLyz882cZ0qVF6ZwWly/ze2HwPKt9ct59vr09515m1tOeP5Lu4GyM/cG88S5bFkeg3ln7yMpWK79dEdvez491n6x0mCXTyWXLs1+r3jLza1H7V/H/tTM9XjbElye+ixqXycet5KfF3Y6Bb/sRS0/Jz6vlFA5NtZXQDqTjkOZH/Z3QvmWZr+MRLIHc6h0rrm4/xNruvS7OF39d1da3331J/03is9u3Nzrvf/1mv67f+29lF7bfEv/JyrX9Hfq94r6jf5Mvb6lf+Orao7Sucb8fm//xiXmOr334XWI7yz5Sf9r+jNFpCX0mRDaXvk9Kw1Bju3ObaeXntz2aypNxrrlOgPfUesUyzTzxs5L4bXNa3LpUukO5KXOG2s9uXQmbpfgyH877V7+mt8R612j54d+795fZvkIlQeTIz2uPB5wXrjSEVh3eJ1SOG/y+0dS6zTmK3Jd9mdCIH2Sa3+pNOl0hvLGK5fmsRBcv7cNqY6VGKm20UF+z8+/0LYqZvrs/Pa2LbTPQ8vIC8x35GXydljHeaCMOOoAKXb/6HUklFNnWZTU8qwyqL4b3KchzuVZZSXVsoP7xCs7+eXax4JirtuRH+H9LPPIkT9WPqt1OfPeXL77typNfjqtvLG3yZ1mQ+ptSrHfFe9z9zHgp8/aRl33OvPfTp9670iHve+FqDy+2/yeyr9sl59qHxqSj3M7z1z7Q/LW5c57c57HW65YTi7P7d947P1iv/e22Vy2o24R2xVad2LeRaw7VV6Y0m2Xt5xgukPrM489RW9r0vbrPMqnwf9dwjGlyoP1vdCyrDIkOcpROO2SVY8Kall2vtj7Si3fSJP9XrGW7di/puB6rH3mXL5BLduRl4F8kp/d0n+j+NzcXsnbz8HtDkvOK8XMZzvdqdMZ3L+Sq7wGvqPWJZdlLD/NfhmBhvwhP5Vl4/WraL1t69FSUYc28/6tsbOxrH4K2re0e1cKJteG772oKEVg6ft70G5/ZiivNcfYj8HUWVOA3d2RV2KWNwD19fP1BwnE99e1zMdacxsmX4X6ip3Y+mT4Kpfk3G7Xdqa2C6trWlFdX4dK/YnU9aNGtFc3B4aAlFTVYs5Y8UKlewrqNwTzZk6dWEbHE9jhumop19G80vt9oSaUoUS92IUHG3ZayxHrrZ2t5ss0o/7W4Lxrxb5o2aavAnnv2xseEu/1djcP8B6KLPJC7fNWPG5clep98gmR/wsKyq/c/tHKp4lt7+jBXv0+UtpyGHOsqHIpyotZDsuvjMgDqdBjRStuG/0rznGjIvaiu2MKyk7Xb00HutGNKZhxURHDoSLKfvJ2TMLiHc2obqmxrnTKK6SO+9OluLqs0HJqcdUHst5ZWy0Or+3xvTxJCl22vBpcJcuOsS0lVQtQbW1H1/ZWVNZfVdDxXVB9b0iuezy9e3qM+ixob/dOoHp6QelNVNB+jzkGEureYvS2rUAD6lAv9nMq4vy+OFBGpqMaO9G9X7+3FLr8tPvQyXmcu/JMljFxXCNY38fnvaXIutNLj/hdnbHPRJ4uNI6zzNsXsefuqLwokpXukqpbY9tSXU2yHhXlo0J/IKRqVypRx1QjHgxsi/U9e1lpz70OBZ9zjxjvuCm2nRV33M6YNR8t95s9jwexY4uoNqtFPR0jbV7F1c+2guuvSO42+NFqyAPM9u7EJrE6GVfOqgwVhJKLLhGFxmyoeV3Ksrt7OW5Fx53BE2KaAuV1XXtTlagk3UTDr1GfoM7UHyWRDUJRuS7Sy/amuWjo0PMdora7WF4lKw68i/QHitcgr55mNWB9qiF7CaYaJwplbCVmiIoxcMLfvR5LVAWT9kELO9Ewz8jv7gX5hrRq6M/HTOdyvDS3N8w18lJMYt0BquEq81xvd7EnTl8meeE1ZPONaVlpipNxVP7HCAx/src9SspymNg4FsFQ/vdimicCBz0/qIhjxVD4NqZovKmyVYqz7P0o6X2ZdMIPSSj7ydvhBZllokwvuV/kPXqw7iaxXya4H4wUW5cVUk5DousDFRinCMCiFbjsLSt0cBlsqMq8mllt7qNdeFwEVjOKuCiQrr43pax7BFV/R1xAVdubJpgpRCH7Pe4YiK17i+AHSSLYOUt/lIr4XX4Im/GwMFvBy0+/D0OijvPIPJNlFejeY9QncXkfMIC6U60jeH6V0yIjEwfWvijm3O3Ii2KF6r4xOGtCRHuys0lstwzsgk369O1KB3VM2dsS3qclZ5bmLyamPPe6pD7n2t9xlmk7Da5jyy47juGqvmLbWUnH7UXTgxcS5S11Exbg6jL9PkLavIqrnwMS0mnXI3HnEXcb/Og1pAHm+LJ0V4zTk4207eoR0suwQuxs86BIaMjrk9kiiAadXkZbvftKiX81Y1mqe0cN8mqZXrY5HZGbx3OVbMT2Zyj9CURe8cvnQ1vZemufxZMneTMfvSl49UyVsSHkygt1AvMblwfasVWUpasLasx5F1KqtlySL0/NBVzhTlEOkyrfyvqNod937LADgQEcK8VuY+c2tLga2SbVEI8ayTAGc+70Aj3/hGE2ypKE93cB2yHTrl9KZRNE2XUGIcVflBhJZIOgMqLXSgZouZ4BmW8FjgAopL53Sa57vCAmsiddNMra6nvyDb3ICzSDwxs1UVwPqtcAt3oD5PL06yAjSCpg/6jAf94TmJE7P8jeL5fili+lOX9EGVCQFFv/5EXXnd5FymAvm1cnBInzfWj7xJRJG2Bg5+4jR/cYDWj0UtJFuQIMoA2Y6pwrgpfAfOe5xi4XrmMruH9VABlz32Ph7aw0x+0kXF0PNPxI3++5XezHlOe85LxKe1EyOZ32uiLPI0ewDT5cDGmA6Z2o7GEGYbLwBitTjzqpRVTUahiVORxDP1Ao6qqstyxruITLnvzVjIKu/J1eGjopJ4na7sK1x1Sy3pW/yKFvUemWgZHdUzRhAVZtqBM1wtzQTc1pqPKAHrwk1zW2DGXm/gtISLNPXXkqFZWpN/xwwDdLZ5UXaqiSt22y3KHQq8gqEBEVldVDn0qqcigr3+jGcepyWeyxIhW1jeJkcH9r4lV5eaKKHcmgrsDnG6By+GaiqP2ddjtkwKN7RlZdWyo+KMXM2pXuE3tCXVZQOQ2JPrYS8y1RYcuunHUrVokGUkuN40EHcmgZvG0spOHhS13fh6Ste5LzWl1p9xucouwMeMhU6v2uhzBG5Vls3SuooX+iqBs9HMu7xbr1bNNLRV1g8uofe4ilS3HLT7kPXaKO88g8C9elqY6jhLpTDQlFI6r8CxRTV6BbXpDyJe1DIbv2Rdpzd/x5ZWB0mbHK9A6/x8hRV6ZrV3q9ruGyIkfKJG+L2tf+hZxU5163LPdVMdSIiyhFtLPSHrf5i/Fy/6YbVZEmr7zh0QkXooXi6heXuDb40Wtoh8iKE5XfgAg1wmWDSz+pyrvnRlSm5hOyVKEWJ8lrvQq4t63JeoqYbNj5J1Xd8Iy5RycwlEHSy7e1NBR3tdQfptTQGGwsdjVFX/VzbndnU8GBUrtIc9zQBTU+XVQM5j7I5acKhuRwiWBvsLyq47xvUO7TYoNMNYTEH2Yir15NEWXDfJqZWG+Tl3/eEDOrMhP7bHVunbuwep7cV3Kf+8sa4BXWDPNCpr9l+2Z1T0HBQ/vkico/mSveVdpUUpRD/96UqF5V/8LQ8sA2iTRYT7CLP1ZEvt0U84S0YrYxzVOpRRlR96ldGRVY+PuziCHVrv2dZjtkXafK6sbQOstrN3oNyVyQKdKXUJcVXE4trvrAu/oal2/pFLzsybXqKnw4yJS9OMDWJzenbniY0tb3Lsl1jzie1L2mMXntb3MxF1+ipNzvScd3Ut0rlVStDFy1X3WlvChia0VDUReYxqPMGn6ohpbp13nFLj/dPozkrNddeabTbeZ1Yv3jSW5nyJEW+fyXvTPBoYM6MLLOeWY7Kav2hZJ47nbkxUBYdYhXPqx6QGxbQ0yPUZp2peTXWfl8EceCvDc+tC3WxUB1jBtBbxFtQF/ac+5gib4oItJQcDurgONW5Vkr1t20Ht0p77FPzit9gc3Yx27F1y+2pDb40WrI78FUDQh975F/NVRNcnhMrhLOPwQjMH+DeR9ET+CKakVNj753R1YG3jj3wFhpNSRJnox1wyU3jlzPF8fMQnGwhIhKpbirGfKEoBuL/jrEtK4s7qBxbHcNCm5MqSERcVfqjROmv56qLaW5qzvltXqIhJ+Gqd7fLo0caiOXJxqFKr9jhlWExvmrfZa/wiMbMW2BK+VivWW6d8poeOZ+P68HM9W+yZ8A/H3lPQQgfphHGpnlhXxoRYs4AU5IbvCHiGUGexC2YaZYRzpx5VDmm7yHIKFSdZSXiqnrUWY3muKOFdWrEhMYFLqN4mTu3W9i7hs9vFUePyLv/4+8D1KdDKMbbmpYWscAAil7fydsh7o3UweX7mFS5v66Ed/+hxR1mVBwOTW59q+od9Y6hkAXrJhlq+GksuEivms0qGRDQrTWUjc8AtLW9y6xdY9oyIj38UOh9EWGFMF+oZL2u/fQJBFIy4a18Z1cmdL5G1v3FqCymIuxsszXBcvI49Ncw/iKXb4Quw9TsI9z8VE4z/QQbD16IX+sp0hz0e2MvHBZEHV793Rj3QNpXxR67g7mxYCJxvrC7nz5UMebY3hzfI9RmnaloOus7lxZ0ffGh7ZFpOHanvxxJY5xOSIlv6xi2oCaq950nXMzE9y/7vqs+HZW+uNW5Jl8iJCon1JfiI/NK1k/y4sRslmQ37582yF4UaTo+iUkoQ2uBI9V/95Ymc7ABdkR5Dj5KFn9+ijlBZjd17oevhE3j2gweRUdAiegY4gMCLdPz+h+IEEu7/5StLkaMHHzRhTWZQEHZM+vbBBmEPgeI1SAaT6QxRA3j2i4kPfnqmB1OJVTdYFTXig7toZAjjyy3SWCTec5I27e0JHlfV1Z1AXo4W3oezCJjkX63rzCe6OPDvIpqIXeN0dk8u6VSr6PhoiIiI6sY6AHk2i48Xqb5NC1kXhVimjoHeMjAIiOUezBJBoZ2INJdASp+3D0PRwMLokK5/3tyhp0Ox6KREREREOPPZhERERERESUCfZgEhERERERUSYYYBIREREREVEmGGASERERERFRJhhgEhERERERUSYYYBIREREREVEmGGASERERERFRJhhgEhERERERUSYYYBIREREREVEmGGASFamraRoqpgan1Z16JpGps0mUjyZ06beh90RERERHieP6Bf2aiNI4sBlL5jUC9RuxqmqM/lAQQcOSPVcFPyPSetuWoqphp343BfUbVmLOWP2WiIiI6CjBAJOoILuwemoN0Lwdiyfrj4iIiIiISBnaIbKyJ2jqUmw6oN+rxrscapgfOiav+ptDEJe0HdRz9Hdv2oxe/Ul4eQex6Sb5O/Oz8DIrmnbpOT4/Hf4U/H1+ucZkLCN5+RaVbuP7agquUw7HzG+7xxuiGR5mZw/dDP7O3raYYXpqGJ/5XT2ZeZ6UVym2LTFNueGEwe/Z+eHaL/aQVdew1sT9Y+htW4+WijpcnRRcRuWdmHJpUnljbavOL3vbYsuUva7A/hFCx4Wfj1H73lG+/cle9kDWnduvQWpb9XKc+8v/vfd1xf5eLo+j9oORTjtvXcOcQ+mwykxwvlW+ZRoi8q2QIdWR2xhiH0/+lE+Xvc2B8hZbXvRrc3tC33fVu1aa7PxwsrdDL08fI/nP81N+O7w0BPNIpyu07oj1KCnrFEf9H66fHMexPzl+75qnOMu0dRzZeRTYZm+bZPqC6wofi/F5Izj3hfWdCInb6ch7M09deRl3PCXvJ3tbjfzwt9NMY6j+8n/v+syfwnlT+P42l5G8fFuoLstN9v5PWna+HPn8Za/uDM/zeMtU+ynVcRzOn+j95U9GOu11hMqYEMrfuP0npri6S60vLp+S8kWvr5D6NXGdecnHnMW5j4Lrso+rADttaeouIW067bJsbq+cZ2+/931vfaF1+JNaV9R+ipFy244psgdzyLz6k/4bK2/p3/iqfNPbv3HJxf2fWNOlZnm6+u8236vvX9x/96/1e/83S37S/5p861qeP8/Quebi/hs39+ZeB9ap1+HPV369pv8TjvUGvqOp5VWu6e/U7+PSkRNIt+e1zbcEfmOmWdFpCq5L8tbnpTWcztc2rwmsR6U3Lm2KuUxDmrxKsW2JaXJta2jdoqzI7yTsy9D+1r8LbZtT9H4PUWm29421LpU+R1lxpTnwvfxxofLSyt/Q9wP7QK8jkAc293aG99tA1+3K++C6w/tLsPNWrONuM61qfjBd/nLt/Wxvk19m7O/JdESlKZRGe/3yfeAY02XVsZ5IqbYxTG1faF/ny49ib3PsPpP0Z/42ub7v2F5zW1WeBb5j0Wkyy2CungiszxcsN6797ZVXa71x6/H3kyOvzO8H9n/K/eItO/w9tSxXnWCmWa3D/I6rTDqWkZuv37u2I3TsBr/jrTuqrHhCx1QEuT5/2Xb6PeY+9F7n0hLK53AZswXW4dhPyedGqzwE9oOjrEgqf/R3HHkVyvOU+1tJs38cnHltryPVsoP7xDu+8stwlgNzPY78CO1nma9mWnW67O1z1nOh5eu8dW27n85APoS/n1i2U2xTYr746/W/E1imNU9KlY8py5rNsWw7/c7y5LN/H9hOj/379On0PnfWD4JcjvneW7e9bMlVF4eXlyjFth1rhslDfuTVgrloQB3aaifpz6RJWGy+H1uJGRVA9x7/qsIYzLlzI+rRiCrrCkdXk17enbNRoj/zHMRLu4GyM933yXX9qBHt1c3B++gm12JtNdCyPflqz7oWeW9VLcr1RyqNdXWo7HgCOwJXmFKYUGal3bcLq2taUV0vlqs/yduL7o4pKDtdv7WUVNUG7vsqnzYf6OgRvyrcgPLK2LZ0abLydexsLKufgvYt7epKn9+zGCg/1neiReeXS1TZGajethWqzNaL/Mtxlin/uNiFBxt2oro5eC9feW0zqtGKx0NX86OOs2Jkse5JuFrsn0BZOdCOrR3zsbCQ+1jFfl4cKIPTRRp2onu/fh9JbgNQX2fUEWJZC0PlN6bOUPtnPtaa+Tn5KtRX7MTWJ91XP7uaatBSLfazqMtSK3obXZLqVV9UeSms3lXHpqgnzCHl5VfG14muusWuJwoi9tNyua/rRd1iiFtPwXWKvIIt62XrmEhtgOePyrLx+pU8DoPLmDprCrC7O5hma7vtYzer+t0t/jzsiT6X9e7pASouwdRi8jliPyWfh8Rxs0PkUUuN1bMhjxN5TDejI3CcCPt70F5RivyeMQxwfw9o/yQodNmyN6hKHl/GtpRULUC1tR1d21tRWX+Vsb1J0tZVYXIbUH+rsU9F3l4r9mnLtkCvkipLzvIqy584TKZZ+3SAkvOlsPo1lQGWtZDE47swubqroHTGt3WD4trMg8usl481wyLA3NoYd9CYQxTE98QBH6QPxt01qGh8Qn2ytXEaFu2OWl5cofROeq4KRZ1s7BO0TZ1MHCc9VSkmNQZ3omFevmu9qntB+GSleQ1U0WC7SH9gOtCNbpTirJgTb2BogDjoilNIXiVvW3KawttUcmZprgGwt3snKmdVhvZ3yUWXiIrJClZFAyG3rqnrUVbgw1bSnNwK5jeARbBzlv5IiSpTktrX8zEzNFx3EmaKhoCdzvjjrEAZrVvtH+OE3/vkE6JhM72ABogm8i8/lEccH/rjWGobgmVTTotCP46pM+T+EY3yRcbv3fWUJhq3i1RAWsRprphtjJRUryaVl/T1rjw2g8ecmOaJBqyeHxZdtxRHBACNurF5pv5IiV9PQXXK7vVYooKWAdybXdD5I1jm1pVZDxwTzOFj+YdL5YUbPuNRlmu8Z1u/h6VoHMacy7x9UETDOGE/JZ+HvCCzrGEultwvAhP0YJ28CDPBEVwK0cGLMKD2wgDbKrEKXPaWFTq4tM+j8lxgXmjbhcdF8DDjoriLCi7JdVWYtw3tYj/l9mfEPlXHuTMI8M5lhQfr9jnFTnOafCm0XZuwzsFum1r1e/zQ0pi6q5B0pmjr+mLbzDHs8hM3BN+TXC8fS4ZBgClPfFOcvWheZe89UKVjh5zEAee66q96PcQJU7xsF8srmyAqwaiTT+c2tEQ12IeUvGrjb+d2tJWtF9vuGL+da6C6T+DxDXSvoq7acgna9Ho6mkVeDbq4bRuCNMkrzf66dixAt6g80421H4OzJogy1m2X1IEyGsCDVi6jj7PBF7NudeLwe00OYscWkQ1Xust2FNWQnvcEZuTKmOyJSUscS7myYEzm8ZV0IpO9XI5lhE8soqyrxq15dTadgW1jULp6NUV5KaDerazfqNdlTkX29BXIHxmw7Aic6Afl4pNTsNwu7BYNIf++LX0hYhHy9VxbvdiXgyblucuU5jysGpsRvX9jZ2NVc6nR8C3sgkt4PxVwHpJp1y+lsgkib61eMY+sz3ZmeKFkeJIXiirF8e8KUmRAmuvtl/lWvaCgYz51GzCCvJDgl8v8ZNa/XiAa1ZNeXquDPFXGRPlwXKgJCx4PrjSnypdC2rUp1lm8FMe32abaUAeIwCw6GIupuwqQ+mJ0Qps5TuC8JeqDlhr7XldbNtt2tBgGAeYUzKhbibXVMvI3C61XOcsdHH9FWJwY/D8ZUXeJOBinoOzKWnFCFWV8nn2SEw35+1udV6U9XgDhumIlhzAkDgs4vdR9VVVVFGm78j3qCi168FJgWe0JDVQ9bDHqhKZOjOIAyKIHawB5Fdi2AaRJrUdXMOPL3MPWVCUU1UhRvKuUaYNGdQW3ZX1CJVOYl+IawFFlShpbhjJjSFuevCJqnzSjjrMiZbbuMWrYkipH8jhBoRd/vPUVNSwxchuCYstQ3P6x7PCvohbcwzWAbQxJW68mlZf09W7UsRktum4p2J78yIBw/RK/noLqlAkLsEo3rAp6MIRpAOcPVS/piwFe+uoKHwav1+P1pGRUvzslnYc9SetRvYO5Bl3KCy5R+ynteUgG77oHdNW1peKDUsys1ceJ3ZDsfAgNHa5RHtqA2gsDbKvEKmzZlbNuFcG+bHw7enjk7QLwtlH+trBgO21d5ZKyDknMa2+YrB9oZHahJjFfCmnXpjDobVODumisX6dg1l3p05nQ1s1JajMXQN2WUpjAth2Dhsk9mGJH1G63GjNeBWE2/NWVaLPbXx6E8sqlaLTZvQUlVY7Gka7w4+7vUvcG2fdYqCsgU5J7VtT9W3I4gVkBeL1T7QVeuVNXb61ek/aGxtgGauITTuXBG6gYRP45hoykVXRemduWOk3WCVytRzS6dQXj3ddg3bOghp2KSujauEaDdwXTHyLjXTGNqcAn+5W842Qq0lR447IVDZENYMFZpkQeqe3U9zBaV9XUcJCIchA+zoqV4bplxd2yDZtEwxgJjc4wc1ifR6VBv46nh0DVBNPT29ZkbJM+kUWVIT10p6Ex2LjsarK2UZTNhrirqKLsRF/pHMg22tLUq3nufVZYvesNZ2zE8sCx4ZdhN1fdEtwv6bSIOjNuZEDcegquU2Sv2kCCzAGcP7x7Er2g17x1QNFptsnhX/k6TK/H6FXMpH53SXEelmlW92JFrcffD8U0HF37Kc15SKzT//vH9jlY9XTJe+Zyx7AOouPuNxxge2FAbZUEBS9bnBe9Hh77vCjv/wW2PrkZj4v6LzLYdiqsrrJ5F4NrgukR+3C1sU3evabRee2fz7If/RCXL4XVr6kMsKwFJB3fBQatZt2VNp1pn+af1GYuiLoIFbPdDoFtOwadqP8fFrzhCHPFweNdIVwsHzogDrQK3ZKqrG+GeniGfCMbZPIEIApP1P0eqnGEad7ybhKV353eCUO+DxLr8Me2q5MPxIlkLipEw98jr5KuTHUiM9fpU1e/EisoeVBNQ26VEBX5Bnud0Q1UGRh5wzd2omqqOAmaOsS2dMt8kg+oeAJVufWI5amTgnpTuNR5FbNtYhnp0iQ+v7ZHbNs0/V7uevM+Gu/eGBjlxVvP9nDlKRae/44gy1ABJxBZyXdcJBsb0xC8UCe3vfATUWXC0FhXmZLbLsm0tEHsezN/5fbcGd3ACB1nRVa+2a1bBno1WNRQTP55DwDYapTB6mbvQRxpuPJWbUOV+N+sYyLzyLtXBjfNDRx38phfpV/74hrD8ip25ayNEcH1wLbRph7mElWvOgT2mV+PyjxJU++qfeyqJ7w6IJKrbhENija5XwoJMpMah3HrKaRO8cnlNfeIciOWt0WfU/SsNNKfP2Qj0yizqu7R61IPYzGWIbZnrXowkffWJ/d72f2iDvMb7HK7zfRmUb/b/GNKCKZf8s7DD8x6AteIc5ncbnc++8Gw2LfFNhwd+ynuPOSfX9Vx7SxPZj3w76i64Cm0PSM+lufefMYo7WId3bruK769IKTeP0UoZtnq4qs4R4sgUzbq/fpBXmCCCMy7xXYVmq5C66oAFfSKYi3Toz/yj5NcEKfeR5yvVEAtq7rCjuG0nPlSaLtWlqOUgVzxZS3F8W21qXLHrrOujqm7hKR0pmvr+nknlh2Rj2moezCN41fmd3wZjt+2Y81x8lGy+vXRTR6495e6T/hx80YIddBFPFwhbt6IoCpdiAM1g2EONCzJewzVPWMjtYwOiGgw37QCqDsy9yTSsU6Wt7nYOisqWBpER/l52OPlb/e1rot3cfOOUqrnV94/zvotgPlSlKO6rXuUGTZDZInoWKXvMSzo/pyjyV50F3zvKRHR8Ner7glm/WZjvtDR7tjpwaSRiz2YRzV11VE+vXHE91wQjQRD2INJxxhvKKp8Cuwx02ObCvOFjn7swSSioSGHCKlHv5dm9GRjIiIaDry/w1qj7jFkEJXHfKFjBXswiYiIiIiIKBPswSQiIiIiIqJMMMAkIiIiIiKiTDDAJCIiIiIiokwwwCQiIiIiIqJMMMAkIiIiIiKiTDDAJCIiIiIiokwwwCQiIiIiIqJMMMAkIiIiIiKiTDDAPCrtwuqpTejS74iIiIiIiI4EBphERERERESUCQaYRERERERElIlhEWB2NU1DxVRjatql53h625YG5q/u1DOkzibxmTEc9MBmLJHfu2kzevVH3pDR/O8rpi7FpgPy84PYdJO1PP2Z+XuVPiNNfnqWtB3UnwgqHcY6AusX7Pl+GlR65Wu9Xn++lQe57fIne/lSbh01aEErFunvBrfP255A2gVvH+TzUW2jvY5cWvV7yU6XnW4/P43v+OnJMl/t7ZH8cmVvv8n/TniyhxhHlSEt7X4MLUdMoX0Zty5v+eb2urYzuF1WWomIiIiIBsmw6cGsrN+Ijh3bsbZaf6DJoKNqyyVoE/Pk/I4NdeiuiQoaRMN8XiMgl3XnbJTIj1TDvwbdevlyaqsvVd926W1bgYYO/cZFBDRVDWIVG7ZjVdUY9ZEKjGp61Gf+OtZOaERVKEiZj7V6fseOlZgzVn+MnWiYtwKo8+c1o7qlJhCcdP2oBwtzv92Ieojl28FZLg3i9/66dH65ArAcsU2LWvTrQsi8nfcEZuS2W6Rrt5luGSjNRcOEZj1fTM3z9TzLQPK1YgqwpT0UpD2edpuqjfS50ugoQx3NpWKf2eUwaT/K4FAE/8b62upF2m0HutFt7L9K/bGLzKNFLd53F0/2PpPB5SKYeS7TyiCTiIiIiAbfMAgwD+Kl3UDZmV5QEbQLD8qgo04Hi9LY2VgogtCW7a6eIa/x7gcoUtePGtFufVZSVWsEdwYRSCyX66uPDoIqalpFPGIGhzKNO63PgPJaGeS14vGY3jNT8PeTsFgGOS3bcoFUeW0tyvVrYAymzhKBye5uHVS506CI/FolltXe8JAV7PpEvsltqo8PZFxk3qL+VmOdYzDn2ny6e9vWo6WiDm21k7zZ0uTaXCCUM9B8nXAJZoiA+0Hzs85toizMF98dOFcZktshL4bY5TB+P+5Fd4f4zjQjP1z296C9ohTj9dso6uKLCsqNsiHK8DoZcAby/CrUV+zE1idjLjIQEREREWVgGASYstE9BWWn67cm1ZMje4XM4X7THL1tPVjn9wyZDWsdvCY26JWD2NSoA6Yz9Uem3euxRAVB+Z4iRfc2zbSDJhFczBQBSPeeNI16x/afXioCvh68ZPQ6mcMeq0TwlROZBs2xLF9Xk5dviy/SH6Tm5W17w9zAvpGBom9v905UzqrMXxxwySRfy1TAnQ/2xL68vwf1V07X7wciugyVTxPBYy7Il5L2o5f28MWRoN49PSJoLovPty0rdHBpXVSQwakxPNqb5sb3yhMRERERZWToA0wVSJTiLLORHGAOKzWmQCCpBRr7hVFDY1GHZWYvlUO6gDFjaohmcNijc2hlodTQWKu3Syu56BJUdjyBHUZQ2vvkEyJ4CZKBYWC/qMnsbU1noPlaUrUA1S3rvWGgB9qxFZdgamSZGjrltXoYsQ7+AhcKlIPYsWVn4kURuR8qsRPd+733AbLXOLRP8kOPiYiIiIgGy5AHmCpoiRoOOLYMZamGmZZi4Z36vsTAA1PG4KwJyT1G2KOHxppDcW0TFmDVhjqgYW7wfsbINHr3ALqH/ibz8sULkrzX1lBTU1I+qV4tO4hv94bGNkcEg2NnY1m92Fyj93h5t+yN8yXn7fiyKWgP3RtpySxfZe+gNwxU5heSek5Ti97Oru2tiT2N5n70eMNk/XuOQxcKOh9CQ0dMb7RWOetWNfS5xb4fWfaYWhcGiIiIiIiOlCEOMPV9dtdGBXZ6SGFN8KEuvW1NjgeWjMEcR5BZfmUdKltqAsGL/fuWBvtewgjyfsZQMDQJV4sgoaUm+BAVNfRUBIVXJwQKHjkM2NhGdS9ofnhpyZmlQEePCE00PT/PnQZF9n6KQLKy/qpAINkutlkNjY1JX0nVymAP2JXBhyOpIaIibwMBjljfap03qlexI/gwItlrGnpAU0b5KtPTvmWFyJtSLMywt85Vhrze3ymov9IM+uP3o+Sn391TLof2hvdVpMm16oFEgSBzbCVmVIh0NAafTNvV5KfLe0JtYFuIiIiIiDIydAGmfLCLfihPXJBTXiufLBu8p6yqe3pEMCiDzGYvqPH/NIMRvOR+v6U0OHwyssHvkHtojlieDmRlINZm9fap4az+k2wTiUCluRTr9G8r9JNwc0Ma1QNljDwQsxdaPV8qGNRPNg38mRKxrLJm1/BI99DYghgBjr/dFfN6MDO3rklY7D9J1Z9fA3fvXBb5Kh9mI4K89urpBQ/RjeUoQ3I71gaeBCwl7EcVlCLigop8wqx3r2TgvlaxjHZ9H3IoMJfEPpC9oGofqEDeuNDiL0NM68pSBq1ERERERANwXL+gX9NQkD2M6k992MHKQMheqm2YWcS9kFSkAe9HL8DsvtZ62JESN4+IiIiIaPgYBk+RJSIiIiIioqMBA0yiYUEObY3qoYybR0REREQ0fDDAJCIiIiIiokzwHkwiIiIiIiLKBHswiYiIiIiIKBMMMImIiIiIiCgTDDCJiIiIiIgoEwwwiYiIiIiIKBMMMImIiIiIiCgTDDCJiIiIiIgoEwwwiYiIiIiIKBMMMImIiIiIiCgTDDCJiIiIiIgoEwwwiYiIiIiIKBMMMImIiIiIiCgTDDCJiIiIiIgoEwwwiYiIiIiIKBMMMImIiIiIiCgTDDCJiIiIiIgoEwwwiYiIiIiIKBMMMImIiIiIiCgDwP8fW2u7mo574wYAAAAASUVORK5CYII=;" vertex="1" parent="1">
                    <mxGeometry x="-70" y="-10" width="920" height="331" as="geometry"/>
                </mxCell>
                <mxCell id="3" value="" style="shape=image;verticalLabelPosition=bottom;labelBackgroundColor=#ffffff;verticalAlign=top;aspect=fixed;imageAspect=0;image=data:image/png,iVBORw0KGgoAAAANSUhEUgAABGcAAAI5CAYAAAAMg1fVAAAAAXNSR0IArs4c6QAAAARnQU1BAACxjwv8YQUAAAAJcEhZcwAAEnQAABJ0Ad5mH3gAAHqqSURBVHhe7d1NaBtZvvfxX+buZjE81+aanuY21uQu7sb2ZgjINs7b1iHBiwa3AglZeCEMWSQQN+p1xDjQvQgILbxoOhDF0IuQEG3zZiwLwmxsb+7iumV6yAQP9vMwi9nN5KlTderVsl4sJ2Vb3w8UrapTKpXk9KlT//M/p858dAgAAAAAAACp+I39LwAAAAAAAFJAcAYAAAAAACBFBGcAAAAAAABSRHAGAAAAAAAgRQRnAAAAAAAAUkRwBgAAAAAAIEUEZwAAAAAAAFJEcAYAAAAAACBFBGcAAAAAAABSRHAGAAAAAAAgRQRnAAAAAAAAUkRwBgAAAAAAIEVnPjrs657t/t//Z18BAAAAAACcHIP//n/sq8/vSIMzAAAAAAAA6A7DmgAAAAAAAFJEcAYAAAAAACBFBGcAAAAAAABSRHAGAAAAAAAgRQRnAAAAAAAAUkRwBgAAAAAAIEUEZwAAAAAAAFJEcAYAAAAAACBFBGcAAAAAAABSRHAGAAAAAAAgRQRnAAAAAAAAUkRwBgAAAAAAIEUEZwAAAAAAAFJEcAYAAAAAACBFBGcAAAAAAABSRHAGAAAAAAAgRQRnAAAAAAAAUkRwBgAAAAAAIEVnPjrsawAAcBKsl5TNL9uVuFx5RbfH7AoA4DPZ0/O711Ss29WDZBdU/f6KBu0qDsv/vWe1tDqvUbPJvzbmyqrPj7h7AScJmTMAAJwilfyU7lT37BoAAKfRgK5+/0yF7LLmJqeUNQuBGZxwBGcAADixxlV4uqL6qrM8XdCE3VprvLevAACfnQkQmHo5sizlbBmOkAnQxH9nAjM4yQjOAABwGnzYVs2+zE05jdOdF7rj9ybefaFdW7ZRstsm7+n5jt2oTT309/WX0qYtizAp48n9nOXhui2PfGawzU09t/vaY+5W79n3lrThbkkKzyeeBZQ8z+h3OFj4eQe8N/pbBUv83ILfLfJbhr+Hf6zm573vvU1/p7imn+cI/37eQpYUcFLF64t4PRWtfyJ1aGSJ1h3JeiFcwuMEx4/WKZG6KFmXND9mWG8eVEdFNd2nw3ozav81I3xP89/hoGuLr8lvGjnHdr9nu/JQi2vWAddTsxx0XcDpR3AGAIATa03FGdugc+egMWPv7ZwzQ1f0Q3nW3Uv1RT02jT2nIf5jxduUKz/Q1SHnhdtAzMtuDlXy+xrdu79u21cpcG8ikudpvn+ksXuA9401++oAkcBWyKTKt2vgf07ezcRc4g9VK14jQAOcdC//pOlitJ5y6p+g/n2vRpN5bMwQ1vY38c5xmgXaXU6dsrjYpO4z9vTLln15UjjXsmT92JR7LWkyN5BznZzuuc6P/N49XLPQvwjOAABwapiAQqThNzYfpNJXfnqh5z/bhniubCcNdhrnP9mJhc0klX5aeDKoY/lBjonCs9gwqs9hwz/3yHl6321Nr9+1Ck6ENxlmsuTgu0U5v1MsLT74bst6dVx6MNef2JuJyFA2+11qL2sH9lwDOP5q9WE3sG7+v64Wxr2N9bdadevyEd326yZ3MfOsuHuospIIvAT1Y7jPQXarf2oxebEfELL1TbN681jZ1MMDJslPCq4ltjMjWef/WN3T6Ly3PfhbBPvaiYd9LX7vttcs/7oTuZa61yhnG5P69y+CMwAAnFiRG/XVsrw4zJqKi2HGy+i83V5fVNHtwnMamcGY/LBHduLyRPj0kLEL9lhS41c/8LGpV7YLMPPVgPeiBdOr66Vot3p6iQkm+fuZ5aAexUgvrtu76e3v95K2nGNnp6bX9iYj84W7pYlE6vnMQb3JjsjnH/TELMNktPjHa9WbG/5O3nJgWn+QtZTMlnLUt52/JICTaqLwTXDTP3juvL1ZX1Pjg/siMYymRZ0a1E92HxMYaDYHy84L3TeZOk55wa/so3YaargvhvUHk2HZSrRONEuzYU6HqDfd5cCsn7iNkpehkiu06zSIXEtyF8JAy9CELtrgSldzth34e/dwzUJfIzgDAMCpMKJLfiO705v1oAHegfU3Nj17Vpc+Wa9ePLAUap7WH9hqHJg5svvure29PK/JpjcZZriQn3pug12fOSsoqlb8U9MAVeuhWdv6hTR54FQy8634N/Vu1mIHWTGB+qLu7wv4buuxO5zJqe8WrugPdmtUWG8O60t3SxdMMKLDoEpblXz7oVsrdjiTyQg95206WJtrSa+C3/vw1yz0N4IzAACcCmFmS5Tfo6jsrHJugz4yJj7aWxgdGhMEYvwsmcjwp2hvYwt+enbrG4kwrTxM5W8WWPpSGf8YkRTxYPn+Spj1E7Opx6Z32BHLDIqJpu/beXiazkFjRT+/Raq/dxPl7dfqKS3B7xQEhMLe8qgvM356fTRbyl/seQM4kaL1bzjsxsv2iw4n/WHa1Mctbvwj9ZNfp9aKT+LzqNSXVXHeP1H49oB6I6w3dTZzQL0ZEfnMoK5LBh+6rjf9TNBo9mZzlYq5NkUzQluJdGJU3oS/S5Bh6ZxDpotw1IG/92GvWeh3BGcAADixIkNcIhMPBinywQSJpod0Xrdv2kZx0Bs5oKv+tkjqdZB27jQqr4+ZzJJIGr2ZKNjsExn6Y4bmHG5S2nBYUzAZZtOe2gPO010OmsDRDFUKf5MgXT5Iqfd+u7BXtslwoc8gGNYU/J7Nh18NTt8Ih60Ff3Nv4ckewAkXqde8OtuRuxELnoRDfsJ6bZ/IcVrWqU7d/p0b6EmITRDvXDe+7iDg0eTcDw6Gt9bsO3YyjDZXTswF08Lo1+H8MsGw2qD+ndWtZr/LQQ78vQ9zzQIIzgAAcKqYTAy3d9U0sv0gg9/IH/smnEgyb+d3MZMSNhnG4/ZgfvbevVktHfSZB5xn70Z0O3Zc5xxSHNYUPEVrHzMpaBfDGQCcGBOFcvz/7VxZdZsJMjof//8+V+6mHmhWp3rDmdrV7QfXRW0cFPg5BHMdajs5bjDBfYfMkwwjmTkB85snJ/ztWuT3/mTXLJxmZz467GsAAIAEP3MmMuwnwsyHYHoMw5T748LPnHEay00a3GaCTdPLa4JZPBkDwOcXZvcdv/oTQBrInAEAAAAAAEgRwRkAAAAAAIAUMawJAAAAAD4rhjUBiCM4AwAAAAAAkCKGNQEAAAAAAKSI4AwAAAAAAECKCM4AAAAAAACkiOAMAAAAAABAigjOAAAAAAAApIjgDAAAAAAAQIoIzgAAAAAAAKSI4AwAAAAAAECKCM4AAAAAAACkiOAMAAAAAABAigjOAAAAAAAApIjgDAAAAAAAQIoIzgAAAAAAAKTozEeHfd2z3f/7/+wrAAAAAACAk2Pw3/+PffX5kTkDAAAAAACQoiPNnAEAAAAAAEB3yJwBAAAAAABIEcEZAAAAAACAFBGcAQAAAAAASBHBGQAAAAAAgBQRnAEAAAAAAEgRwRkAAAAAAIAUEZwBAAAAAABIEcEZAAAAAACAFBGcAQAAAAAASBHBGQAAAAAAgBQRnAEAAAAAAEjRmY8O+zoV//jHP/TXv/5Vf//73/Wvf/3LbgW685vf/Ea/+93v9Pvf/16//e1v7VYAAAAAAI6/VIMzJjDzP//zP/rP//xPDQwM6N/+7d9sCdCdf/7zn9rb29Nf/vIX/fd//zcBGgAAAADAiZFqcOZ///d/3WyH//iP/7BbgN787W9/c7Ow/uu//stuAQAAAADgeEt1zhlzE20yZoCjYv49mX9XAAAAAACcFKkGZ8wcMwxlwlEy/56YuwgAAAAAcJLwtCYAAAAAAIAUEZwBAAAAAABIEcEZAAAAAACAFBGcAQAAAAAASBHBGQAAAAAAgBQRnAEAAAAAAEgRwRkAAAAAAIAUEZwBAAAAAABIEcEZAAAAAACAFJ2C4MymHk5OKRtZ7lT3bBlOgo0SfzMAAAAAQP86+cGZ9TdqFJ6pvrpil7IyxWvc7B97e3p+1wumzVXsJgAAAAAA+tDJD86MzeuH6QG7YozoemFctZc17dotOH52q39SUQuqrj5TIWs3AvhE9mcYmuXhui1G+nZe6I75u5Q27YaI9VLk73ZPz3fsdgDoSdhRFl3o4ASAdJz56LCvP7s///nP+uMf/2jXjs5u9Z6mGzdUnx+xW7yhM9EMjVx5RbfH7Ipp+OaX7Uqcu98XTqN55q0uPn2gq0O2wHDfJy2tzmvU3WBugPIKP2Zchac31JiJbvOZMud4H5xj/DSs6vdXNGhL/PNxP1sHnFt2wX3Pe/O9VI591wMd9D3tscznu79dcc3b7oj9Ti5zIb+mYt2uOnLlspRv8R2jv9k+3vFeX36WCLId3qf6dwWcfF4dpX3/XyNNbr378rwKZxdVTNbnJmgTuf54dfRw5LoDAL06+rYYAKB7p29CYKche78oFb6ON25fZSJDn8qzquSTvY+zTmPXHxrlDY/K2RINTehidk2v38V7EjZWlqXcBa+B7PZ65mNDrKqFYadgRLeD9XETybDlBwUtnJunaABlbN7u72WYmGCJux4N5nSqzbH8G4Squ4+zPF1QIx/tXTc3dtdUPOt/B2dxfsvuvyOA48T8v5+9+yKWbbhvWyx7I5F1Y8pKm957Duh5jZbF3+9l9cSzeJptO5g5tvk8E4Tff3wj0Tsc+66mzFwPvM/09ilpw5Z6Eu+PZbd4Zebzws/vIrvFXLNMZ4JTD//Bbora+HlRtdyNoC4dnL7hXJuW9arD3wYADs2t9xP14b5t0bozWT+aMmdft41syxPXGq/93Oz9Xt0av5Y02+ZfX8gqBHDynY7gTLRib5bhMnRFt6M9AWMXnMbtmhof7HpbA7p6czYxVGpTryrjQRDIa0CXYz0Og9PzXQcnNkp5VXILKQz12dRjE9RaiAR9nN/tVk6qrHgXyt3qI1VMlk20V3dsnh544IQbPHdeE/W3Wo00bN831jRxecLWB04De+VCLChbySca7JW8l7Foy2vFJ2G505j3sj2i7/cb0iO6FKlnXDsNNTSrS13ULbXiNf3oB+ET57dbfSIt2M82wWkt6n6scb+m4swjZZ56+yzlljUXucHYKEWD0s77t/L7bg4q+ang85dyzvF+jt6gtODUsz8cmPm4p1+2pNyUX25uTLwsxcav8c8HgCPntpfjweDdX7edSsl2TDo2Sm90ya0bzVJWzrkWxIPjTn06s61bfnl9UY+DcufaMrOojN9ZaN/v1a8DmrycnKbgvRr1cV08R3YPgNPpdARnTOM2uDB8Ky1GI+9WLDLfbAhOG+YCFb15WX+jSva8Jt3gS7IBfUjODcxcZVZL8xN2Q4ecC1nQ4+AsyZuGjrg3Q+YGJTyOWaJDweI3awBODTcQG80ONMHnWd0Kgs0juh0LypoG+7Z+ifZSRgO3sfI9Pf9pWROFb8JhOGPzbgDD/7zRrxc0UXkTBlPevZWi+3ciGhxPnF88UG4b/I33dt2TK4dB/dGpWWmrYW8IvN9iKfj+zYL1jsjnx99/NLysHG/YgclQTJ4/ABw9bx7HMHi+p9WX8ez00fnoEEsv2B4PHpsh7v4+8XK/0+96EIh3rjUmuG/rVzdTMNn2jmQS+ganHzjtf7K1AZx8p29Yk2k4L5iG/qMgvdFt1LoZNZHIvFfUBXNBCW8mzJCm3M1DDC060KY7nClXPsQ8AsEwImd5uiAVr3U8HCAuObTLLgf26gI4LUxAIQg4uA3gsGfUiA4ZOkyAO/NVi55Od+io3zvrNf577xmNZEcm0uaj82odqL4tN/zhBq6XNRd5f7O5u2LBeTOE9DBDTw8QzcoxASA3UJ750pYCwKfjZlb6wfOdml7L75i03GFOYf3Y9RM4z2Za1JVN2t69doQCwDF2CoMzSabXM94relimd1fuzYvXkxqm3A/oD2cTafldWnWHM5V7HyLk3uTY190YyijTZh6DLzM8BQs4tSLZgckGsBnP72b1BUHb7gPc8Z5UL9sw5GWzuHVos8b/oYwr84X5r5c2r9h8YOPuHi1lhxWGP5oEro8w+HIw79oSzcrxf7uWwS4AOCqR4Lmb1RjNoDaBb7djMawbl7q9OCSyDN1hUxFhx0Gy7Q0Ap88JD86Y8feJeQ/MtsXoBIpfKpON3xi487rY110xFyg5Ny/V/b3KXlp+fB6C3Wqps8nJ6osqxtLme2BubOr+TUk37LwPiXkkot/BSy9d1HR0yNh66ZBZOgCOF6+HsvHBaQBvRdPMrUiwors61A4jis1B80TFenTYlO2ddRrpG07jP9NjVqJ7fsGwU08QzHBuJu63zJzxshiDIZz2xiQ6B83n5A6Ris7hYH87blAAfB5eHd74dVOrL4dj9bYn0uZ0h+fb1x3w5juLz0Hz2KmfY5npbsfBtt6vv1HjgOGuTAgM4LQ44cEZc8HYjqeb2zH54VAcb5iTGerj7/Nq6jDDmgzzec6hitvxp0EZZt4bO6TI/5xp5yLWae/voYYz+aJzzrg9xN8eKktodN5OhOkfy3yHxoXIscxTmbzJ2oLPy4ubBODY27RP0/CCKmaYjPn/NxlYNUHmRj6vRmJuqSAwa/+//zGz0FUdauYDqBYidXXeqUODOQgsM+/N2UXNFYcPV6dE6qW5rQVVg8wWO2eC/c7ZmW1dbJI5E5Tbp+6FmSrONeR7bxJg//hmOdTcXk35fxs7HMD/Hn4wyAyRcic4tp/t1Lk8RhvA0fCefmTazsW6N7F6s/rNXAMyxbyKZ+Mdk/58ZcF8hT8Nq9DNxcG2nc2TQd332/o3nkVu6nDn+uFcN5gIGMBpd+ajw77+7P785z/rj3/8o107GUx03n3c9GdJacdhnMR/VwAOz62XzZOiDpV9aG5Orqlxc4UnzwEAACA1fTDnzFEyE1XyxCIAAAAAAHB0CM50o8k8CQAAAAAAAL1gWFNHzJwAZq6GcRWe9v7UJ3xaDGsCAAAAAJwkZM50xEyEax4RSGAGAAAAAAAcLYIzAAAAAAAAKSI4AwAAAAAAkCKCMwAAAAAAACkiOAMAAAAAAJCiVIMzv/nNb/TPf/7TrgG9M/+ezL8rAAAAAABOilTvYn/3u99pb2/PrgG9M/+ezL8rAAAAAABOilSDM7///e/1l7/8RX/729/IoEFPzL8f8+/I/Hsy/64AAABwvG2UppSd9JY7VTpsAfS3Mx8d9nUq/vGPf+ivf/2r/v73v+tf//qX3Qp0xwxlMhkzJjDz29/+1m4F4Np5oTszi6rZVWOi8Ew/TA/YtQ64x9jWrdV5jdpN6Iy5+Zir2BXXuApPH+jqkF0FgD5n6skfM11elz61JtdO5cqqz4/YFQA4WqkHZwAAn5jbwHyri0FAYFMPJ/NqdBOgIThzaOam49XUim6P2Q0AgJhjG5xZlL77/ooG7SYA+JSYORUA+s6IrhfGVXtZ067d4gVsmqWX2+1u7+Gy5oJ97un5jt3FNGAnS9qIHuPui8ixpd3qveDYZnm4bgvse8J1o9m2g5ljm/ONpsfH37un53fDsmxp0243TJn5LtHvb75LVOL9+8oB4KQ6fP3o1uvN6vrYtuh7ux+6dPC1w7Fecs83us++45t9gvdHrlsAcAwRnAGAvmca4F4mTX11xVnKyhSv2UbwiG6bbU8XNKFZLbnlZkkOyzGBm0fKPPXen6sv6rHfiHYax9PF4fC95VlV8n4jeUSXclJlJXJDsNNQw/msS11kmtSc8zW9ruHxwxuIjdI1Fc+W7Xk/U2Ern2jAr6k445+7U55d1o+R8t3qnyLvNwvZQwBOh17qx8Fz5zVRf6vVSMDjfWNNE5cnbKZJq2tLB1peO6xKXtONG165c51S8U9huek4yG+r4J67ef+w810IrgM4vgjOAEC/cRqs94tryt20qdo7Nb3Wgr4L0sm9zJpYwKQDubIfsPECLo1fTQPeaZz/tKyJwjdhQGNsXku5Nb1+5zXwR79e0ETlTdgb++6tFN2/E7lymA4/dkE5besXt4G+qVeVWS0FcwQM6OrN2UTWUPTcBzR5eVy1xnt3eyByfodRyYc9v932HAPAp9Fj/Th0Rbcidbl/vFt+XdzTtaX9tcOVXVDVP/+hCV3MrqnxwVv1riXfhh0JY9+4waVXnQaHjPqipoPMGwI7AD4tgjMA0BdM76dtYM4sKlOOzIHyYVu1WAN0StPFNVvYqXimy+j8SmzugMxX4et93Aa132De0+pL6eK5Fvt3xDbQ3Syc6HAsZ8kve7t0aHD6gXNDEB6j2+CK+S28XmOzeD3HBGgApO4I6sfRqUgwZ/2NKrkLYTDlCK4tLa8dB/A6BrwsHpNVGXy3yWsq1t2izgxd0Q9B3b2iamHb+a0I0AD4dAjOAEBfME8IChuZ+yanNb2PkUaouxzhEyn8xrJnT79s2ZcurzfW7U11e1rPazI2ZOowxpX5wr6MDceyS5cTPIYBll6DK15WEQAcDz3WjyZT0Q5t2lhZVm4qcd3o8drS+trRXDSgY55MGPtsZzns5OzuMC77GgA+BYIzANDv3Mb1ou63CjgMZZRRl+ngLpsGX3wS9jauP1GxHkl9d7iN3q2GNt69VcYfbnVIG6W8Klkb4LFZOXOxSS578aUyWfvyMNZLmquMH0FmEAD06EjqRxNwNpmKm3q1taDr0cBHJ9eWA3V27Yhy5wdzyv0sTjerJzoHTU/29HxxUbVoZhAAHDEepQ0Ap537GOzoo7SbMU/UyKti14xcdOiTYZ56EaS8m0wcezz3+K0fs22ephGms0feG2GetjRn5j/ocsLd+LEdpqc21vNrJqWMp7Ob3lRv2JVX1rgZflf3eGaCSbd3d/97zfw2nff8Jn/X7r8fAHw6vdSPlnsNWJSC90W1urbsLzPCz29z7Yhdk4wm9Wsn+xwgeW2JnhcAfAoEZwAAJ1rTmwUAwOlmAi8/DSeC8QBwcjGsCQAAAAAAIEUEZwAAAAAAAFLEsCYAAAAAAIAUkTkDAAAAAACQIoIzAAAAAAAAKSI4AwAAAAAAkCKCMwAAAAAAACkiOAMAAAAAAJAigjMAAAAAAAApIjgDAAAAAACQIoIzAAAAAAAAKSI4AwDAgfb0/O6U7lT37DoAoDObejg5pYfrdhUA0BLBGQA49bwGcjax0GA+AXZe6E7073b3hXZtEQCgBepPACfMmY8O+xoAcKqZIE1eKq/o9pjdhDZM5sw1vb78TD9MD9ht6dkoTWlOZdXnR+wWADiujtc1h/oTwHFH5gwA9Lnd6r19PYr7tq2Xwt5HZ4ll3Ziy0qb3HlueHAYULYu/v1naezep8Gbfkp7b49+pbrrDkLKT9/R8x+5ihyYFn5/4rqbBbs43eo4Hf7Z3blnnMzfslnCbt8S/u/fZ5njmc7x9oufWnS8z4/YVAPTIrbtfhHXmus00idWRrerPLus3P5MldowW9ae7v6lrI/sk6u9uUH8COO4IzgBAnxs8d14T9bdajTSo3zfWNHF5QoPumtMwXrmg+uqKt5RnVclHgxOOSl7TjRtBea34JCx3bgCmi8Nair3fb8CP6FLOefvKprura6ehhmZ1qeOe1mUVzWe7n5tX4+aKlnJrev3Oa+TvVp9IC/azV5+poEXdTwSPasVrwflXC+Oq/NTsBsDcIDjHLzxz9pvXqLvN3Jz428zxy8o4x0oGdyr5Kf2Y8fYx51b8OfJ9O7an1Zdryk3R6wvgiFQWgzqzmN/WLacOy0WuB53Unx3VbybQMrOoTNk5zvdX7LWlk/pzWXOTj5R56pXn6ot6fGDwvBXqTwDHH8EZAOh3Q1d0KxLMMEGIV5VZ3QqG8YzodjQNfOyCctrWL9He0eyCqv4+sXKn8f3TsiYK39hghmNsPhY8Gf16QROVN0EwZ/fdWym6f1vjKnxtP9s5j+uJoM7g9LyuDtkVDWjy8rhqjfd23Yqcvxes2lZ8j1oQmIkNb9qp6bUW9F3kt7pugjvRYJORKwfvG52albYanff+BllL11R0Piv5/QDg0CJ1ZqyetjqqP9vVb7+GgZnY8KYO689c+YE9By+Y3/g1HhxqifoTwAlCcAYA4Daoay9rXoN6/Y0quQuxRnqYsm6WvCp2e6cyX0UCGklDE7qYXdYrtzfU9G5KF8+12L9biUkhp4trtiAUZgk5hq7ohyAzxlMrLjrfeXz/eX3YVq2+qOk2x4/11o7NR3qOO2D2d3uVneXmtvNZiawlAPhUOqg/29VvFaf+rDXLhuyo/oy/b3R+pbv5v6g/AZwgBGcAAE4D9kKQyr6xshxrbJu5WOYqs+GwJJNabss6Fe/p3NMvW/aly+uNdXtL3Z7U85oMemp7tamHM4tSkDbvDVvq1oTz/mpBKs40adibrJvgt7HLp5pwslnWEgB8EkdTf+bKZrjTsuaazRdD/QkAAYIzAACHSRdfU+PDpl5tNUn9zg7rS/tyo9RN5oxNg4/NQfNExXp02JQdSrTV0Ma7t8rc7CKrpENB5s7OC91v0vPbicHpB/tvMNyg1v45GD6V3eojVbJHGbwCgNaOov4cnffmq5kuRYYsUX8CQAzBGQA49fwnXXhBFTN5o0kfT05aa+Z+aeTzakSH+DgGp2+4DWg/9fzHzEJXmTMmqFEtbGvOvj+b31bhaXzYkDvvzdlFzRWHu5gIuBN2DgP7nbMz27p4iJ5fX3CDETyRZES37SSW7vHtkvxtDy2YL8Fbpl+eV7WbIVEAcGhHWX8O6Or3ZeUqeedYfgYi9ScARJ356LCvAQAAAAAA8JmROQMAAAAAAJAigjMAAAAAAAApIjgDAAAAAACQIoIzAAAAAAAAKSI4AwAAAAAAkCKCMwAAAAAAACkiOAMAAAAAAJAigjMAAAAAAAApIjgDAAAAAACQIoIzAAAAAAAAKSI4AwAAAAAAkKIzHx32NQDgVNrUw8m8KnbNlyuv6PaYXUE61kvK5pftSkSurPr8iF0BABxkt3pP08W1fde0jdKU5pIXPgfXPgDHFcEZAOgbXpBGNEyPsT09v3tNry8/0w/TA3YbAGA/v75cUKa42P7atvNCd2be6uLTB7o6ZLcBwDHCsCYA6HOm1zF794V27bqxb5vJ8JicCpaH63a7YcpKm957bPmd6p4t9ETL4u83AaPE8ZpuO5g5tvk800u6//iGacCHZfHvasru6fmO95nePiVt2FJP4v3Odw15Zebzws83x7PF3dqp6XV9VrcIzAD45A5R/8XqT/M+Z38T9GhabkSPnbw29FZ/7lb/pMbNFf0wnbFbWtt991a13A0CMwCOLYIzANDnBs+d10T9rVYjDeL3jTVNXJ7QoLvmNK5XLqi+uuIt5VlV8okGfCWv6caNoLxWfBKWr5c0XRzWUuz9fgN8RJdyzttXIgGPnYYamtWlLrJ7asVr+jHzrOn57VafSAv2s1efqaBF3Y/dIKypOPNImafePku5Zc1FAjAbpWsqni2H79/K7ws+VfJTwecv5Zzj/RwN4HRu4+dFqfCNRu06AHxareu/9vWns//Mtm41LTfBl7waBVs3r5aVcerqZOD9sPXn4PSDLrJAN/W46FSvXzNcFMDxRXAGAPrd0BXdchrEr9/5DepNvapEszdGdDs6/8nYBeW0rV+ivZvZBVX9fWLlTuP8p2VNRAMOY/NuA9z/vNGvFzRReRMGU9697T5AkSuHw4AS5zc4PR/pKR3Q5OVx1Rrv7bonVw7T3EenZqWthu399X6LpeD7D+jqzVnVXtbivcORz4+/vws7L/Rj7HcHgE/v4Pqvk/pzXIWn87a+TpSbTEAt6LvIteR6YTwejDeOov5sY7f6SBWyZgAccwRnAABugzgIOKy/cRqxF2LBkeiQoWyTyYXbyXzVIuAwNKGL2WW9cntT97T6Urp4rtcAxZoaH+zLaMq9s5iJI9uqb8u9vXCzeJY1F3l/swl8c1PR4NW86t9fsVlHnTNZM7XE7w4An51f/xmHqT/94MqHbdXqi5pu8/6jqD9bM1kza/HPAYBjiOAMAMDLNrFDmzZWlmONWDOny5zJHnHT0r3U9Jwt61Tj12ga/J5+2bIvXV5vq9ub6va0ntdkz72b48p8Yf67qYczZqiQn1a/omph3N2jpeywvrQvpeh3t8tR3zy4WTPjpNwDSF9Q/x2y/jybCetHk1UZrTvN8pmfROdmzTjncZ2J8AEccwRnAAAOM/eLyTbZ1KutJo3YSLBio9RN5oxNc4/NQfNExcSkt+68N1sNbbx7q8zN3gIf7vll4wGeIHNn54Xut+z5dW5G8svhfDs2qyc6B8On4GXNkHIPIE2J+s/quP605UFw3w36J+eo+dxs1kyP1xUA+BwIzgDAqec0uN2Uci+oYiZfNOnlyUkZzdwvjXxejUTDfHD6htvA9lPTf8wsdJU5YyZtrBa2w6FB+e3IHAWWmffm7KLmisNdTQQcqOS9YzvL3NaCqkFmi53jwH7n7My2Ljbp+Q3Knd/ITF4ZPsZ6QFe/9yYB9o9vluSEwD1ZL2mOrBkAKTm4/uuk/jQTCvvli8rEHmc9ott2EmC/7jRL8tpzaMFTBA++tnnBerJmAJwMZz467GsAAE4cM+zKfVLUoVLlzdNErrmPY+38qR8AcBr0Wv+ZwL950lM4oTAA4PDInAEAAAAAAEgRwRkAAAAAAIAUMawJAAAAAAAgRWTOAAAAAAAApIjgDAAAAAAAQIoIzgAAAAAAAKSI4AwAAAAAAECKCM4AAAAAAACkiOAMAAAAAABAigjOAAAAAAAApIjgDAAAAAAAQIoIzgAA0ION0pSyk95yp7pntwIAAACdIzgDAKfdzgvdscGDQwcR3GOUtGFXERqdX1F9dUVLObvhmIkGj7J3X2jXbvftVu9F/m3wNwb6x6YeBv/v26W0acs6tafnd6f0cN2uAgAOjeAMAPSFcRWeekGE+mpZmeI1sjz6wXpJcyrbv/szFbSo6ejNl1M+XRzWkltuAkzLmmsSwAFweuXK/rXBqSO28ocI0AAAjgLBGQDoOyO6XhhX7WUtchMe70ENAzd2+8yianJu3IN97un5jt0lyKqJHCNxgx/Pzoj2snrvife6NtvW2sHZH6ZX15xr9PtFytdLif0d+7Z5PcPB8bu9cUlmLsXeb87L+azoPsngiHs+/vsjv3snxuZVnx+xKwOavDwubTXs8Z3v9dOyJgrfaNRdl0a/XtBE/a1Wu/kMAKfEgK7enJUqbzqq/7ysvGsq1p235MN9wutHmFUTZvAl6rAD60fvvfFOhGbb/Pq/y7oRAI4hgjMA0PdMgzevRuGZ7T31Mmu84MiIbpttT52bds0GGRb11Qe6OuS+2TKBm0fKuNk5ZeXqi3rsB1cS2Rn18qzTkPcb0iO6lHMa9iuRgMVOQw3nsy6N2fV2EsevFrYT2R9rKs745/ZMheyyfvQb92MXlHPO/VUkELT767aUuxAELDZKzs3H2Uj2yVa+i6yjTT2cWVQm6Jl2fptK8v3ObzezrVv+8bWo+365uXHJb4dZT+Vh57skgkmH9l6N+rgunhuw69651pzfq/HBbgLQ11rVf96QTlOnRrNvVvTDtF+neEzg5seMd31Zyjn18c9+fd+qfvSCyfFOhGSdBQCnC8EZAOg3zg3//eKacjevaNBdr+m1FvRd0KD2MmtiAZMO5Mp+wMYLuDR+NQ3svX3ZGSabwzTQX7+zDXyTrRHpqd1991aK7t/Gxsqy89nzwf6D0zeUS2R/hOdmG/yN9+72/d91T6svnY//2s822dSryqyWItknpmc5fsNwsN3qI1WyC7oeBJpGdLucfL8Zcuaff/z8vN/i2zAQNvaNG1yKBpM6lvy7B7ze6OxkXnJukszcOd7fDkB/2dTDfLS+7q3+C+TKQcBmdGo2yN5rVz/uq8vX36iSu5HoGDD7PdD+DgMAOHkIzgBAXzDZIzZt3PZU3vYbxB+2VasvajqSWj7t3MR3J57pYnpUo72nma9a9HQOTehiEHDwgiOd94zu6ZeteEq9CTJUbGknBs+dD4NDbqDqvCb9Rr6bxRMdzuUszs1LV85mEsGQDtibl/eNNdWK1yLfzRtC0D2vh1qFZ+Hf3WX+XVxT46bXc317zPs9W/69AJwqYf3pZVAGdfdR1H+O3JQf3HGYoZbfRwLELetHE+gPA/luID56LAA4ZQjOAEBfiE4IHAnM+LILqtqyYAl6S3sXz8TwAgAhL1vEzV5JBkc6FE2p95YuelEjwSE3U+XyROJmITqcyy7Rm4t2gjlePO6wqXYiNywTwXCzcNn392tpUw9NwCrSe+35Upmsd/zweN6wgcwXdhXAqddqSFLP9V87bepHk2njZdJ4WTwdD3cFgBOI4AwA9Dsz70o9Ms9JM0MZZRJzs3TGDtMpPgnnSVl/omJ9VrciNwFu9orTSN9491aZfcNuWrGBnXwv87B4x2j8uqnVl8Ox8/IDN3OHfHqJ+72i8+84NxiPmw4tsvyhR7Z32L0xKf6ph4kuw8DM/mCb/7cJj+8NM+g+OAbgFOqo/hvQH84m5g3rUEf1o3t92tb79TdqHDDclQmBAZwWZz467GsAwGlkJpWdeauLT1tlk9ibeLtmmN7UWIaGeWpQkNJuMnHs8dzjmwltw3lfkkzjORwqFXlvhHmax5yZ36DFcQ4SP77DZAK5vbtmPhVv2I7/Xdx9GzcSwYpWQQzvGNHhRCbbxOth3v+7GWG5w/19zES7nlhZ17+70flvtO93saKfEdsn+N0AnH5e/WPmmorVOTGt6j9fvB4Ly/fXv/u0rB89Xh2lptcNo105AJwUBGcAAEiNuakxT5LipgIAAKCfMawJAAAAAAAgRQRnAAAAAAAAUsSwJgAAAAAAgBSROQMAAAAAAJAigjMAAAAAAAApIjgDAAAAAACQIoIzAAAAAAAAKSI4AwAAAAAAkCKCMwAAAAAAACkiOAMAAAAAAJAigjMAAAAAAAApIjgDAEAPNkpTyk56y53qnt0KAGiH+hMAQmc+OuxrAMCptKmHk3lV7JovV17R7TG7gp6Zm4wfM8/0w/SA3XIcNPnbZxdU/f6KBu0qAKTteNafe3p+95qKdbuaK6s+P2JXPLvVe5ourtm1WS2tzmvUrgFAt8icAYBTb0S3V1dUXy0r56yZoEzdWScw0y/MDYP3N3cXAjMA0NZu9U96ffmZrTud62clH8/uWS9pujgc1K9LuWXN3X2hXVsMAN0iOAMAfc70/GUTDcp925xGqJ96bpaH63a7YcpKm957DkhPj5bF328yOxLHa7qttfjxS9qw272ez3t6vuMdc1+5+72i+zv2bTPH8N/rLM537crOC90JPjv5fnNezmdF90k27mO/vfkudjsA9KxV/da6/uzo2mHrc//43Q5dOvja4ejg2tNL/Tk4/SCSyTOiSzmp1nhv153f5qdlTRS+CTJlRr9e0ET9rVapowEcEsEZAOhzg+fO72tQvm+saeLyhM2wcBrXKxfCzIvyrCr5RECjktd040ZQXis+iQVAor2L3vv9RrLX4K2sRG4IdhpqaFaXOs3sSRy/WthO9F6uqTjzSJmnpvyZCtll/eg34McuKKdlvYo0+Hd/3ZZyF4IG90bpmopny965m/dvJXpPW3J+u5lFZWy2UtPeV+fz52a2dcs/vhZ13y83QZv8tgruuTtLedj5LonfHgAOqX39dnD92f7aYYI7eTUKYfZJpnit88B7y2uHFb32PF2Qin8Kyz9p/flejfq4Lp7zgzdeXV9zfq/GB7sJALpEcAYA+t3QFd3Kren1O79BvqlXlVndivQY3o6Os3cDGtv6JdpANvOY+PvEyvf3LmpsXkuRz3N7Gytvwt7Yd2+l6P5tbKwsK1cOx/kPTt9QLnHDkCs/0NUh82pAk5fHI72fI7peGI8Eh/a0+tL5+K/97+v9FkvB9x/Q1Zuzqr2sxbNbDrBbfaSK89tcDwJNzm9pglex9487Nw/++cfPz/stvrXn7hj7xr05igaT2lvW3CF7jgGcZp3VbwfWn+2uHTs1vdaCvotcS+L1bSvtrx2u6LVnaEIXs2Fw5GjqT2u9pLmKU1cH1wafCUCZujUvlc3QJqnxa+T8AKALBGcAABqdijTI19+oEskcMaJP1DCN0OTkwu1kvvIb5024DWq/wewFR8LeyHb29MuW6Tw9/Pm5vb9+cMi9mTivSb8x72bxRIMbzpJftoUdOpvpfo6XrYb7tzC90LXitch3i0xO2RF/vqFozzEBGgCOI6jfWl47PmyrVl/UdOT44eS5nWl57TiAHxzpvf603Awc0wngB6l8Jqvomho3vfr19ph3PTrMOQOAQXAGAOBlu9hsEzcTZSrsHTTj+edM72pwk+9NLNyNeE+i14ANeb2xbm9qMjjSIX+S43BJNqJbiASH3J7WICXfl5hQ1yzdTKprAy0+d9hUO5GAzkQwJCBcDj2Zs5vVBAC+Huu3FtcOl8lsSR4/monZRutrR3PR4EjP9acJzMwsSs5x4u/7Upmsd/xwuzfUKfOFXQWALhGcAQA4zNwvJh18U6+2osNwrOyw0xT1bJS6yUyxafCxOWieqFiPDpuy2StbDW28e6vMzW6eJmQDO8k5cLriHaPx66ZWXw7HzssP3Mx1Owmw5c3JsKjHQRr9ph4X15Q76Ds6NwL3Tbm9wXF7paNzKPTI/dtluw9+ATiFeqzfPC2uHW7gJjKHVlc6u3ZEmacrmXJ/vrKe689IYGb/I7798wuP7w1jpX4FcHhnPjrsawDAqWSelrE/oGKyTWI9gQc2ROPvnygsKFN8q8xTm51inobx07CqQW+r2d9MIBlmr5jsmzCd3cyxsj+zxQyd8jJ0wvljOhU/vsP01rrnY+YD8NLO/e/q7msmkIz13trvmCs36dX1jhFNhze9pd5v1Py3Dcsd9neteWvxsibv3/d3Mb9vbKhBF79R8r1Nvx+A/tWqfuuw/mwZxGhVx7WvP1teOzqpG3uoP71rkl0JxM8hdn7BdQcADofgDAAAqTE3J/FAFgCgA/s6BgDgZGNYEwAAAAAAQIoIzgAAAAAAAKSIYU0AAAAAAAApInMGAAAAAAAgRQRnAAAAAAAAUkRwBgAAAAAAIEUEZwAAAAAAAFJEcAYAAAAAACBFBGcAAAAAAABSRHAGAAAAAAAgRQRnAAAAAAAAUnTmo8O+BgAAAIBjYFMPJ/Oq2DVXdkHV769o0K4CwGlCcAYAAADAMWOCM290aXVeo3YLAJxmDGsCAAAA+s6ent+9p+c7Jggypay7lLRhSz1mH7/MWUqbdrth3ufsv/NCd/zyuy+0a0s90WM3KwcA+AjOAAAAAH1pTcWZR8o8XVF9dUVLuWXNRQIwG6VrKp4tu2X11WcqbOV1p7pnSw1n/5lt3XLLy8rVF/V43RY5Nkp5NQrP7PudhSFJAHAggjMAAABAn8qVH+jqkPd6dGpW2mrY7JZNvarMaml+xF2TBnT15qxqL2uR7JdxFZ76w45GdCknNX6NBm+U2L9by5oLMm9Mlo/dDACnEMEZAAAAAJ76tt6b/+401IgFR5wlv+zu0qnR+WcqaFHT9v0PI1k17Y3otp9xY5bysIozBGgAnF4EZwAAAAB4ssP60r6UZrUUDZCYpauhSQO6+r1939MFNfLdBmgixi4oZ18CwGlEcAYAAADoe5t6mF/WxOUJL/gyNKGL2fgcND0ZyihjXx6Gmb+mkj2vSTsECwBOG4IzAAAAQJ+q5P1hS97kvT9MD9gSk/XiTQIcDGtylviEwK0kntRkj397zBa3s16KvHdKcyozoTCAU+3MR4d9DQAAAKAvmMdkX1Pj5krnARMAwCdD5gwAAAAAAECKCM4AAAAAAACkiGFNAAAAAAAAKSJzBgAAAAAAIEUEZwAAAAAAAFJEcAYAAAAAACBFBGcAAAAAAABSRHAGAAAAAAAgRQRnAAAAAAAAUkRwBgAAAAAAIEUEZwAAAAAAAFJEcAYAAAAAACBFBGcAAAAAAABSRHAGAAAAAAAgRQRnAAAAAAAAUkRwBgAAAAAAIEUEZwAAAAAAAFJEcAYAAAAAACBFZz467Oue7f7f/2dfAQAAAAAAnByD//5/7KvP70iDMwAAAAAAAOgOw5oAAAAAAABSRHAGAAAAAAAgRQRnAAAAAAAAUkRwBgAAAAAAIEUEZwAAAAAAAFJEcAYAAAAAACBFBGcAAAAAAABSRHAGAAAAAAAgRQRnAAAAAAAAUkRwBgAAAAAAIEUEZwAAAAAAAFJ05qPDvk7FP/7xD/31r3/V3//+d/3rX/+yW4Hu/OY3v9Hvfvc7/f73v9dvf/tbuxUAAAAAgOMv1eCMCcz8z//8j/7zP/9TAwMD+rd/+zdbAnTnn//8p/b29vSXv/xF//3f/02ABgAAAABwYqQanPnf//1fN9vhP/7jP+wWoDd/+9vf3Cys//qv/7JbAAAAAAA43lKdc8bcRJuMGeComH9P5t8VAAAAAAAnRarBGTPHDEOZcJTMvyfmLgIAAAAAnCQ8rQkAAAAAACBFBGcAAAAAAABSRHAGAAAAAAAgRQRnAAAAAAAAUkRwBgAAAAAAIEUEZwAAAAAAAFJEcAYAAAAAACBFBGcAAAAAAABSRHAGAAAAAAAgRacgOLOph5NTykaWO9U9W4Zja70U+5tlJ0vasEUAAAAAAPSTkx+cWX+jRuGZ6qsrdikrU7xGgOZY29PzlWFVg7/ZipZyy5q7+0K7dg8AAAAAAPrFyQ/OjM3rh+kBu2KM6HphXLWXNW70j60BXZ2/okG7Zox+vaCJ+lut7tgNAI7Q/gxDszxct8Xo3c4L3TG/a2nTbgCA425Pz+/uvzbQwQkA6Tjz0WFff3Z//vOf9cc//tGuHZ3d6j1NN26oPj9it0gbpSnNVeyKI1de0e0xu2KG2OSX7Uqcu98XTqN75q0uPn2gq0O2wHDfJy2tzmvU3WBugPIKP2Zchac31JiJbvOZMud4H5xj/DSs6veRYIU9H/ezdcC5ZRfc97w330vl2Hc90EHf0x7LfL772xXXvO2O2O/kMhfyayrW7aojVy5L+RbfMfqbHcTc2DT7jQ/hU/27Ak4+r47Svv+v0Qu33nx5XoWziyp2Wh8DwLHhte1eX36W6PAEAHxOp29CYOcm/35RKnwdaRw7215lIkOfyrOq5O/peSxLY1ZLkWE2ZnhUzpZoaEIXs2t6/S7ek7CxsizlLniBGbfXNB8bYlUtDDsFI7odrI+bSIYtPygI4dw8RQMoY/N2/2cqZL1gibseDeZ0qs2x/BuMYLjR0wU18tHedXNjd03Fs/53cBbnt+z+O+63++6tatnzmuwxMAOge+b//WxiWOG+bYl5omJZN6astOm954Ce12hZ/P1eVk88i6fZttbix0/W74ne4X1DKNuVt2CuOaYzwKlH/2A3AcCp4Nb7iTkB923z6uug/oxlD5oyZ1+3jXxA/Roti73fq5fj15Jm2/z6P1nvA8DJczqCM9GKvVn2xdAV3Y72BIxdUE5ranyw620N6OrN2cRQqU29qowHQaCNnxdVy5VjPQ6D0/NdZ4FslPKq5Bbc4MnntanHJqi1EAn6OL/brZxUWfEulLvVR6qYLJtor/DYfO898M6F3mTr5G4eIuAEoGeD587vG1b4vrGmicsT9v9Jp4G9ciEWlK3kEw32St7LWLTlteKTsNz9f3w4DIDHAuQjuhSpZ1w7DTU0q0ud1i3ONeCxvg3Or1qQiovhDcBu9Ym0YD/bBKe1qPuRxn278pacevIHMmUAnEZue3lZryKB8t1ft8OOScdG6Y0u2brX7dh0rgXxwPqy5ma2dcsvry/qcTQ4P7OojN9ZaN/vBV8GNHk5OU3BezXq47p4juweAKfT6QjOmMZxcGH4VlqMRt6tWGS+2RCcNswFKnrzsv5GlSDTY0+/bDnXqqkeG+jODcxcZVZL8xN2Q4ecC1nQ4+Ashxor7N4Mrak4Ex7HLNGhYPGbtaNhhptl89sqPGWYBZAaNxAbzQ40wedZ3QqCzSO6HQvKmgb7tn6J9lJGA7ex8j09/2lZE4Vvgsa8CeouRT7PnXOq8iYI5phMOkX3bycRgPeCTdtOM96uxwLltsHf8EvblwNAf/LmcQyD53tafRnPTh+d94f2G16wvfFrtB1qhrj7+8TL/U6/60H7z7nWmOC+DcgMTt/Y3/bO3djX8Tk4/cBp//c+LB4A0nb6hjWZLJcF09B/FKQ3ugEAN6MmEpn3irpgLijhzYQZ0nS0mR6b7nCmXDl6ketQMIzIWZ4uSMVrXQ0HCCWHdtnlk/QKe6mpc1vODR0XVCB1o1OR7EC3ARz2jBpuPRoEbrsPcGe+atHT6Q4d9XtnvcZ/dz2jiWFJM4uq2RJXIm0+Oq+Wq105APQpN9jtB893anqtxBB0d5hTWH9GO/U6cjbToi3dpO3da0coABxjpzA4k2R6gE38ovcAgOndlXvz4vUqhyn3A/rD2URafpdW3eFM5d6zR9ybHPu6G0MZZRKpq0lfZo7qKVjmRsrOXXOYuXMAHL1IdmCyAWzG87tZfUHQtvsAd7wn1cs2DHnZKm4d2qzx38ZGyalPZAK99vyeLijMP/TS5hWbD2zclhntygGgj0WC525WYzSD2gS27QMs/PpzqduLw1Yj1q50h01FhB0HybY3AJw+Jzw4Y27yE/MemG2LZv4XP+3xS2Wy8RsDd14X+7or5gIl5+alur9X2UvL98fJenarpc4mJ6svqugOZzqC3gBzY1MfV+YLu94xO+9DYh6J6Hfw0ksXNR0dMrZe6j5Lxz3HI/q+AI6I10PZ+OA0gLeiaeZWdtipTT3d1aF2mFBsDponKjp1QDhsyvbOOo30DafxnzlMVmLQ+2qvAe7rUJC549xM3G+SGdOuHAD6k1eHN37d1OrL4Vi97Ym0Od3h+fZ1B7whqPE5aB479W8sM93tONjW+/U3ahww3JUJgQGcFic8OGMuGNuai6RTZie9RwGGQ3G8YU5mqI+/z6upwwxrMsznOYcqbsefBmWYeW/skCL/c6adi1invb+HGs7ki8454/YAf3uoLKHRedPjsRz7PacbFyLHMk9l8iZrCz4vr+57MT5sOzdO8c8JluRcQQCOwKZ9moYXVKnkvf/fkoFVE2Ru5PNqJOaWCgKz9v/THzMLXdWhZj6AaiFSV7vzTCXqPDPvzdlFzRWHu65T/OC4V49cc84/mjlj50yw3zk7s62LscyYduXt+L+tTef3z4O6DMCx5w8JvaZiXarZNmxy7kJzDcgU8yqejXdM+vOVBfMV/jSsQjcXB9t2Nk8Gdd9vn3oazyI3dbRz/XCuG0wEDOC0O/PRYV9/dn/+85/1xz/+0a6dDCY67z5umuE4x9ZJ/HcFAAAAAOhffTDnzFEyE1Ue/ROLAAAAAABA/yI4040m8yQAAAAAAAD0guBMR+ycAs3mSQAAAAAAAOgBwZmOmIlwzSMCe38cNwAAAAAAQBTBGQAAAAAAgBQRnAEAAAAAAEgRwRkAAAAAAIAUEZwBAAAAAABIUarBmd/85jf65z//adeA3pl/T+bfFQAAAAAAJ0Wqd7G/+93vtLe3Z9eA3pl/T+bfFQAAAAAAJ0WqwZnf//73+stf/qK//e1vZNCgJ+bfj/l3ZP49mX9XAAAAAACcFGc+OuzrVPzjH//QX//6V/3973/Xv/71L7sV6I4ZymQyZkxg5re//a3dCsC180J3ZhZVs6vGROGZfpgesGsdcI+xrVur8xq1m2Ctl5TNL9uVcRWePtDVIbsKADjQRmlKcxW74orXobHy7IKq31/RoF0FgNMm9eAMAOATcwMrb3UxaPBu6uFkXo1uAjQEZw5gfss3umR/l93qPU0Xh7XE7wQAbZngy6upFd0esxuiTOB75YLq8yPOyp6e372m4tmyXQeA04eZUwGg74zoemFctZc17dotXpBhSlm73Kn684HZ7W7mzbLmgn3u6fmO3cUEbiZL2oge4+6LyLG9oIV/bLM8XLcF9j3hutFsW2vx40fOzWUa9eFnJ8+tfXkrI7odCcQMnjuvCW3rl9jnA8Bx1Wv9GL92ZEubdvsRGJuPBGIGNHl5XNpqdFE/A8DJQnAGAPqeaXx7mTT11RVnKStTvGaDIyb44Gx7uqAJzWrJLTdLcuiOCdw8Uuap9/5cfVGP/eDKeslmk9j3lmdVyfsBlBFdykmVlUiDfqehhvNZl5r1pDaz80KP9a09rxVVC1JxMbyB2K0+kRbsZ68+U0GLuh8En9qXA8Bp1Wv9uFEymYN+uVP3V/JdBdYBACGCMwDQb3Ze6H5xTbmbduz+Tk2vtaDvgiFOXmZNLGDSgVzZD9h4AZfGr6YBv6fnPy1rovBNOMxnbF5LuTW9fuc18Ee/XtBE5Y023DXnZuDdWym6fztDV3Q7MjzLzV6pb+u9vz49Hwkkeb2vtYZf2r68c853XVxULXcjEbgCgOOp1/pxdD46hDNa93eukg8zb8KszYTkdQsATiGCMwDQF9ZUnLEN4JlFZcqRMf4ftlWrL2raT0t3lmmnEdydeKbL6PxKbD6bzFct5rYZmtDF7LJeub2te1p9KV081+FcOK5E2n1i8mNv2FWL79auvEMbpWsqakFV5kMAcFL0Wj+aeWEi5XOxyX3bM9cKL+vGy7wxWZv7AzSbeujU6yo8az43DQCcEgRnAKAvmCdghI3gfQ1c8xSMoIFslyMMMsR7Uvf0y5Z96fJ6Y91MHTeL57wmu8g8CYIi/nm7Q7B8YaPe/17VwrgtM9qVd8Z7osislniSCIATo8f60QRu8svKlb0ysyzlbNmheJk3cc45TOZVyZW7e8IgAJxABGcAoN+NXXDniGk5z8pQRhn52S3dsGnwxSfBsCWtP1GxPqtbyaFIWw1tvHurzGHS1s9m7Hvs0CL3dSjI3HFuJkxqfFK78laCwAxPaAJwAvVWP44r84V9uV7qOnMmxn3/eCRzMgzM8IQmAP2A4AwA9D0z6a+XTh5NT49P6ujs407k65cnn4h0sMHpB6oWtsMnPeW3VXiaCGQMXdGts4uaKw53PhGw5c1Zk7fndU2Ny9HMGTt/jn/eM9u6GOsZblfehnOz8qN7MxJ9kpWzHOUTSwDgk+ixfjT1di4yZPanYRW6ypwxwRf7XrPkpaXIZPO71Udyq9egfvcWJhwGcFqd+eiwrwEAAAAAAPCZkTkDAAAAAACQIoIzAAAAAAAAKSI4AwAAAAAAkCKCMwAAAAAAACkiOAMAAAAAAJAigjMAAAAAAAApIjgDAAAAAACQIoIzAAAAAAAAKSI4AwAAAAAAkCKCMwAAAAAAACkiOAMAAAAAAJAigjMAAM/OC92ZnFK2tGk3HMDdr6QNuwoAOIn29PzulB6u29V92pVv6uHkPT3fsasAgJ4QnAGAfuAHXoKFBvXn4d3c8LsDQBL1IwBEEZwBgFNvUw9nFpUpr6i+6i8PdHXIFvuGrugHUzY/YjegdwO6+n3kdy8PqzhD1hEAUD8CQBzBGQA47dbfqKJZXRqz601slMLeyzvVPbs1Yr0U9m7OLKpmN/t2q/fCcmeJpcEHw6BMCrzd5+4L7dpiI/r58d5T7z3xtPpm21pJ9M4mPrv38i58MawJ+xIAjodI3dx0yGqb8g+RzEzqRwA4NIIzAHDajV1QTsuaazFPzOi813O5lLMbokxwJb+twlPbu/l0Id6AXi9pujispaD3c1aVfDI93Xz+I2XcY5SVqy/qsQ2umMDO3NaCqvb91YIivacjuuScU2UlMg/OTkONNsGmqN3qE2nBntvqMxW0qPuRAFSv5d3YffdWtdwFjdp1AEhbJe/XzeYa4NTViXnHWpevqehcH25RPwJAzwjOAMCpN6LbfqPa9m52nnUibfy8KBW+3T8MyrWn5z8ta6LwTdigHpt3PmtNr9/FG+i5sj+Uygu4NH415Zt6XFxT7uYVDZoix+D0typkl/XKnuPo1wuaqLwJAkumAa/o57UxOD0fOfcBTV4eV63x3q73Xt5e2Os8XXRO/WuGjQE4PsK62alvp2alSH1rtC4fV+HpvK2Pbf34stZF9gz1IwD4CM4AQJ/ws2O8zJYDhi8dUuarAfvqIPFMF3MuP0z77xlX5gv7spmhCV0MgjV7Wn0pXTzX7vMiEpMhTxfXbIHVa3lbXnDMy7y5ocZMd8ExAPhs2g0talM++NWwfdUp6kcA8BGcAYB+42a2qMvsj9a8LBjfnn7Zsi87sqbGB/vS9V6Nun3p8npj3aFNOzW91nlNBpks7Wy6kyGr8Mw2/s2wqXFbZvRa3q1o1hAAHDMftlXLDutLu7pPm/LdX7els5kgE7I71I8A+hvBGQDoO5t6VZEmMgc2v2O+zETT1L1gRTghsE1jLz4J09zXn6hYn9WtIDOmFTunzE/hJJK71UeqZBd0PZJpM3juvCa2Gtp491aZyBCoTgWZPTsvdL9J5kuv5R1z3v9jZby7zB8A+CzsMNXLEwfUse3K7TDVqUMOTaJ+BNDnznx02NcAgFPITLibHIozUXgWGVZkxvznVbFrvnAf87Siayq62SxmfgGTev5Gl1b9eQaSn2H2iTyq22lw35kxE0aG+yeZpzXNBScwq6Um+3r7NC9rJX5usyoUtlVs3AgeGd5reWvJ3zbx2wBAaqJ1uyd+bWhXvv/akSuv6HaHk7VTPwJAHMEZAAAAAACAFDGsCQAAAAAAIEUEZwAAAAAAAFJEcAYAAAAAACBFBGcAAAAAAABSRHAGAAAAAAAgRQRnAAAAAAAAUkRwBgAAAAAAIEUEZwAAAAAAAFJEcAYAAAAAACBFBGcAAAAAAABSRHAGAAAAAAAgRQRnAAAAAAAAUnTmo8O+BgCcSpt6OJlXxa75cuUV3R6zK+jNzgvdmVlUzV0ZV+HpA10dclcAAO2sl5TNL5sLk+rzI3Zjk2tXdkHV769o0K4CwGlCcAYA+obX0BVBmaPl3lRsE5ABgEMx16ZHUk6q6EYiOPNGl1bnNWq3AMBpxrAmAOhzu9V7yt59oV27buzbZgIQk1PB8nDdbjdMWWnTe48tv1Pds4WeaFn8/abxnThe022txY9/T893bIFrT8/vhp+d/K7ty1tx3vsTgRkAJ1iifk/W3+3KD67fO7NRyquSu6HrGbsBAPoUwRkA6HOD585rov5Wq5GAxvvGmiYuT9jU8U09XLmg+uqKt5RnVcmXtOGWWZW8phs3gvJa8UlY7jTsp4vDWoq93w+gjOiS6S1d2XR3de001NCsLnWa3bPzQo/1bXB+1YJUXAwDLLvVJ9KC/ezVZypoUfcjNxftylvaqel1fVh6F7k56Sq4AwApMoEXN/PPrwNX9MP0gC10tCk3gZlY/e4sXWVmOsefq8xqKciWAYD+RXAGAPrd0BXdyq3p9Ts/ILGpV05j+VbQAB/R7WjDeeyCctrWL9HsFDMPgL9PrNxklixrovBNmJY+Nq+lyOeNfr2gicqbIJiz++6tFN2/Hef8b0duFrxg07be++vT85GslgFNXh5XreGXti9v6cO2alrW6yA45AV3pkuRYBMAHEt+/fztAZl/7co39bi4plz5sMOOvOO3fv+y5oKsnGRWJACcLgRnAAAanZpV7WXNy/hYf6NK7kKssbxR8hvHZtk/uXA7ma8iPbFJQxO6mF3WKzcVfk+rL6WL51rsv4/TwI8OSwom5rXMZL3BuU9p2rmZiGlX3k52Qd8FwaEBXb05K201yJ4BcMy9V6Peqn5uU+5mOY4r84Vd79Ju9U8qni23yLQZ0e1IRk69PKziDAEaAKcXwRkAgJftYoc2bawsKzcVZsqYtHU37TxoJJfNvI1dafwaHSa0p1+27EuXl63iDm0yw4R0XpNdzN+yUbqmohZU9c/v6YImbJk7JGtmUSo8Cxr41cK4LTPalbfxxXAsSwcATo4vlcnal021KR/K6PDTxJhA/Jo7JDYWGHfXDwjAuFmZAHB6EZwBADjM3C9ranzY1KutBV1P9mRmh51musedvNG+bs8OE4rNQfNExXp02JQdirTV0Ma7t8rcPMRjUs9m7Hv29HwxkTnjCHp+d17ofpPMmHblB7JZPz8Gc9TYYQDBfD0AcFzZwHhyDrFAu3LvuhGd46tzA7r6vQ2oRwPj5lHaq80nWHevPdnugvcAcJIQnAGAU897+pE/HKmS93opk0/UMHO/NPJ5NRKBhcHpG8rVFzVtezd/zCx01Xs5OP3AaXRvh/MGuJNLJuYYMPPenF3UXHG484mALW/OGr/39Zpz/tHMmRFddxr8/nfOzmzrYiwzpl15O+YGo6xM8Vrw+a8vP4tPqAkAx9S++tlZok9jalc+Or+iJafu9q8PZun2aU0HSjwlak5l1b8/RPAeAE6IMx8d9jUAAAAAAAA+MzJnAAAAAAAAUkRwBgAAAAAAIEUEZwAAAAAAAFJEcAYAAAAAACBFBGcAAAAAAABSRHAGAAAAAAAgRQRnAAAAAAAAUkRwBgAAAAAAIEUEZwAAAAAAAFJEcAYAAAAAACBFBGcAAAAAAABSdOajw74GAJxGOy90Z2ZRNbtqTBSe6YfpAbvWAfcY27q1Oq9RuwmO9ZKy+WW7EpErqz4/YlcA4Dja1MPJvCp2zdV13bWn53evqXFzRbfH7CYAwKGQOQMAfWFchacrqq+apaxM8ZruVPdsGQ5tbN7+pv7yTIWsNJH50u4AAMdbrhypv7byypY2bQkA4HMiOAMAfWdE1wvjqr2saddu8XpQp5S1Sxi4sdvdzJtlzQX73NPzHbuLyaqZLGkjeoy7LyLHlnar94Jjm+Xhui2w7wnXjWbbWosfP3JuLtOzG3528tzal3dhp6bX9Vnd6iYrCQCOhQFdvTkrVd449bkvUT9GAjcbJbPtmop15y35cJ/w+uG919Tl3r5mSdTP7vUjfG94fO+98U6EZtv8+j9Z7wPAyUNwBgD6nmnw5tUoPLO9p15mjRccGdFts+3pgiY0q6UgQ+SBrg65b7ZM4OaRMm52Tlm5+qIe+8GV9ZKmi8Phe8uzTkPeb0iP6FLOadivRHpqdxpqOJ91qdMUeadx/1jf2vNaUbUgFRfDAMtu9Ym0YD/b9AxrUfcjjft25d3Y+HlRKnzD0C8Ap8JG6ZqKZ8th/biVD4Ijo/N2WzaafbOyb8isCdz8mPGuL0u5NRV/9uv7TT2cWVQmeK9z7aj4xx/Q5OVkJ8J7NerjuniO4DeA04ngDAD0m50Xul9cU+7mFQ266zW91oK+CxrUXmZNLGDSgVzZD9h4AZfGr6aBvafnPy1rIhqwGJt3G+iv39kG/tcLmoj01O6+e9tdgGPoim5HbgYGz53XRH3bacbb9en5SCDJNvgbfmn78o45v+uPFbJmAJxUm3qYj9bXm3rl1GlLwRw0XmZNPGDSgVw5CNiMTs1KWw33/bvVR6pkF3Q9CMSP6HY5PP7g9A3l6m+16mfErL9RJXcj0TFg9nug/R0GAHDyEJwBgL6wpuKMTRu3PZXB5I0ftlWrL2o6klo+XVyzhZ2KZ7qYHtVo72nmqxYBi6EJXcwu65WbabOn1ZfqsmfUS3UP0uITkx8n0+b3fbd25R0yWTO13AWyZgCcKOGQJC+DMqi73SzG6HBWZ2k2AXobuanIBMNmnq7vbceAcTYTvt7HBPrDQP7GynL8WABwyhCcAYC+EJ0QuMlTNbILqtqyYDnCpw15WTS+Pf2yZV+6vGwVN1PHzeI5r8kuekDdtHtFzt8dguXz0uYVDNkyw57GbZnRrrxDbtaM8xt/zY0DgJOl1ZAkE3gPh7PaJRpc6ZXNovHt/rptX3lMpo2XSeNl8XQ83BUATiCCMwDQ78YuuHPEtJxnZSijjPzslm7YYULFJ+EEk+tPVExMmusORXIa6Rvv3irjD7fqRtD7uqfni4nMGUeQuWOHdCW1K2/Hy5rZn24PACeWzWqca/n0pgH94Wxi3rAOeUNQI/OTaVOPnfo3GHJruNenbb1ff6PGAcNdmRAYwGlBcAYA+p6Z9NebBDhIXXeW+NOSvLkAwvT3zhvCZj6AamE7TI3Pb6vwdD7eyB66oltnFzVXHO66Z9SbsyZvz+uaGpejmTN2/hz/vGe2dTGWGdOuvAPrJc2RNQPg1BnQ1e/t47X9+ttZkk9LGp33JvI9qPxATr3/w9MFNRLDquKZnaaOdq4fznWDiYABnHZnPjrsawAAAAAAAHxmZM4AAAAAAACkiOAMAAAAAABAigjOAAAAAAAApIjgDAAAAAAAQIoIzgAAAAAAAKSI4AwAAAAAAECKCM4AAAAAAACkiOAMAAAAAABAigjOAAAAAAAApIjgDAAAAAAAQIoIzgAAAAAAAKSI4AwAwLPzQncmp5QtbdoNB3D3K2nDrgIAAADoDcEZAOgHfuAlWO7p+Y4tw6eV/O3vvtCuLQKAvpaoHx+u2+0A0IfOfHTY1wCAU2lTDyfzUnlFt8fspl6YxvTMtm6tzmvUbsJBzG//SJmnD3R1yKzv6fnda3p9+Zl+mB5w9wCA/pS4NrnXlre6GNSXANBfyJwBgNNu/Y0qmtWlFoGZjVLYc3mnume3RqyXgvLszKJqdrNvt3ovLHeWWO+n2zNqhkGZhrjdJ5E9Ev38eFaP9554b2qzba2YgEjk+PsyV3otb2GnoYaG9YfgRmNAfzhrXwJA6nqt/yL1ulnaDYuN2K0+UiW7oOv+tWnoim7l1vT6XZNrEAD0AYIzAHDajV1QTsuaazFPzOj8iuqrK1rK2Q1RJriS31bhqbdP/emCJmyRa72k6eKwlkyZWcqzquSTw6bM55sMErNPWbn6oh7b4IoJ7MxtLahq318tSMUZ/1xHdMk5p8pKpMHvBjxaB5uidqtPpAV7bqvPVNCi7kcCUL2WtzQ0oYtZ57v7NzTObzVXGdfFc2TNAEhfr/XfRumNLrllZnHq9kq+u6FJZzMatC+NLzPjqjXe2zUA6C8EZwDg1BvRbafhvJQzARKvd7ObxvPGz4tS4dsD0sz39PynZU0UvgmHOI3NO5+1v/czV/ZT1b2AS+NXU76px8U15W5eCRrog9PfqpBd1it7jqNfL2ii8iYILO2+e+ucT+Tz2hicno+c+4AmL8cb/72Wtzagq9+vqHr5rabNb5+XllZJ2QdwPPRa/43OR4e3Ruv29gbPnXfq9kdhIH/nhe471wMA6FcEZwCgT/jZMV5mywHDlw4p81W7TJB4pos5l3DOlXFlvrAvm7HZJ16wZk+rL9Vd5ok7rCpMu59ONv57LW/JGxIw3bjh/vbVwrYbIOuqZxkAPpVe67/okFdnmavY7Z0YuqLv3ExJ+/5F6VZhXBOZL+0OANBfCM4AQL9xM1vURfZHe/Ge0j39smVfdmRNjQ/2peu9GnX70uX11rpDm3Zqeq3zmuw482RTD2dM5s8zm3ZvAiTjtszotbyN9Scq1me1ND/irg5OP3DfX/mpi3lrAOCT6LH+M4Gb/LJyZa/MLE2HxrZg6kT/vfXvrzgXk7UOgv0AcDoRnAGAvrOpVxV13DvpzgHwsmaDCV5jPZwQ2Ka5F5+E89nYgMStjp5GZOeUiQQr9k0S6XDT37ca2nj3VpnIEKhOBY1952aiWdp8r+WtbeuXYP4dk/njvD8xzwIApKW3+i+S+ejOqWVfH4KZGH5O5aN5qiAAnEA8ShsATjkz4W4yFX2iEH2U86b7ONNkmzrcxwzNuaaim80yrsLTG2rMmEkgw7kG4p9h9onMq+I06Ns9etttlAcnMKulJvt6+zQvayV+brMqFLZVNMOMbDZLr+Xt7Pv9c+WO3wsAn1Kv9V+s7s4uqHB2Ua8z0etLK/FrT/y6BAD9h+AMAAAAAABAihjWBAAAAAAAkCKCMwAAAAAAACkiOAMAAAAAAJAigjMAAAAAAAApIjgDAAAAAACQIoIzAAAAAAAAKSI4AwAAAAAAkCKCMwAAAAAAACkiOAMAAAAAAJAigjMAAAAAAAApIjgDAAAAAACQIoIzAIATbbd6T9nSpl1L2tPzu1N6uG5X92lXDgCnVa/146YeTt7T8x27CgDoCcEZADj1TAN6StnEQkDiKHg3L+Hvyo0KAHRkvRSpOyPLgcF2ADjdCM4AwKk3oturK6qvlpVz1nJl83pFt8e8UvRiQFe/935PdykPqzhT0oYtBQAcYGw+rDvd5ZkKWWki86XdAQD6C8EZAOhz7rCguy+0a9eNfdsSPZyxrBtTVtr03mPL71T3bKEnWhZ/v5fVE8/iabatvY3SAefnimYPNQuetCvv0BfDmrAvAeBk6LF+/PBCd/zyxLWkKzs1va7P6tb0gN0AAP2F4AwA9LnBc+c1UX+r1chwnPeNNU1cntCgu+Y0zFcuhL2b5VlV8okGeiWv6caNoLxWfBKWr5c0XRzWUuz9/vCfEV3KOW9fiaSx7zTU0KwudZPZ43z+j5lnB55fJf9Imafe5y/lljWXSJtvV96p3XdvVctd0KhdB4Djrrf6cU3F/LZumbrXZL5oUfcTwflObfy8KBW+of4E0LcIzgBAvxu6olu5Nb1+5zeoN/WqEu29HNHt+RH72jF2QTlt65fo3CrZBVX9fWLle3r+07Imog3usXmngR9+3ujXC5qovAmCKSbA0XUDPVfWD/75up+/rFeR7Jlc+YGuDnmvR6dmnbuN8POMduWthb3K00Xn1L+O/FYAcMz1Vj+Oq/B03tbXA5q8PK7ay1r32TM7L/Rj7LoDAP2H4AwAwG1wBw3q9TeqJLI/okOGspN5Vez2TmW+atHgHprQxawfTNnT6kvp4rleGuhfKpO1L5tpN/So66FJ/pw+Zrmhxkz3Q7IA4FjosX4c/GrYvuqOyZoh6xBAvyM4AwDwsk3s0KaNlWXlpsLsDzNfzFxlNhyWZCcW7kbj12ia+55+2bIvXV5vqzu0ycw5oPOatL20h/Nejfq4Ml/Y1aQP26plh3XglJPtylvyhmnFvy8AnBA91o+7v25LZzN2SGyH3KyZcbIOAfQ9gjMAAIcJKqyp8WFTr7YWdD0530ukMb5R6iZzxqa5x+ageaJiYtJHd96brYY23r1V5uaV7hr2CbvVR6pkDwrw2GFWwXw6Se3K27A3Gb1l/gBAGnqtHzf1uLgWC+53wsuauREMnQKAfnXmo8O+BgCcSmZOlP0BFfNI7djjtHde6M6MmZDxWTh/iyv+/onCgjLFt8o8tfMQmKc1/TSs6vd+UMXsbyaQDOcpMNk3006j3WPmKAjLfGbolJeh489f0Jn4sR1m/pvgXJybibvXVKy7K66J2PdrV95O8rdt/t0A4PjptX7cf23Zd11px1w/8tvUmwDgIDgDAAAAAACQIoY1AQAAAAAApIjgDAAAAAAAQIoIzgAAAAAAAKSI4AwAAAAAAECKCM4AAAAAAACkiOAMAAAAAABAigjOAAAAAAAApIjgDAAAAAAAQIoIzgAAAAAAAKSI4AwAAAAAAECKCM4AAE603eo9ZUubdi1pT8/vTunhul3dp105APSPjdKU7lT37Np+rcupTwGgFwRnAOC023mhO5NTykaWVo3vptxjlLRhV2Gtl2K/a7AcGCwCAHi8YE5Yd97T8x1blGCCQmYfAj8ATjOCMwDQF8ZVeLqi+qpZysoUr3UfoMF+Y/P2N/WXZypkpYnMl3YHAEBzA7r6faT+LA+rONOkE2C9pLmtWeWcuhUATjOCMwDQd0Z0vTCu2suadu0WaVMPg97LaGaN3T6zqJqWNRfsE+nhDLJqIse4+yJybDv0KHhvtPfTe0+8N7TZtvb8ntX48X3R79csA6hdeYd2anpdn9Wt6QG7AQCOs3j2ylzFbg60K4/WnddUrNvNh/HFsCbsy5Bz/Pyycje/UcZuAYDTiuAMAPQ90/jOq1F4ZnswvcwaL8Axottm29MFp9E8qyW/h3P1ga4OuW+2TODmkTJudk5ZufqiHvsBkvWSpovD4XvLs6rk/eDOiC7lpMpKZBjQTkMN57Mujdn1TlTy+jFjz989fjzAUsn757aipZxzrolhR+3KO7Xx86JU+Eajdh0AjrON0jUVz5a9utOt/2yB1bo8ee3wMgcPa/fdW9VyF2L150Ypr0qurNvdXA8A4IQiOAMA/Wbnhe4X15S7eUWD7npNr7Wg74JsDy+zJhYw6UCu7AdsvIBL41eTfeM03n9a1kQ0YDE27zTw1/T6nZedM/r1giYqb4Jgimmgdx3gcBrvP/jnP3ZBOS3rVSR7Jjw35/OmZqXI5xntyjvi/K4/VsiaAXBC2DpraX7EbkhoV77+RMXYteMwwsyb6aJT9X8d+ax2nw8ApwzBGQDoC2sqztjU85lFZcorYU/kh23V6ouaDlLTTSN5zRZ2Kp7pMjq/EgZLHJmvWjTehyZ0MesHU/a0+lK6eK6Xxv6XyrTqvW2aOh/RrvwAJmsm2esLAGjFZme6yw01nOuUl7W5p+eL5lo1T50KoG8QnAGAvhCdEDgSmPFlF1QNGsh2OcLeSi+LxrenX7bsS9eAJi/bTB03i+e8JmNDprr1Xo36uDJf2NUkE4zKDuvAKXvblTfj9vA6v3G01xcA0IVI1qU7f5cZcup3Gnjz2bjriTnNAOC0IDgDAP3ODAOqL+p+q6c3DWWUSQwV6owXeKkVn4TDhEwqfGLS3MFz5zWx1dDGu7fK+MOtDmm3+kiV7EEBHjvM6vLEAZ/Rrrw5L2vmRmIeHgA4xhL1upm4PTbhb7tyk2VYf6tVOzm8Oz9NLxMC2yC3mzk5dEU/xDoMvPlscmXn9fe9XSMA4LgiOAMAfc+klXuTAPvDmswSf+KRs4870a5fHnlaUxuD0w9ULWyHT3rKb6vwNJGq7jTEb51d1FxxuLuJgH2VfHDe0y/Pq5povEd7X19ffhYbcmW0K2/JPOaVrBkAJ068Xp9u3HDq6nFbZrQpd+rt7woKhsyaSdmTEwq3Fn3Sk7PMvNXFp8nJ5gGgf5z56LCvAQAAAAAA8JmROQMAAAAAAJAigjMAAAAAAAApIjgDAAAAAACQIoIzAAAAAAAAKSI4AwAAAAAAkCKCMwAAAAAAACkiOAMAAAAAAJAigjMAAAAAAAApIjgDAAAAAACQIoIzAAAAAAAAKSI4AwAAAAAAkCKCMwAAz84L3ZmcUra0aTccwN2vpA27CgA4zTb10Fwb7r7Qrt3S3J6e353Sw3W7CgDoCsEZAOgHfuAlWO7p+Y4twyfk3ax09Luvl7x9YsExe1MUXdreIAFAp/bXMQRXACAdZz467GsAwKlkGt95qbyi22N2Uy9MoGdmW7dW5zVqN6FDJgDj/CmW9v125m/0SMpJFd1QfX4ksv2NLvFbAzhyJnh8Ta8vP9MP0wN2Wy+84zVuHtG1BgD6DJkzAHDarb9xbvhndalFY3mjFPaa3qnu2a0RflaHWWYWVbObfbvVe2G5s8R6XoNhUJEe2kT2R/Tz49kl3nviPbnNtrWSyF7Zl3nSa3kXvhjWhH0ZtVHKq5K7oesZuwEAPrWdml7Xx3Xx3MGBmVjd3nTIa6Ren7ymYt1u9iWzNmPH8OpWU5eH14B4duHB1xbvvfHrVbNt/jHIFgVw/BGcAYDTbuyCclrWXIt5YkbnV1RfXdFSzm6IMo3r/LYKT7196k8X4gGG9ZKmi8NaMmVmKc+qkk82hM3nP1LGPUZZufqiHttGtmk4z20tqGrfXy1IxRn/XEd0yWSTrEQa9DsNNdoEm6J2q0+kBXtuq89U0KLuRxrvvZZ3Y/fdW9VyF+JZMM7vN1eZ1VKQLQMAn8HQhC5m15z69uDAxeD0A7fuqxbG7ZYoEwzJq1F4FtaPWVvk2tTDmUVlyn796dT9lfy+4EklP6UfM94xlnLO+fxs6/uW15YBTV4eV+1lLRIsf69Gm2ATABxnBGcA4NQb0W230WsCJMnex/Y2fl6UCt/q6pDdEOM0zn9a1kThmzDgMDbvNrBfv4s3wHPlB/YYXsCl8asp39Tj4ppyN69o0BQ5Bqe/dRr4y3plz3H06wVNVN4EgSUT4FD089oYnJ6PnLtt0Dfe2/Xey9sLe5ani86pfx0Nwni/X67cathS+Hej9xfA0RnQ1e/9gLhXxzTNnDzI+hMVtaDvDhgStVt9pEp2QdeDQLpzLSrPJgIqjlw5GFY1OjUrbTWc8vbXlsHpG8rV32rVrxNNlmjuxr5rlRdg8q8/AHB8EZwBgD7hZ8d4vY9dNsLbyHzVrqcynuliziWc42BcmS/sy2bc3l0/WLOn1Zfqrmc0kVY/XVyzBVav5W15wTGv5/iGGs5NkB8c263+ScWz5RbzM0Tfa/52wy17uQGgW352jMmKVPFa+yf2deNsJgi8HyQ3FQlYj82r/n0YrG99bTGB/jBYs7GyHD8WAJwwBGcAoN+4vY/qMvujNS8LxrenX7bsy46sqfHBvnSZ1HT70uVlq7hDm8wcCTqvyY57QL20egVp98n0/F7LuxXNGjKBpjWT0x8P/LjrBwRg3CFqAPAJDF3Rd6Z+czNXjkjiWLu/bttXnWl3bTGZNl4mzqZeVTof7goAxxHBGQDoO6YRK01kvrTrrX2ZiY7r94IV4YTAdphP8Uk4n41Jda/P6lZHT/+wc8r8FE6yuz8VXho8d14TTiN/491bZSJDoDoV9L7uvND9JpkvvZZ3zHn/jxV/TgRvSIEf9AkCP7my87p5Cr47cXC2m+AUAHTKBow7yHZxmQnOI8OKNkrxCYHdejsyv5i5fiSHsR6sw2uLCVjXt/V+/Y0aBwx3ZUJgACcFj9IGgFPONEyTQ3EmCtFHp5o5UZybfrvmC/cxkz76je5xFZ6aoTnxxzvHP8PsEwkumGFBbR69bZ7UMRecwGyTR037+zQvayV+brMqFLZVbISPq+61vLXkb5v4bRLcz4oe23309rL32jCBGyYOBnAUkvWLEatjonV/RGSfaP1orhm3Gtf0airyKG23/g8D+vFrj3f8Vo/ejte/zetPbx8dWLe2KweA44LgDAAAAAAAQIoY1gQAAAAAAJAigjMAAAAAAAApIjgDAAAAAACQIoIzAAAAAAAAKSI4AwAAAAAAkCKCMwAAAAAAACkiOAMAAAAAAJAigjMAAAAAAAApIjgDAAAAAACQIoIzAAAAAAAAKSI4AwAAAAAAkKIzHx32NQDgVNrUw8m8KnbNlyuv6PaYXUHv1kvK5pfND6v6/IjdKG2UpjQX+/HHVXj6QFeH7CoA9KU9Pb97TcW6Xd1XNza5dmUXVP3+igbtqrFbvafp4pq30qQcAE4KgjMA0De8hq4IynwC5rd9JOXk3Ejc2BeceTXFbw4ALbkBbmlpdV6j7gZTr77RpWB9Pzf4vUVABsDpwLAmAOhzptcxe/eFdu26sW+baTRPTgXLw3W73TBlpU3vPbb8TnXPFnqiZfH3m8Z34nhNt7XjvSf4jMT3SZ5/8vzalrexUcqrkruh6xm7AQBOBJO9EtZ9++rOtuWJute5FhzaF8OasC87svNCPxKYAXCKEJwBgD43eO68JupvtbpjNzjeN9Y0cXnCNnidxvfKBdVXV7ylPKtKvqQNt8yq5DXduBGU14pPwvL1kqaLw1qKvf+enrufN6JLJttkJdKg32mooVld6jjTxNwc5NUoPAvPMdpYN4GX/LYKT22Zs/wwPWALHe3K23HeP1eZ1VIkWwYAToLd6hNpwa/7nqmgRd2PBKfblW+UTGaLX15WzrkWdBdYD+2+e6ta7sKBWTJJ7v5npdVI8KjbwDoAHCcEZwCg3w1d0a3cml6/8xu1m3pVmdWtIEAxotvRwMPYBeW0rV8iwRx3nL+/T6x8T89/WtZE4ZuwwT02r6XI541+vaCJypsgmGMa3Iru38Zu9ZEqzud/1zSg4n/+twfM8dKuvB3v/bnywWn3RiXPzQOA42dwej5S9w1o8vK4ao33dr19+eh8tO7zgu2NX7up48LMm+miU/V/nQxyL2vOlmcn/aC+x3QiqOJcL/zg0dMFqXjt0MEhAEgbwRkAgEanZlV7WfPS1dffqJLovTTj+v3gQrbJ5MLtZL5qkYkyNKGL2WW9chvUe1p9KV0813nmittAP5s5IK39vRr1Vp/frry13eqfVDxbbjmfzOi836vs9SxnnJsHAjQAjoWdF7oT1O0mQGIn1vW1K08MCY1Pft6JEd0O6scbasxEh7RGy5ylPKziTDxAEwusux0N3QaHAOD4IDgDAPCyXezQpo2VZeWmwt5LM1+MO2wnaCSXzby3XYk3lvf0y5Z96fJ6Y92hTTs1vdZ5TXaRxfJlZty+auZLZbL2ZVPtylsxgSTTc5uP37i46/EbiJDXswwA6dvUw5lFKTIktFqI1qdtyk3gJm8yB/1rw4qWeqrf2mTeuFmZIVP3R7N4AOCkIzgDAHCYRvGaGh829WprQdeTmSDZYX1pX7qT39rX7dk0+NgcNE9UrEeHTdl5b7Ya2nj3Vpmb3U3u6L73wHkObOAnOUdOoF15KwO6+n14UxLcuJhHaa8e8Khsd36a8a4ygwDgUwoyB3de6H4yM8bRunxcmS/sS7d+s68Pwzn+jy3qR/fakw2D917d/ygMhLd5PwAcdzxKGwBOPW/C3GSb2fR2xobjmF5Q20sanxA3/v6JwoIyxbfKPLUBCJPW/tNw5IkZZv9HYbnDZN+E6fDjKkTKfO4jUd0MndbztzRlz71mV905cCKTAsc/33yH+HdsV94p9zhmYuRgjp7kb3/I7wcAn0C87ptVobCtYqQOa1fu1dvuS7feLZxd1OtMp/Vnsn5MXBvMtSW/bFccJvAdnf/MiO3T/NoCACcFwRkAAAAAAIAUMawJAAAAAAAgRQRnAAAAAAAAUkRwBgAAAAAAIEUEZwAAAAAAAFJEcAYAAAAAACBFBGcAAAAAAABSRHAGAAAAAAAgRQRnAAAAAAAAUkRwBgAAAAAAIEUEZwAAAAAAAFJEcAYAAAAAACBFBGcAAKfLeknZuy+0a1eTNkpTulPds2v7tSsHgP6yqYeTU03qVbP9np7v2FUAQE8IzgDAabfzQndMwzqydB18cI9R0oZdhW9Pz+9Gf9sWNyomaGT2KW3aDQCQoibXBuooAEgPwRkA6AvjKjxdUX3VLGVlitfIDjkSA7r6vf+7Okt5WMWZZkGsTT3MbyuXG7frAJCyoSv6wa+77LUhZ64VX4/YHXwjum3Kv7+iQbsFAHD0CM4AQN8Z0fXCuGova5EUdZu2bpcwcGO3zyyqpmXNBftEMkSCrJrIMRLp77vVe8GxzfJw3RbY94TrRrNtrcWOn1+2W33x7Ja5it0caFfehS+GNWFfRm2U8qrkbuh6xm4AgGNmt/pIjcK3ujpkNzhidetBGTUfIhk4yaFPyeyc2DG8utfU9WY4qbdPPPvw4GuH9954J0Ozbf4xGH4F4PgjOAMAfc80aPNOo/xZ0HtqMmu8RrDtMX26oAnNainoYX0Qa8DLDdw8UsbNzikrV1/UY78RvV7SdHE4fG95VpW831Ae0aWcVFmJNNh3Gmo4n3VpzK630+T4URulayqeLdvzXtGS83lR7cq7sfvurWq5Cxq16y7n/OYqzm83n+yNBoBjYueF7jv16K3pAbvBMzj9wK0Xq4WDsv7WVMxv65Zbfz5TQYu6Hw3uzywqU7Z1s7k2VPL7gieV/JR+zHjXn6Wcc7yf7fWg5bVjQJOXk50M79Woj+viufh3AICTguAMAPQbtxG+ptxNm6K+U9NrLei7oFHuZdbEAiYdyJX9gI0XcGn8ahrge3r+07ImCt+EAYuxebcB/vqd10Af/XpBE5U3wVAgE+BQdP+WvOPnyvPN93e+64+tAiPtyjsSZgxNF51Tjw0JaHN+AJA6p55aNEGUw9RTZsis/754wMRk4lSyC7oeBNpHdLs8mwioOHJl/WCvP6NTs9JWwylvf+0YnL6hXP2tVv2MmPU3boZivOPADzAlOxQA4PghOAMAfWFNxRmbGm57Mm/7DeYP26rVFzVtAwxekGHNFnYqnukyOr8SNLaNzFctejKHJnQxu6xXbqbNnlZf6oT1fNrsIne5oYbzO/up97vVP7lZOcFvDQDHzfoTFRUNohze4FfD9pV1NtN2nprcVCSgPTYfm9um5bXD7QgIgzUbK8vxYwHACUNwBgD6QnRC4EhgxpddUDUIMNjlCIfheFk0vj39smVfurzeVjdTx83iOa/JE9vDGc8aWn25ZnL240Evd535DwAcB5vuZOWFhaOZ7Hf31+14QMbNggm55V1ofe3wMm28TJxNvap0MRwWAI4hgjMA0O/GLrhzxITzBDQxlFFGfnZLN2yae/FJ+AQj00tbn43NbTB47rwmnEb8xru3yvjDrToyoD+cjcxZYyafjE4InDhvMzFkbMLfduXdcodJ+XMeJJ7k5CzuvA05M78NKfYA0tdsEuDD29RjM2TWZq+49Xp0/jG/vKM6vrNrh3f92tb79TfO92g+HJYJgQGcFARnAKDvmWE53iTAfoaHWeJPS/LmCjATN3rlnTd0zXj/amE7fNKT6aUN5iiwhq7o1tlFzRWHu+75HJ33Jpl0jz2zrVvu5MW++HlPN24kJrZsV95OON+M9/lvdfEpgRcAJ4Cdf6yWqPuz7tP3jL3gSXZh1p+zHnviUmTI7GReig6ZNY/qdurjRnDd8Cae73SYZ0fXDqcOv272ccpO1nBYANjvzEeHfQ0AAAAAAIDPjMwZAAAAAACAFBGcAQAAAAAASBHBGQAAAAAAgBQRnAEAAAAAAEgRwRkAAAAAAIAUEZwBAAAAAABIEcEZAAAAAACAFBGcAQAAAAAASBHBGQAAAAAAgBQRnAEAAAAAAEgRwRkAAAAAAIAUEZwBAHh2XujO5JSypU27wVovKXv3hXbtKgAAAICjRXAGAE47E1wxQZfEcqe6Z3fAJxX7/e/p+Y7d7trT87vRv0uyPLRR8vZ5uG43AMBJ16p+9DsM/KVFJwH1I4DT4MxHh30NAOgHpsE7s61bq/MatZtaMo3nn4ZV/f6KBu0mdGpTDyff6JL9rXer9zRdHNbSQb+9+a3z2l/u/g2knJalmyu6PWa3A8CJ1V39aAIwcyqrPj9it1jUjwBOCTJnAKDPbPy8qEw53vj1ex3NclBGzXun4XzQPqZR7ZeZJdZ76fZ+lrThNsTtPoke0Ojnx3tPvffEe0ObbWslkZ2SHLbVc3krI7odudEYPHdeE9rWLwdkx+iLYac8yfm++WXlbn6jjN0CAEej1/ovUq87S3cZmd3Vj19mxu2rKOpHAKcHwRkA6CfrJc1tLeh6omdxdH5F9dUVLeXshqT6ouYaN9x96k8XpOKfwgCKc0yvt9M7Rr08q0o+OTxnWXOTj5R5avYpK+cc77ENrpjAjjmnqn1/teAcfsYEc4wRXXLOqbISuSHYaaihWV3qsHd0o3RNxbNl79xWn6mwlY/dQPRafpR2371VLXchETjLq5Ir0xsM4Mj1Vv+ZwE1ejcIzW15WpnjtEw0t2tPqyzXlpuJZM9SPAE4TgjMA0DdMD+O2CguHGJ6UXVDVTyUfmtDF7JpevzMNdKdx/tOyJgrfhAGFsXkt5fzyUK78QFeHzCsv4NL41ZRv6nHRaXDfDM9pcPpbFbLLemUb+KNfL2ii8sYGa7wAhqKf19KmXlVmtRSkwQ/o6s1Z1V7WbOZOr+XdcH6rxUXVcjfs7+ALe56ni85X+zpy87HzQj/GPh8AjkqP9d9OTa+1oO+mB9xSU7dfL4zHg+kdO6B+NEOW3PrxmorOZ8U6FqgfAZwyBGcAoE/sVh+psi8wcBgD+sNZ+9LKfOU3zg8Sz3QxmTo/BA36cWW+sC+bcYNBfrDG9J5KF8+1+zzLzbIxWTth2n02v2wLHb2Wd8HtgXZuLoIgV8Ck9pteZ7PcUGPGH7Ll3awkh6ABwJHotf77sK1afVHTkfLp4pot7M6B9ePYvK0bneXmtvNZflYl9SOA04fgDAD0g50Xum+GHh1JD+OeftmKB2S8LBifV965NTU+2Jeu92rU7UvXgCYv295Yt6f2vCa7CjDNhkOu/CU2uXGv5e25E1maHt6274tkFZnv6vwOlbx/4+PcvPjrPNocwJHosf4zWZXJ8i6vMx3Xj2MXlPPnpKF+BHAKEZwBgD7QbBLgQ1t/4jSC/UwYL3BSKz4Jhh355beCzJhW7JwyP4WNaTfDx2nwR9PX3YkitxraePdWmcgQqLZs1s3cQZP49lregeDG44AnkMS4afrjXmbQ0BX9ELvpeaZC1gwPc153GRwCgH16rf9MsKS+qPs9zMHVTf3oXRtscJ76EcApxKO0AeC0M2P2mw3FMT2ebiPWzHmSV8Vu9k0UnnlDj/a9f39D2nsEqp/OPq7CU39+GYd5WlObR3d7DXS70uT4RldBjpg9Pb/r9ar6gu/m6rW8Bfe7L6pmVwO5su1dTv72id8uxjuPBo+KBXBkeq3/9l8/TICkozqqXf2YvPYE16xmqB8BnHwEZwAAAAAAAFLEsCYAAAAAAIAUEZwBAAAAAABIEcEZAAAAAACAFBGcAQAAAAAASBHBGQAAAAAAgBQRnAEAAAAAAEgRwRkAAAAAAIAUEZwBAAAAAABIEcEZAAAAAACAFBGcAQAAAAAASBHBGQAAAAAAgBSd+eiwrwEAp9KmHk7mVbFrvlx5RbfH7Ap6t15SNr9sfljV50fsRmmjNKW52I8/rsLTB7o6ZFcBAADQ9wjOAEDf8II0IijzCZjf9pGUkyq6sS8482qK3xwAAAAHY1gTAPS53eo9Ze++0K5dN/ZtM1khk1PB8nDdbjdMWWnTe48tv1Pds4WeaFn8/SaokThe022txY9/T893bIFrT8/vhp+d/K7ty9vbKOVVyd3Q9YzdAAAAAHSB4AwA9LnBc+c1UX+r1UhA431jTROXJzTorm3q4coF1VdXvKU8q0q+pA23zKrkNd24EZTXik/C8vWSpovDWoq93w+gjOiSyTZZ2XR3de001NCsLnWaabLzQo/1bXB+1YJUXAwDLLvVJ9KC/ezVZypoUfcjwaN25W0532+uMqulSLYMAAAA0A2CMwDQ74au6FZuTa/f+QGJTb2qzOrW9IBdH9HtaOBh7IJy2tYv0eyU7IKq/j6x8j09/2lZE4VvNOoWOsbmtRT5vNGvFzRReRMEc3bfvZWi+7fjnP/t4Fz9YNO23vvr0/OR+V0GNHl5XLWGX9q+vDXv++XK8y3Pt5IPM3OSWUUAAAAAwRkAgEanZlV7WfOyTdbfqJK7EAs2mHlTgmE/TSYXbifzVRg82WdoQhezy3rlDmPa0+pL6eK5FvvvkxiWNLOomi1x7bzQneDcpzRdXLMFVrvyFnarf1LxbLnlfDKj835WjlnKyhSvEaABAABADMEZAICX7WKHNm2sLCs3FWbKmPlc3GE7kQBDzpZ1qvFrNBixp1+27EuXl63iDm3aqem1zmuyiycZbZSuqagFVf3ze7qgCVvmDsmaWZQKz+y5m2FP47bMaFfeigkkrblDumKBHXc9Oe+NzxvGBQAAAEQRnAEAOEzQYE2ND5t6tbWg68lMkOywvrQv3clv7ev27DCh2Bw0T1SsR4dN2aFIWw1tvHurzM0rdq6bLpzN2Pfs6fliInPGEWTu7LzQ/SaZMe3KmxvQ1e9tQCga2DGP0l494FHZ7vw0411mBgEAAOC0IzgDAKee9/QjfziSP/9J8mlIZu6XRj6vRjARsGdw+oZy9UVN2+yQHzMLXWXODE4/ULWwrTn7/mx+W4WniTlazLw3Zxc1VxzufCJgy5uzxs9eueacfzRzZkTXC+PhnC8z27oYy4xpV94r/7e3S15aOihwAwAAgL515qPDvgYAAAAAAMBnRuYMAAAAAABAigjOAAAAAAAApIjgDAAAAAAAQIoIzgAAAAAAAKSI4AwAAAAAAECKCM4AAAAAAACkiOAMAAAAAABAigjOAAAAAAAApIjgDAAAAAAAQIoIzgAAAAAAAKSI4AwAAAAAAECKCM4AAAAAAACkiOAMAAAAAABAigjOAAAAAAAApIjgDAAAAAAAQIoIzgAAAAAAAKSI4AwAAAAAAECKCM4AAAAAAACk6MxHh33ds93/+//sKwAAAAAAgJNj8N//j331+R1pcAYAAAAAAADdYVgTAAAAAABAigjOAAAAAAAApEb6/6rWVkmiWdmkAAAAAElFTkSuQmCC;" vertex="1" parent="1">
                    <mxGeometry x="-270" y="321" width="1127" height="569" as="geometry"/>
                </mxCell>
            </root>
        </mxGraphModel>
    </diagram>
</mxfile>